<ttFont>
    <TTGlyph name=".notdef" xMin="86" yMin="0" xMax="580" yMax="660">
      <contour>
        <pt x="86" y="0" on="1"/>
        <pt x="86" y="660" on="1"/>
        <pt x="580" y="660" on="1"/>
        <pt x="580" y="0" on="1"/>
      </contour>
      <contour>
        <pt x="219" y="69" on="1"/>
        <pt x="445" y="69" on="1"/>
        <pt x="383" y="183" on="1"/>
        <pt x="335" y="284" on="1"/>
        <pt x="331" y="284" on="1"/>
        <pt x="281" y="183" on="1"/>
      </contour>
      <contour>
        <pt x="331" y="396" on="1"/>
        <pt x="335" y="396" on="1"/>
        <pt x="382" y="490" on="1"/>
        <pt x="436" y="590" on="1"/>
        <pt x="229" y="590" on="1"/>
        <pt x="283" y="490" on="1"/>
      </contour>
      <contour>
        <pt x="162" y="125" on="1"/>
        <pt x="279" y="340" on="1"/>
        <pt x="162" y="557" on="1"/>
      </contour>
      <contour>
        <pt x="503" y="125" on="1"/>
        <pt x="503" y="557" on="1"/>
        <pt x="387" y="340" on="1"/>
      </contour>
    </TTGlyph>
    <TTGlyph name="A" xMin="0" yMin="0" xMax="554" yMax="655">
      <contour>
        <pt x="0" y="0" on="1"/>
        <pt x="216" y="655" on="1"/>
        <pt x="337" y="655" on="1"/>
        <pt x="554" y="0" on="1"/>
        <pt x="443" y="0" on="1"/>
        <pt x="338" y="354" on="1"/>
        <pt x="311" y="440" on="0"/>
        <pt x="277" y="572" on="1"/>
        <pt x="273" y="572" on="1"/>
        <pt x="241" y="449" on="0"/>
        <pt x="212" y="354" on="1"/>
        <pt x="106" y="0" on="1"/>
      </contour>
      <contour>
        <pt x="122" y="185" on="1"/>
        <pt x="122" y="268" on="1"/>
        <pt x="428" y="268" on="1"/>
        <pt x="428" y="185" on="1"/>
      </contour>
    </TTGlyph>
    <TTGlyph name="AE" xMin="1" yMin="0" xMax="780" yMax="655">
      <contour>
        <pt x="1" y="0" on="1"/>
        <pt x="334" y="655" on="1"/>
        <pt x="770" y="655" on="1"/>
        <pt x="770" y="566" on="1"/>
        <pt x="501" y="566" on="1"/>
        <pt x="501" y="386" on="1"/>
        <pt x="726" y="386" on="1"/>
        <pt x="726" y="297" on="1"/>
        <pt x="501" y="297" on="1"/>
        <pt x="501" y="88" on="1"/>
        <pt x="780" y="88" on="1"/>
        <pt x="780" y="0" on="1"/>
        <pt x="396" y="0" on="1"/>
        <pt x="396" y="574" on="1"/>
        <pt x="392" y="574" on="1"/>
        <pt x="362" y="508" on="0"/>
        <pt x="295" y="369" on="1"/>
        <pt x="111" y="0" on="1"/>
      </contour>
      <contour>
        <pt x="151" y="177" on="1"/>
        <pt x="151" y="260" on="1"/>
        <pt x="456" y="260" on="1"/>
        <pt x="456" y="177" on="1"/>
      </contour>
    </TTGlyph>
    <TTGlyph name="Aacute" xMin="0" yMin="0" xMax="554" yMax="876">
      <contour>
        <pt x="0" y="0" on="1"/>
        <pt x="216" y="655" on="1"/>
        <pt x="337" y="655" on="1"/>
        <pt x="554" y="0" on="1"/>
        <pt x="443" y="0" on="1"/>
        <pt x="338" y="354" on="1"/>
        <pt x="311" y="440" on="0"/>
        <pt x="277" y="572" on="1"/>
        <pt x="273" y="572" on="1"/>
        <pt x="241" y="449" on="0"/>
        <pt x="212" y="354" on="1"/>
        <pt x="106" y="0" on="1"/>
      </contour>
      <contour>
        <pt x="122" y="185" on="1"/>
        <pt x="122" y="268" on="1"/>
        <pt x="428" y="268" on="1"/>
        <pt x="428" y="185" on="1"/>
      </contour>
      <contour>
        <pt x="260" y="691" on="1"/>
        <pt x="214" y="744" on="1"/>
        <pt x="365" y="876" on="1"/>
        <pt x="423" y="807" on="1"/>
      </contour>
    </TTGlyph>
    <TTGlyph name="Acircumflex" xMin="0" yMin="0" xMax="554" yMax="837">
      <contour>
        <pt x="0" y="0" on="1"/>
        <pt x="216" y="655" on="1"/>
        <pt x="337" y="655" on="1"/>
        <pt x="554" y="0" on="1"/>
        <pt x="443" y="0" on="1"/>
        <pt x="338" y="354" on="1"/>
        <pt x="311" y="440" on="0"/>
        <pt x="277" y="572" on="1"/>
        <pt x="273" y="572" on="1"/>
        <pt x="241" y="449" on="0"/>
        <pt x="212" y="354" on="1"/>
        <pt x="106" y="0" on="1"/>
      </contour>
      <contour>
        <pt x="122" y="185" on="1"/>
        <pt x="122" y="268" on="1"/>
        <pt x="428" y="268" on="1"/>
        <pt x="428" y="185" on="1"/>
      </contour>
      <contour>
        <pt x="120" y="725" on="1"/>
        <pt x="219" y="837" on="1"/>
        <pt x="331" y="837" on="1"/>
        <pt x="430" y="725" on="1"/>
        <pt x="385" y="694" on="1"/>
        <pt x="277" y="784" on="1"/>
        <pt x="273" y="784" on="1"/>
        <pt x="165" y="694" on="1"/>
      </contour>
    </TTGlyph>
    <TTGlyph name="Adieresis" xMin="0" yMin="0" xMax="554" yMax="822">
      <contour>
        <pt x="0" y="0" on="1"/>
        <pt x="216" y="655" on="1"/>
        <pt x="337" y="655" on="1"/>
        <pt x="554" y="0" on="1"/>
        <pt x="443" y="0" on="1"/>
        <pt x="338" y="354" on="1"/>
        <pt x="311" y="440" on="0"/>
        <pt x="277" y="572" on="1"/>
        <pt x="273" y="572" on="1"/>
        <pt x="241" y="449" on="0"/>
        <pt x="212" y="354" on="1"/>
        <pt x="106" y="0" on="1"/>
      </contour>
      <contour>
        <pt x="122" y="185" on="1"/>
        <pt x="122" y="268" on="1"/>
        <pt x="428" y="268" on="1"/>
        <pt x="428" y="185" on="1"/>
      </contour>
      <contour>
        <pt x="170" y="710" on="1"/>
        <pt x="145" y="710" on="0"/>
        <pt x="114" y="742" on="0"/>
        <pt x="114" y="766" on="1"/>
        <pt x="114" y="791" on="0"/>
        <pt x="145" y="822" on="0"/>
        <pt x="170" y="822" on="1"/>
        <pt x="194" y="822" on="0"/>
        <pt x="226" y="791" on="0"/>
        <pt x="226" y="766" on="1"/>
        <pt x="226" y="742" on="0"/>
        <pt x="194" y="710" on="0"/>
      </contour>
      <contour>
        <pt x="380" y="710" on="1"/>
        <pt x="356" y="710" on="0"/>
        <pt x="324" y="742" on="0"/>
        <pt x="324" y="766" on="1"/>
        <pt x="324" y="791" on="0"/>
        <pt x="356" y="822" on="0"/>
        <pt x="380" y="822" on="1"/>
        <pt x="405" y="822" on="0"/>
        <pt x="436" y="791" on="0"/>
        <pt x="436" y="766" on="1"/>
        <pt x="436" y="742" on="0"/>
        <pt x="405" y="710" on="0"/>
      </contour>
    </TTGlyph>
    <TTGlyph name="Agrave" xMin="0" yMin="0" xMax="554" yMax="876">
      <contour>
        <pt x="0" y="0" on="1"/>
        <pt x="216" y="655" on="1"/>
        <pt x="337" y="655" on="1"/>
        <pt x="554" y="0" on="1"/>
        <pt x="443" y="0" on="1"/>
        <pt x="338" y="354" on="1"/>
        <pt x="311" y="440" on="0"/>
        <pt x="277" y="572" on="1"/>
        <pt x="273" y="572" on="1"/>
        <pt x="241" y="449" on="0"/>
        <pt x="212" y="354" on="1"/>
        <pt x="106" y="0" on="1"/>
      </contour>
      <contour>
        <pt x="122" y="185" on="1"/>
        <pt x="122" y="268" on="1"/>
        <pt x="428" y="268" on="1"/>
        <pt x="428" y="185" on="1"/>
      </contour>
      <contour>
        <pt x="290" y="691" on="1"/>
        <pt x="127" y="807" on="1"/>
        <pt x="185" y="876" on="1"/>
        <pt x="336" y="744" on="1"/>
      </contour>
    </TTGlyph>
    <TTGlyph name="Aring" xMin="0" yMin="0" xMax="554" yMax="885">
      <contour>
        <pt x="0" y="0" on="1"/>
        <pt x="216" y="655" on="1"/>
        <pt x="337" y="655" on="1"/>
        <pt x="554" y="0" on="1"/>
        <pt x="443" y="0" on="1"/>
        <pt x="338" y="354" on="1"/>
        <pt x="311" y="440" on="0"/>
        <pt x="277" y="572" on="1"/>
        <pt x="273" y="572" on="1"/>
        <pt x="241" y="449" on="0"/>
        <pt x="212" y="354" on="1"/>
        <pt x="106" y="0" on="1"/>
      </contour>
      <contour>
        <pt x="122" y="185" on="1"/>
        <pt x="122" y="268" on="1"/>
        <pt x="428" y="268" on="1"/>
        <pt x="428" y="185" on="1"/>
      </contour>
      <contour>
        <pt x="320" y="698" on="0"/>
        <pt x="230" y="698" on="0"/>
        <pt x="172" y="749" on="0"/>
        <pt x="172" y="833" on="0"/>
        <pt x="230" y="885" on="0"/>
        <pt x="320" y="885" on="0"/>
        <pt x="378" y="833" on="0"/>
        <pt x="378" y="749" on="0"/>
      </contour>
      <contour>
        <pt x="275" y="741" on="1"/>
        <pt x="295" y="741" on="0"/>
        <pt x="323" y="768" on="0"/>
        <pt x="323" y="814" on="0"/>
        <pt x="295" y="842" on="0"/>
        <pt x="275" y="842" on="1"/>
        <pt x="254" y="842" on="0"/>
        <pt x="226" y="814" on="0"/>
        <pt x="226" y="768" on="0"/>
        <pt x="254" y="741" on="0"/>
      </contour>
    </TTGlyph>
    <TTGlyph name="Atilde" xMin="0" yMin="0" xMax="554" yMax="844">
      <contour>
        <pt x="0" y="0" on="1"/>
        <pt x="216" y="655" on="1"/>
        <pt x="337" y="655" on="1"/>
        <pt x="554" y="0" on="1"/>
        <pt x="443" y="0" on="1"/>
        <pt x="338" y="354" on="1"/>
        <pt x="311" y="440" on="0"/>
        <pt x="277" y="572" on="1"/>
        <pt x="273" y="572" on="1"/>
        <pt x="241" y="449" on="0"/>
        <pt x="212" y="354" on="1"/>
        <pt x="106" y="0" on="1"/>
      </contour>
      <contour>
        <pt x="122" y="185" on="1"/>
        <pt x="122" y="268" on="1"/>
        <pt x="428" y="268" on="1"/>
        <pt x="428" y="185" on="1"/>
      </contour>
      <contour>
        <pt x="349" y="703" on="1"/>
        <pt x="324" y="703" on="0"/>
        <pt x="279" y="724" on="0"/>
        <pt x="251" y="749" on="0"/>
        <pt x="218" y="770" on="0"/>
        <pt x="204" y="770" on="1"/>
        <pt x="166" y="770" on="0"/>
        <pt x="160" y="709" on="1"/>
        <pt x="91" y="715" on="1"/>
        <pt x="94" y="777" on="0"/>
        <pt x="153" y="844" on="0"/>
        <pt x="201" y="844" on="1"/>
        <pt x="233" y="844" on="0"/>
        <pt x="287" y="811" on="0"/>
        <pt x="329" y="778" on="0"/>
        <pt x="346" y="778" on="1"/>
        <pt x="382" y="778" on="0"/>
        <pt x="390" y="838" on="1"/>
        <pt x="459" y="833" on="1"/>
        <pt x="456" y="771" on="0"/>
        <pt x="397" y="703" on="0"/>
      </contour>
    </TTGlyph>
    <TTGlyph name="B" xMin="85" yMin="0" xMax="556" yMax="655">
      <contour>
        <pt x="85" y="0" on="1"/>
        <pt x="85" y="655" on="1"/>
        <pt x="290" y="655" on="1"/>
        <pt x="520" y="655" on="0"/>
        <pt x="520" y="494" on="1"/>
        <pt x="520" y="446" on="0"/>
        <pt x="471" y="367" on="0"/>
        <pt x="428" y="352" on="1"/>
        <pt x="428" y="348" on="1"/>
        <pt x="486" y="335" on="0"/>
        <pt x="556" y="256" on="0"/>
        <pt x="556" y="192" on="1"/>
        <pt x="556" y="98" on="0"/>
        <pt x="419" y="0" on="0"/>
        <pt x="306" y="0" on="1"/>
      </contour>
      <contour>
        <pt x="190" y="382" on="1"/>
        <pt x="278" y="382" on="1"/>
        <pt x="418" y="382" on="0"/>
        <pt x="418" y="479" on="1"/>
        <pt x="418" y="529" on="0"/>
        <pt x="350" y="573" on="0"/>
        <pt x="281" y="573" on="1"/>
        <pt x="190" y="573" on="1"/>
      </contour>
      <contour>
        <pt x="190" y="82" on="1"/>
        <pt x="294" y="82" on="1"/>
        <pt x="453" y="82" on="0"/>
        <pt x="453" y="197" on="1"/>
        <pt x="453" y="303" on="0"/>
        <pt x="294" y="303" on="1"/>
        <pt x="190" y="303" on="1"/>
      </contour>
    </TTGlyph>
    <TTGlyph name="C" xMin="50" yMin="-12" xMax="546" yMax="667">
      <contour>
        <pt x="342" y="-12" on="1"/>
        <pt x="214" y="-12" on="0"/>
        <pt x="50" y="168" on="0"/>
        <pt x="50" y="326" on="1"/>
        <pt x="50" y="482" on="0"/>
        <pt x="219" y="667" on="0"/>
        <pt x="346" y="667" on="1"/>
        <pt x="456" y="667" on="0"/>
        <pt x="532" y="585" on="1"/>
        <pt x="476" y="517" on="1"/>
        <pt x="420" y="575" on="0"/>
        <pt x="349" y="575" on="1"/>
        <pt x="263" y="575" on="0"/>
        <pt x="158" y="442" on="0"/>
        <pt x="158" y="329" on="1"/>
        <pt x="158" y="213" on="0"/>
        <pt x="259" y="79" on="0"/>
        <pt x="346" y="79" on="1"/>
        <pt x="427" y="79" on="0"/>
        <pt x="490" y="149" on="1"/>
        <pt x="546" y="83" on="1"/>
        <pt x="463" y="-12" on="0"/>
      </contour>
    </TTGlyph>
    <TTGlyph name="Ccedilla" xMin="50" yMin="-231" xMax="546" yMax="667">
      <contour>
        <pt x="342" y="-12" on="1"/>
        <pt x="214" y="-12" on="0"/>
        <pt x="50" y="168" on="0"/>
        <pt x="50" y="326" on="1"/>
        <pt x="50" y="482" on="0"/>
        <pt x="219" y="667" on="0"/>
        <pt x="346" y="667" on="1"/>
        <pt x="456" y="667" on="0"/>
        <pt x="532" y="585" on="1"/>
        <pt x="476" y="517" on="1"/>
        <pt x="420" y="575" on="0"/>
        <pt x="349" y="575" on="1"/>
        <pt x="263" y="575" on="0"/>
        <pt x="158" y="442" on="0"/>
        <pt x="158" y="329" on="1"/>
        <pt x="158" y="213" on="0"/>
        <pt x="259" y="79" on="0"/>
        <pt x="346" y="79" on="1"/>
        <pt x="427" y="79" on="0"/>
        <pt x="490" y="149" on="1"/>
        <pt x="546" y="83" on="1"/>
        <pt x="463" y="-12" on="0"/>
      </contour>
      <contour>
        <pt x="253" y="-231" on="1"/>
        <pt x="244" y="-184" on="1"/>
        <pt x="304" y="-180" on="0"/>
        <pt x="351" y="-158" on="0"/>
        <pt x="351" y="-136" on="1"/>
        <pt x="351" y="-117" on="0"/>
        <pt x="316" y="-96" on="0"/>
        <pt x="274" y="-90" on="1"/>
        <pt x="319" y="3" on="1"/>
        <pt x="384" y="3" on="1"/>
        <pt x="355" y="-63" on="1"/>
        <pt x="429" y="-80" on="0"/>
        <pt x="429" y="-135" on="1"/>
        <pt x="429" y="-223" on="0"/>
      </contour>
    </TTGlyph>
    <TTGlyph name="D" xMin="85" yMin="0" xMax="572" yMax="655">
      <contour>
        <pt x="85" y="0" on="1"/>
        <pt x="85" y="655" on="1"/>
        <pt x="256" y="655" on="1"/>
        <pt x="408" y="655" on="0"/>
        <pt x="572" y="489" on="0"/>
        <pt x="572" y="171" on="0"/>
        <pt x="409" y="0" on="0"/>
        <pt x="262" y="0" on="1"/>
      </contour>
      <contour>
        <pt x="190" y="85" on="1"/>
        <pt x="249" y="85" on="1"/>
        <pt x="354" y="85" on="0"/>
        <pt x="464" y="209" on="0"/>
        <pt x="464" y="330" on="1"/>
        <pt x="464" y="570" on="0"/>
        <pt x="249" y="570" on="1"/>
        <pt x="190" y="570" on="1"/>
      </contour>
    </TTGlyph>
    <TTGlyph name="E" xMin="85" yMin="0" xMax="484" yMax="655">
      <contour>
        <pt x="85" y="0" on="1"/>
        <pt x="85" y="655" on="1"/>
        <pt x="474" y="655" on="1"/>
        <pt x="474" y="566" on="1"/>
        <pt x="190" y="566" on="1"/>
        <pt x="190" y="386" on="1"/>
        <pt x="430" y="386" on="1"/>
        <pt x="430" y="297" on="1"/>
        <pt x="190" y="297" on="1"/>
        <pt x="190" y="88" on="1"/>
        <pt x="484" y="88" on="1"/>
        <pt x="484" y="0" on="1"/>
      </contour>
    </TTGlyph>
    <TTGlyph name="Eacute" xMin="85" yMin="0" xMax="484" yMax="876">
      <contour>
        <pt x="85" y="0" on="1"/>
        <pt x="85" y="655" on="1"/>
        <pt x="474" y="655" on="1"/>
        <pt x="474" y="566" on="1"/>
        <pt x="190" y="566" on="1"/>
        <pt x="190" y="386" on="1"/>
        <pt x="430" y="386" on="1"/>
        <pt x="430" y="297" on="1"/>
        <pt x="190" y="297" on="1"/>
        <pt x="190" y="88" on="1"/>
        <pt x="484" y="88" on="1"/>
        <pt x="484" y="0" on="1"/>
      </contour>
      <contour>
        <pt x="271" y="691" on="1"/>
        <pt x="225" y="744" on="1"/>
        <pt x="376" y="876" on="1"/>
        <pt x="434" y="807" on="1"/>
      </contour>
    </TTGlyph>
    <TTGlyph name="Ecircumflex" xMin="85" yMin="0" xMax="484" yMax="837">
      <contour>
        <pt x="85" y="0" on="1"/>
        <pt x="85" y="655" on="1"/>
        <pt x="474" y="655" on="1"/>
        <pt x="474" y="566" on="1"/>
        <pt x="190" y="566" on="1"/>
        <pt x="190" y="386" on="1"/>
        <pt x="430" y="386" on="1"/>
        <pt x="430" y="297" on="1"/>
        <pt x="190" y="297" on="1"/>
        <pt x="190" y="88" on="1"/>
        <pt x="484" y="88" on="1"/>
        <pt x="484" y="0" on="1"/>
      </contour>
      <contour>
        <pt x="131" y="725" on="1"/>
        <pt x="230" y="837" on="1"/>
        <pt x="342" y="837" on="1"/>
        <pt x="441" y="725" on="1"/>
        <pt x="396" y="694" on="1"/>
        <pt x="288" y="784" on="1"/>
        <pt x="284" y="784" on="1"/>
        <pt x="176" y="694" on="1"/>
      </contour>
    </TTGlyph>
    <TTGlyph name="Edieresis" xMin="85" yMin="0" xMax="484" yMax="822">
      <contour>
        <pt x="85" y="0" on="1"/>
        <pt x="85" y="655" on="1"/>
        <pt x="474" y="655" on="1"/>
        <pt x="474" y="566" on="1"/>
        <pt x="190" y="566" on="1"/>
        <pt x="190" y="386" on="1"/>
        <pt x="430" y="386" on="1"/>
        <pt x="430" y="297" on="1"/>
        <pt x="190" y="297" on="1"/>
        <pt x="190" y="88" on="1"/>
        <pt x="484" y="88" on="1"/>
        <pt x="484" y="0" on="1"/>
      </contour>
      <contour>
        <pt x="181" y="710" on="1"/>
        <pt x="156" y="710" on="0"/>
        <pt x="125" y="742" on="0"/>
        <pt x="125" y="766" on="1"/>
        <pt x="125" y="791" on="0"/>
        <pt x="156" y="822" on="0"/>
        <pt x="181" y="822" on="1"/>
        <pt x="205" y="822" on="0"/>
        <pt x="237" y="791" on="0"/>
        <pt x="237" y="766" on="1"/>
        <pt x="237" y="742" on="0"/>
        <pt x="205" y="710" on="0"/>
      </contour>
      <contour>
        <pt x="391" y="710" on="1"/>
        <pt x="367" y="710" on="0"/>
        <pt x="335" y="742" on="0"/>
        <pt x="335" y="766" on="1"/>
        <pt x="335" y="791" on="0"/>
        <pt x="367" y="822" on="0"/>
        <pt x="391" y="822" on="1"/>
        <pt x="416" y="822" on="0"/>
        <pt x="447" y="791" on="0"/>
        <pt x="447" y="766" on="1"/>
        <pt x="447" y="742" on="0"/>
        <pt x="416" y="710" on="0"/>
      </contour>
    </TTGlyph>
    <TTGlyph name="Egrave" xMin="85" yMin="0" xMax="484" yMax="876">
      <contour>
        <pt x="85" y="0" on="1"/>
        <pt x="85" y="655" on="1"/>
        <pt x="474" y="655" on="1"/>
        <pt x="474" y="566" on="1"/>
        <pt x="190" y="566" on="1"/>
        <pt x="190" y="386" on="1"/>
        <pt x="430" y="386" on="1"/>
        <pt x="430" y="297" on="1"/>
        <pt x="190" y="297" on="1"/>
        <pt x="190" y="88" on="1"/>
        <pt x="484" y="88" on="1"/>
        <pt x="484" y="0" on="1"/>
      </contour>
      <contour>
        <pt x="301" y="691" on="1"/>
        <pt x="138" y="807" on="1"/>
        <pt x="196" y="876" on="1"/>
        <pt x="347" y="744" on="1"/>
      </contour>
    </TTGlyph>
    <TTGlyph name="Eth" xMin="31" yMin="0" xMax="595" yMax="655">
      <contour>
        <pt x="31" y="314" on="1"/>
        <pt x="31" y="365" on="1"/>
        <pt x="111" y="369" on="1"/>
        <pt x="354" y="369" on="1"/>
        <pt x="354" y="314" on="1"/>
      </contour>
      <contour>
        <pt x="108" y="0" on="1"/>
        <pt x="108" y="655" on="1"/>
        <pt x="279" y="655" on="1"/>
        <pt x="431" y="655" on="0"/>
        <pt x="595" y="489" on="0"/>
        <pt x="595" y="171" on="0"/>
        <pt x="432" y="0" on="0"/>
        <pt x="285" y="0" on="1"/>
      </contour>
      <contour>
        <pt x="213" y="85" on="1"/>
        <pt x="272" y="85" on="1"/>
        <pt x="377" y="85" on="0"/>
        <pt x="487" y="209" on="0"/>
        <pt x="487" y="330" on="1"/>
        <pt x="487" y="570" on="0"/>
        <pt x="272" y="570" on="1"/>
        <pt x="213" y="570" on="1"/>
      </contour>
    </TTGlyph>
    <TTGlyph name="Euro" xMin="22" yMin="-12" xMax="500" yMax="649">
      <contour>
        <pt x="325" y="-12" on="1"/>
        <pt x="215" y="-12" on="0"/>
        <pt x="79" y="163" on="0"/>
        <pt x="79" y="471" on="0"/>
        <pt x="221" y="649" on="0"/>
        <pt x="338" y="649" on="1"/>
        <pt x="428" y="649" on="0"/>
        <pt x="491" y="571" on="1"/>
        <pt x="432" y="513" on="1"/>
        <pt x="386" y="567" on="0"/>
        <pt x="335" y="567" on="1"/>
        <pt x="263" y="567" on="0"/>
        <pt x="184" y="436" on="0"/>
        <pt x="184" y="320" on="1"/>
        <pt x="184" y="203" on="0"/>
        <pt x="262" y="70" on="0"/>
        <pt x="331" y="70" on="1"/>
        <pt x="393" y="70" on="0"/>
        <pt x="441" y="135" on="1"/>
        <pt x="500" y="81" on="1"/>
        <pt x="429" y="-12" on="0"/>
      </contour>
      <contour>
        <pt x="22" y="228" on="1"/>
        <pt x="22" y="280" on="1"/>
        <pt x="92" y="285" on="1"/>
        <pt x="392" y="285" on="1"/>
        <pt x="392" y="228" on="1"/>
      </contour>
      <contour>
        <pt x="22" y="347" on="1"/>
        <pt x="22" y="399" on="1"/>
        <pt x="93" y="404" on="1"/>
        <pt x="432" y="404" on="1"/>
        <pt x="432" y="347" on="1"/>
      </contour>
    </TTGlyph>
    <TTGlyph name="F" xMin="85" yMin="0" xMax="475" yMax="655">
      <contour>
        <pt x="85" y="0" on="1"/>
        <pt x="85" y="655" on="1"/>
        <pt x="475" y="655" on="1"/>
        <pt x="475" y="566" on="1"/>
        <pt x="190" y="566" on="1"/>
        <pt x="190" y="369" on="1"/>
        <pt x="432" y="369" on="1"/>
        <pt x="432" y="280" on="1"/>
        <pt x="190" y="280" on="1"/>
        <pt x="190" y="0" on="1"/>
      </contour>
    </TTGlyph>
    <TTGlyph name="G" xMin="50" yMin="-12" xMax="560" yMax="667">
      <contour>
        <pt x="354" y="-12" on="1"/>
        <pt x="219" y="-12" on="0"/>
        <pt x="50" y="168" on="0"/>
        <pt x="50" y="326" on="1"/>
        <pt x="50" y="482" on="0"/>
        <pt x="222" y="667" on="0"/>
        <pt x="356" y="667" on="1"/>
        <pt x="471" y="667" on="0"/>
        <pt x="551" y="585" on="1"/>
        <pt x="495" y="517" on="1"/>
        <pt x="437" y="575" on="0"/>
        <pt x="360" y="575" on="1"/>
        <pt x="268" y="575" on="0"/>
        <pt x="158" y="442" on="0"/>
        <pt x="158" y="329" on="1"/>
        <pt x="158" y="211" on="0"/>
        <pt x="265" y="79" on="0"/>
        <pt x="364" y="79" on="1"/>
        <pt x="430" y="79" on="0"/>
        <pt x="466" y="112" on="1"/>
        <pt x="466" y="263" on="1"/>
        <pt x="337" y="263" on="1"/>
        <pt x="337" y="349" on="1"/>
        <pt x="560" y="349" on="1"/>
        <pt x="560" y="65" on="1"/>
        <pt x="526" y="30" on="0"/>
        <pt x="418" y="-12" on="0"/>
      </contour>
    </TTGlyph>
    <TTGlyph name="H" xMin="85" yMin="0" xMax="574" yMax="655">
      <contour>
        <pt x="85" y="0" on="1"/>
        <pt x="85" y="655" on="1"/>
        <pt x="190" y="655" on="1"/>
        <pt x="190" y="388" on="1"/>
        <pt x="469" y="388" on="1"/>
        <pt x="469" y="655" on="1"/>
        <pt x="574" y="655" on="1"/>
        <pt x="574" y="0" on="1"/>
        <pt x="469" y="0" on="1"/>
        <pt x="469" y="296" on="1"/>
        <pt x="190" y="296" on="1"/>
        <pt x="190" y="0" on="1"/>
      </contour>
    </TTGlyph>
    <TTGlyph name="I" xMin="85" yMin="0" xMax="190" yMax="655">
      <contour>
        <pt x="85" y="0" on="1"/>
        <pt x="85" y="655" on="1"/>
        <pt x="190" y="655" on="1"/>
        <pt x="190" y="0" on="1"/>
      </contour>
    </TTGlyph>
    <TTGlyph name="Iacute" xMin="77" yMin="0" xMax="286" yMax="876">
      <contour>
        <pt x="85" y="0" on="1"/>
        <pt x="85" y="655" on="1"/>
        <pt x="190" y="655" on="1"/>
        <pt x="190" y="0" on="1"/>
      </contour>
      <contour>
        <pt x="123" y="691" on="1"/>
        <pt x="77" y="744" on="1"/>
        <pt x="228" y="876" on="1"/>
        <pt x="286" y="807" on="1"/>
      </contour>
    </TTGlyph>
    <TTGlyph name="Icircumflex" xMin="-17" yMin="0" xMax="293" yMax="837">
      <contour>
        <pt x="85" y="0" on="1"/>
        <pt x="85" y="655" on="1"/>
        <pt x="190" y="655" on="1"/>
        <pt x="190" y="0" on="1"/>
      </contour>
      <contour>
        <pt x="-17" y="725" on="1"/>
        <pt x="82" y="837" on="1"/>
        <pt x="194" y="837" on="1"/>
        <pt x="293" y="725" on="1"/>
        <pt x="248" y="694" on="1"/>
        <pt x="140" y="784" on="1"/>
        <pt x="136" y="784" on="1"/>
        <pt x="28" y="694" on="1"/>
      </contour>
    </TTGlyph>
    <TTGlyph name="Idieresis" xMin="-23" yMin="0" xMax="299" yMax="822">
      <contour>
        <pt x="85" y="0" on="1"/>
        <pt x="85" y="655" on="1"/>
        <pt x="190" y="655" on="1"/>
        <pt x="190" y="0" on="1"/>
      </contour>
      <contour>
        <pt x="33" y="710" on="1"/>
        <pt x="8" y="710" on="0"/>
        <pt x="-23" y="742" on="0"/>
        <pt x="-23" y="766" on="1"/>
        <pt x="-23" y="791" on="0"/>
        <pt x="8" y="822" on="0"/>
        <pt x="33" y="822" on="1"/>
        <pt x="57" y="822" on="0"/>
        <pt x="89" y="791" on="0"/>
        <pt x="89" y="766" on="1"/>
        <pt x="89" y="742" on="0"/>
        <pt x="57" y="710" on="0"/>
      </contour>
      <contour>
        <pt x="243" y="710" on="1"/>
        <pt x="219" y="710" on="0"/>
        <pt x="187" y="742" on="0"/>
        <pt x="187" y="766" on="1"/>
        <pt x="187" y="791" on="0"/>
        <pt x="219" y="822" on="0"/>
        <pt x="243" y="822" on="1"/>
        <pt x="268" y="822" on="0"/>
        <pt x="299" y="791" on="0"/>
        <pt x="299" y="766" on="1"/>
        <pt x="299" y="742" on="0"/>
        <pt x="268" y="710" on="0"/>
      </contour>
    </TTGlyph>
    <TTGlyph name="Igrave" xMin="-10" yMin="0" xMax="199" yMax="876">
      <contour>
        <pt x="85" y="0" on="1"/>
        <pt x="85" y="655" on="1"/>
        <pt x="190" y="655" on="1"/>
        <pt x="190" y="0" on="1"/>
      </contour>
      <contour>
        <pt x="153" y="691" on="1"/>
        <pt x="-10" y="807" on="1"/>
        <pt x="48" y="876" on="1"/>
        <pt x="199" y="744" on="1"/>
      </contour>
    </TTGlyph>
    <TTGlyph name="J" xMin="26" yMin="-12" xMax="407" yMax="655">
      <contour>
        <pt x="217" y="-12" on="1"/>
        <pt x="88" y="-12" on="0"/>
        <pt x="26" y="97" on="1"/>
        <pt x="99" y="150" on="1"/>
        <pt x="139" y="79" on="0"/>
        <pt x="205" y="79" on="1"/>
        <pt x="254" y="79" on="0"/>
        <pt x="302" y="140" on="0"/>
        <pt x="302" y="210" on="1"/>
        <pt x="302" y="655" on="1"/>
        <pt x="407" y="655" on="1"/>
        <pt x="407" y="201" on="1"/>
        <pt x="407" y="107" on="0"/>
        <pt x="312" y="-12" on="0"/>
      </contour>
    </TTGlyph>
    <TTGlyph name="K" xMin="85" yMin="0" xMax="590" yMax="655">
      <contour>
        <pt x="85" y="0" on="1"/>
        <pt x="85" y="655" on="1"/>
        <pt x="190" y="655" on="1"/>
        <pt x="190" y="347" on="1"/>
        <pt x="193" y="347" on="1"/>
        <pt x="440" y="655" on="1"/>
        <pt x="557" y="655" on="1"/>
        <pt x="354" y="401" on="1"/>
        <pt x="590" y="0" on="1"/>
        <pt x="474" y="0" on="1"/>
        <pt x="291" y="319" on="1"/>
        <pt x="190" y="197" on="1"/>
        <pt x="190" y="0" on="1"/>
      </contour>
    </TTGlyph>
    <TTGlyph name="L" xMin="85" yMin="0" xMax="467" yMax="655">
      <contour>
        <pt x="85" y="0" on="1"/>
        <pt x="85" y="655" on="1"/>
        <pt x="190" y="655" on="1"/>
        <pt x="190" y="88" on="1"/>
        <pt x="467" y="88" on="1"/>
        <pt x="467" y="0" on="1"/>
      </contour>
    </TTGlyph>
    <TTGlyph name="M" xMin="85" yMin="0" xMax="653" yMax="655">
      <contour>
        <pt x="85" y="0" on="1"/>
        <pt x="85" y="655" on="1"/>
        <pt x="206" y="655" on="1"/>
        <pt x="325" y="324" on="1"/>
        <pt x="334" y="300" on="0"/>
        <pt x="364" y="208" on="0"/>
        <pt x="369" y="193" on="1"/>
        <pt x="373" y="193" on="1"/>
        <pt x="381" y="217" on="0"/>
        <pt x="409" y="305" on="0"/>
        <pt x="415" y="324" on="1"/>
        <pt x="532" y="655" on="1"/>
        <pt x="653" y="655" on="1"/>
        <pt x="653" y="0" on="1"/>
        <pt x="557" y="0" on="1"/>
        <pt x="557" y="321" on="1"/>
        <pt x="557" y="368" on="0"/>
        <pt x="570" y="524" on="1"/>
        <pt x="566" y="524" on="1"/>
        <pt x="513" y="373" on="1"/>
        <pt x="400" y="63" on="1"/>
        <pt x="336" y="63" on="1"/>
        <pt x="223" y="373" on="1"/>
        <pt x="171" y="524" on="1"/>
        <pt x="167" y="524" on="1"/>
        <pt x="180" y="368" on="0"/>
        <pt x="180" y="321" on="1"/>
        <pt x="180" y="0" on="1"/>
      </contour>
    </TTGlyph>
    <TTGlyph name="N" xMin="85" yMin="0" xMax="567" yMax="655">
      <contour>
        <pt x="85" y="0" on="1"/>
        <pt x="85" y="655" on="1"/>
        <pt x="193" y="655" on="1"/>
        <pt x="408" y="272" on="1"/>
        <pt x="477" y="133" on="1"/>
        <pt x="481" y="133" on="1"/>
        <pt x="468" y="307" on="0"/>
        <pt x="468" y="352" on="1"/>
        <pt x="468" y="655" on="1"/>
        <pt x="567" y="655" on="1"/>
        <pt x="567" y="0" on="1"/>
        <pt x="460" y="0" on="1"/>
        <pt x="244" y="384" on="1"/>
        <pt x="176" y="521" on="1"/>
        <pt x="172" y="521" on="1"/>
        <pt x="185" y="344" on="0"/>
        <pt x="185" y="306" on="1"/>
        <pt x="185" y="0" on="1"/>
      </contour>
    </TTGlyph>
    <TTGlyph name="Ntilde" xMin="85" yMin="0" xMax="567" yMax="844">
      <contour>
        <pt x="85" y="0" on="1"/>
        <pt x="85" y="655" on="1"/>
        <pt x="193" y="655" on="1"/>
        <pt x="408" y="272" on="1"/>
        <pt x="477" y="133" on="1"/>
        <pt x="481" y="133" on="1"/>
        <pt x="468" y="307" on="0"/>
        <pt x="468" y="352" on="1"/>
        <pt x="468" y="655" on="1"/>
        <pt x="567" y="655" on="1"/>
        <pt x="567" y="0" on="1"/>
        <pt x="460" y="0" on="1"/>
        <pt x="244" y="384" on="1"/>
        <pt x="176" y="521" on="1"/>
        <pt x="172" y="521" on="1"/>
        <pt x="185" y="344" on="0"/>
        <pt x="185" y="306" on="1"/>
        <pt x="185" y="0" on="1"/>
      </contour>
      <contour>
        <pt x="403" y="703" on="1"/>
        <pt x="378" y="703" on="0"/>
        <pt x="333" y="724" on="0"/>
        <pt x="305" y="749" on="0"/>
        <pt x="272" y="770" on="0"/>
        <pt x="258" y="770" on="1"/>
        <pt x="220" y="770" on="0"/>
        <pt x="214" y="709" on="1"/>
        <pt x="145" y="715" on="1"/>
        <pt x="148" y="777" on="0"/>
        <pt x="207" y="844" on="0"/>
        <pt x="255" y="844" on="1"/>
        <pt x="287" y="844" on="0"/>
        <pt x="341" y="811" on="0"/>
        <pt x="383" y="778" on="0"/>
        <pt x="400" y="778" on="1"/>
        <pt x="436" y="778" on="0"/>
        <pt x="444" y="838" on="1"/>
        <pt x="513" y="833" on="1"/>
        <pt x="510" y="771" on="0"/>
        <pt x="451" y="703" on="0"/>
      </contour>
    </TTGlyph>
    <TTGlyph name="O" xMin="50" yMin="-12" xMax="621" yMax="667">
      <contour>
        <pt x="335" y="-12" on="1"/>
        <pt x="208" y="-12" on="0"/>
        <pt x="50" y="173" on="0"/>
        <pt x="50" y="330" on="1"/>
        <pt x="50" y="486" on="0"/>
        <pt x="207" y="667" on="0"/>
        <pt x="335" y="667" on="1"/>
        <pt x="464" y="667" on="0"/>
        <pt x="621" y="486" on="0"/>
        <pt x="621" y="330" on="1"/>
        <pt x="621" y="173" on="0"/>
        <pt x="463" y="-12" on="0"/>
      </contour>
      <contour>
        <pt x="335" y="79" on="1"/>
        <pt x="416" y="79" on="0"/>
        <pt x="513" y="215" on="0"/>
        <pt x="513" y="330" on="1"/>
        <pt x="513" y="443" on="0"/>
        <pt x="416" y="575" on="0"/>
        <pt x="254" y="575" on="0"/>
        <pt x="158" y="443" on="0"/>
        <pt x="158" y="330" on="1"/>
        <pt x="158" y="215" on="0"/>
        <pt x="255" y="79" on="0"/>
      </contour>
    </TTGlyph>
    <TTGlyph name="OE" xMin="50" yMin="0" xMax="805" yMax="655">
      <contour>
        <pt x="370" y="0" on="1"/>
        <pt x="222" y="0" on="0"/>
        <pt x="50" y="172" on="0"/>
        <pt x="50" y="488" on="0"/>
        <pt x="223" y="655" on="0"/>
        <pt x="375" y="655" on="1"/>
        <pt x="795" y="655" on="1"/>
        <pt x="795" y="566" on="1"/>
        <pt x="527" y="566" on="1"/>
        <pt x="527" y="386" on="1"/>
        <pt x="751" y="386" on="1"/>
        <pt x="751" y="297" on="1"/>
        <pt x="527" y="297" on="1"/>
        <pt x="527" y="88" on="1"/>
        <pt x="805" y="88" on="1"/>
        <pt x="805" y="0" on="1"/>
      </contour>
      <contour>
        <pt x="382" y="85" on="1"/>
        <pt x="422" y="85" on="1"/>
        <pt x="422" y="570" on="1"/>
        <pt x="382" y="570" on="1"/>
        <pt x="158" y="570" on="0"/>
        <pt x="158" y="330" on="1"/>
        <pt x="158" y="208" on="0"/>
        <pt x="273" y="85" on="0"/>
      </contour>
    </TTGlyph>
    <TTGlyph name="Oacute" xMin="50" yMin="-12" xMax="621" yMax="876">
      <contour>
        <pt x="335" y="-12" on="1"/>
        <pt x="208" y="-12" on="0"/>
        <pt x="50" y="173" on="0"/>
        <pt x="50" y="330" on="1"/>
        <pt x="50" y="486" on="0"/>
        <pt x="207" y="667" on="0"/>
        <pt x="335" y="667" on="1"/>
        <pt x="464" y="667" on="0"/>
        <pt x="621" y="486" on="0"/>
        <pt x="621" y="330" on="1"/>
        <pt x="621" y="173" on="0"/>
        <pt x="463" y="-12" on="0"/>
      </contour>
      <contour>
        <pt x="335" y="79" on="1"/>
        <pt x="416" y="79" on="0"/>
        <pt x="513" y="215" on="0"/>
        <pt x="513" y="330" on="1"/>
        <pt x="513" y="443" on="0"/>
        <pt x="416" y="575" on="0"/>
        <pt x="254" y="575" on="0"/>
        <pt x="158" y="443" on="0"/>
        <pt x="158" y="330" on="1"/>
        <pt x="158" y="215" on="0"/>
        <pt x="255" y="79" on="0"/>
      </contour>
      <contour>
        <pt x="320" y="691" on="1"/>
        <pt x="274" y="744" on="1"/>
        <pt x="425" y="876" on="1"/>
        <pt x="483" y="807" on="1"/>
      </contour>
    </TTGlyph>
    <TTGlyph name="Ocircumflex" xMin="50" yMin="-12" xMax="621" yMax="837">
      <contour>
        <pt x="335" y="-12" on="1"/>
        <pt x="208" y="-12" on="0"/>
        <pt x="50" y="173" on="0"/>
        <pt x="50" y="330" on="1"/>
        <pt x="50" y="486" on="0"/>
        <pt x="207" y="667" on="0"/>
        <pt x="335" y="667" on="1"/>
        <pt x="464" y="667" on="0"/>
        <pt x="621" y="486" on="0"/>
        <pt x="621" y="330" on="1"/>
        <pt x="621" y="173" on="0"/>
        <pt x="463" y="-12" on="0"/>
      </contour>
      <contour>
        <pt x="335" y="79" on="1"/>
        <pt x="416" y="79" on="0"/>
        <pt x="513" y="215" on="0"/>
        <pt x="513" y="330" on="1"/>
        <pt x="513" y="443" on="0"/>
        <pt x="416" y="575" on="0"/>
        <pt x="254" y="575" on="0"/>
        <pt x="158" y="443" on="0"/>
        <pt x="158" y="330" on="1"/>
        <pt x="158" y="215" on="0"/>
        <pt x="255" y="79" on="0"/>
      </contour>
      <contour>
        <pt x="180" y="725" on="1"/>
        <pt x="279" y="837" on="1"/>
        <pt x="391" y="837" on="1"/>
        <pt x="490" y="725" on="1"/>
        <pt x="445" y="694" on="1"/>
        <pt x="337" y="784" on="1"/>
        <pt x="333" y="784" on="1"/>
        <pt x="225" y="694" on="1"/>
      </contour>
    </TTGlyph>
    <TTGlyph name="Odieresis" xMin="50" yMin="-12" xMax="621" yMax="822">
      <contour>
        <pt x="335" y="-12" on="1"/>
        <pt x="208" y="-12" on="0"/>
        <pt x="50" y="173" on="0"/>
        <pt x="50" y="330" on="1"/>
        <pt x="50" y="486" on="0"/>
        <pt x="207" y="667" on="0"/>
        <pt x="335" y="667" on="1"/>
        <pt x="464" y="667" on="0"/>
        <pt x="621" y="486" on="0"/>
        <pt x="621" y="330" on="1"/>
        <pt x="621" y="173" on="0"/>
        <pt x="463" y="-12" on="0"/>
      </contour>
      <contour>
        <pt x="335" y="79" on="1"/>
        <pt x="416" y="79" on="0"/>
        <pt x="513" y="215" on="0"/>
        <pt x="513" y="330" on="1"/>
        <pt x="513" y="443" on="0"/>
        <pt x="416" y="575" on="0"/>
        <pt x="254" y="575" on="0"/>
        <pt x="158" y="443" on="0"/>
        <pt x="158" y="330" on="1"/>
        <pt x="158" y="215" on="0"/>
        <pt x="255" y="79" on="0"/>
      </contour>
      <contour>
        <pt x="230" y="710" on="1"/>
        <pt x="205" y="710" on="0"/>
        <pt x="174" y="742" on="0"/>
        <pt x="174" y="766" on="1"/>
        <pt x="174" y="791" on="0"/>
        <pt x="205" y="822" on="0"/>
        <pt x="230" y="822" on="1"/>
        <pt x="254" y="822" on="0"/>
        <pt x="286" y="791" on="0"/>
        <pt x="286" y="766" on="1"/>
        <pt x="286" y="742" on="0"/>
        <pt x="254" y="710" on="0"/>
      </contour>
      <contour>
        <pt x="440" y="710" on="1"/>
        <pt x="416" y="710" on="0"/>
        <pt x="384" y="742" on="0"/>
        <pt x="384" y="766" on="1"/>
        <pt x="384" y="791" on="0"/>
        <pt x="416" y="822" on="0"/>
        <pt x="440" y="822" on="1"/>
        <pt x="465" y="822" on="0"/>
        <pt x="496" y="791" on="0"/>
        <pt x="496" y="766" on="1"/>
        <pt x="496" y="742" on="0"/>
        <pt x="465" y="710" on="0"/>
      </contour>
    </TTGlyph>
    <TTGlyph name="Ograve" xMin="50" yMin="-12" xMax="621" yMax="876">
      <contour>
        <pt x="335" y="-12" on="1"/>
        <pt x="208" y="-12" on="0"/>
        <pt x="50" y="173" on="0"/>
        <pt x="50" y="330" on="1"/>
        <pt x="50" y="486" on="0"/>
        <pt x="207" y="667" on="0"/>
        <pt x="335" y="667" on="1"/>
        <pt x="464" y="667" on="0"/>
        <pt x="621" y="486" on="0"/>
        <pt x="621" y="330" on="1"/>
        <pt x="621" y="173" on="0"/>
        <pt x="463" y="-12" on="0"/>
      </contour>
      <contour>
        <pt x="335" y="79" on="1"/>
        <pt x="416" y="79" on="0"/>
        <pt x="513" y="215" on="0"/>
        <pt x="513" y="330" on="1"/>
        <pt x="513" y="443" on="0"/>
        <pt x="416" y="575" on="0"/>
        <pt x="254" y="575" on="0"/>
        <pt x="158" y="443" on="0"/>
        <pt x="158" y="330" on="1"/>
        <pt x="158" y="215" on="0"/>
        <pt x="255" y="79" on="0"/>
      </contour>
      <contour>
        <pt x="350" y="691" on="1"/>
        <pt x="187" y="807" on="1"/>
        <pt x="245" y="876" on="1"/>
        <pt x="396" y="744" on="1"/>
      </contour>
    </TTGlyph>
    <TTGlyph name="Oslash" xMin="47" yMin="-34" xMax="633" yMax="688">
      <contour>
        <pt x="103" y="-34" on="1"/>
        <pt x="47" y="10" on="1"/>
        <pt x="576" y="688" on="1"/>
        <pt x="633" y="645" on="1"/>
      </contour>
      <contour>
        <pt x="337" y="-12" on="1"/>
        <pt x="210" y="-12" on="0"/>
        <pt x="52" y="173" on="0"/>
        <pt x="52" y="330" on="1"/>
        <pt x="52" y="486" on="0"/>
        <pt x="209" y="667" on="0"/>
        <pt x="337" y="667" on="1"/>
        <pt x="466" y="667" on="0"/>
        <pt x="623" y="486" on="0"/>
        <pt x="623" y="330" on="1"/>
        <pt x="623" y="173" on="0"/>
        <pt x="465" y="-12" on="0"/>
      </contour>
      <contour>
        <pt x="337" y="79" on="1"/>
        <pt x="418" y="79" on="0"/>
        <pt x="515" y="215" on="0"/>
        <pt x="515" y="330" on="1"/>
        <pt x="515" y="443" on="0"/>
        <pt x="418" y="575" on="0"/>
        <pt x="256" y="575" on="0"/>
        <pt x="160" y="443" on="0"/>
        <pt x="160" y="330" on="1"/>
        <pt x="160" y="215" on="0"/>
        <pt x="257" y="79" on="0"/>
      </contour>
    </TTGlyph>
    <TTGlyph name="Otilde" xMin="50" yMin="-12" xMax="621" yMax="844">
      <contour>
        <pt x="335" y="-12" on="1"/>
        <pt x="208" y="-12" on="0"/>
        <pt x="50" y="173" on="0"/>
        <pt x="50" y="330" on="1"/>
        <pt x="50" y="486" on="0"/>
        <pt x="207" y="667" on="0"/>
        <pt x="335" y="667" on="1"/>
        <pt x="464" y="667" on="0"/>
        <pt x="621" y="486" on="0"/>
        <pt x="621" y="330" on="1"/>
        <pt x="621" y="173" on="0"/>
        <pt x="463" y="-12" on="0"/>
      </contour>
      <contour>
        <pt x="335" y="79" on="1"/>
        <pt x="416" y="79" on="0"/>
        <pt x="513" y="215" on="0"/>
        <pt x="513" y="330" on="1"/>
        <pt x="513" y="443" on="0"/>
        <pt x="416" y="575" on="0"/>
        <pt x="254" y="575" on="0"/>
        <pt x="158" y="443" on="0"/>
        <pt x="158" y="330" on="1"/>
        <pt x="158" y="215" on="0"/>
        <pt x="255" y="79" on="0"/>
      </contour>
      <contour>
        <pt x="409" y="703" on="1"/>
        <pt x="384" y="703" on="0"/>
        <pt x="339" y="724" on="0"/>
        <pt x="311" y="749" on="0"/>
        <pt x="278" y="770" on="0"/>
        <pt x="264" y="770" on="1"/>
        <pt x="226" y="770" on="0"/>
        <pt x="220" y="709" on="1"/>
        <pt x="151" y="715" on="1"/>
        <pt x="154" y="777" on="0"/>
        <pt x="213" y="844" on="0"/>
        <pt x="261" y="844" on="1"/>
        <pt x="293" y="844" on="0"/>
        <pt x="347" y="811" on="0"/>
        <pt x="389" y="778" on="0"/>
        <pt x="406" y="778" on="1"/>
        <pt x="442" y="778" on="0"/>
        <pt x="450" y="838" on="1"/>
        <pt x="519" y="833" on="1"/>
        <pt x="516" y="771" on="0"/>
        <pt x="457" y="703" on="0"/>
      </contour>
    </TTGlyph>
    <TTGlyph name="P" xMin="85" yMin="0" xMax="536" yMax="655">
      <contour>
        <pt x="85" y="0" on="1"/>
        <pt x="85" y="655" on="1"/>
        <pt x="285" y="655" on="1"/>
        <pt x="536" y="655" on="0"/>
        <pt x="536" y="456" on="1"/>
        <pt x="536" y="353" on="0"/>
        <pt x="401" y="247" on="0"/>
        <pt x="289" y="247" on="1"/>
        <pt x="190" y="247" on="1"/>
        <pt x="190" y="0" on="1"/>
      </contour>
      <contour>
        <pt x="190" y="331" on="1"/>
        <pt x="279" y="331" on="1"/>
        <pt x="432" y="331" on="0"/>
        <pt x="432" y="456" on="1"/>
        <pt x="432" y="519" on="0"/>
        <pt x="356" y="571" on="0"/>
        <pt x="275" y="571" on="1"/>
        <pt x="190" y="571" on="1"/>
      </contour>
    </TTGlyph>
    <TTGlyph name="Q" xMin="50" yMin="-171" xMax="642" yMax="667">
      <contour>
        <pt x="335" y="-12" on="1"/>
        <pt x="208" y="-12" on="0"/>
        <pt x="50" y="173" on="0"/>
        <pt x="50" y="330" on="1"/>
        <pt x="50" y="486" on="0"/>
        <pt x="207" y="667" on="0"/>
        <pt x="335" y="667" on="1"/>
        <pt x="464" y="667" on="0"/>
        <pt x="621" y="486" on="0"/>
        <pt x="621" y="330" on="1"/>
        <pt x="621" y="173" on="0"/>
        <pt x="463" y="-12" on="0"/>
      </contour>
      <contour>
        <pt x="254" y="74" on="0"/>
        <pt x="416" y="74" on="0"/>
        <pt x="513" y="212" on="0"/>
        <pt x="513" y="330" on="1"/>
        <pt x="513" y="443" on="0"/>
        <pt x="416" y="575" on="0"/>
        <pt x="254" y="575" on="0"/>
        <pt x="158" y="443" on="0"/>
        <pt x="158" y="330" on="1"/>
        <pt x="158" y="212" on="0"/>
      </contour>
      <contour>
        <pt x="541" y="-171" on="1"/>
        <pt x="446" y="-171" on="0"/>
        <pt x="312" y="-75" on="0"/>
        <pt x="281" y="3" on="1"/>
        <pt x="389" y="12" on="1"/>
        <pt x="408" y="-36" on="0"/>
        <pt x="496" y="-85" on="0"/>
        <pt x="552" y="-85" on="1"/>
        <pt x="585" y="-85" on="0"/>
        <pt x="623" y="-75" on="1"/>
        <pt x="642" y="-153" on="1"/>
        <pt x="604" y="-171" on="0"/>
      </contour>
    </TTGlyph>
    <TTGlyph name="R" xMin="85" yMin="0" xMax="561" yMax="655">
      <contour>
        <pt x="85" y="0" on="1"/>
        <pt x="85" y="655" on="1"/>
        <pt x="301" y="655" on="1"/>
        <pt x="538" y="655" on="0"/>
        <pt x="538" y="464" on="1"/>
        <pt x="538" y="365" on="0"/>
        <pt x="407" y="263" on="0"/>
        <pt x="301" y="263" on="1"/>
        <pt x="190" y="263" on="1"/>
        <pt x="190" y="0" on="1"/>
      </contour>
      <contour>
        <pt x="190" y="347" on="1"/>
        <pt x="289" y="347" on="1"/>
        <pt x="434" y="347" on="0"/>
        <pt x="434" y="464" on="1"/>
        <pt x="434" y="521" on="0"/>
        <pt x="362" y="571" on="0"/>
        <pt x="289" y="571" on="1"/>
        <pt x="190" y="571" on="1"/>
      </contour>
      <contour>
        <pt x="443" y="0" on="1"/>
        <pt x="281" y="291" on="1"/>
        <pt x="358" y="352" on="1"/>
        <pt x="561" y="0" on="1"/>
      </contour>
    </TTGlyph>
    <TTGlyph name="S" xMin="40" yMin="-12" xMax="504" yMax="667">
      <contour>
        <pt x="273" y="-12" on="1"/>
        <pt x="136" y="-12" on="0"/>
        <pt x="40" y="84" on="1"/>
        <pt x="101" y="156" on="1"/>
        <pt x="180" y="79" on="0"/>
        <pt x="275" y="79" on="1"/>
        <pt x="333" y="79" on="0"/>
        <pt x="397" y="129" on="0"/>
        <pt x="397" y="171" on="1"/>
        <pt x="397" y="192" on="0"/>
        <pt x="384" y="223" on="0"/>
        <pt x="349" y="248" on="0"/>
        <pt x="323" y="261" on="0"/>
        <pt x="293" y="274" on="1"/>
        <pt x="202" y="314" on="1"/>
        <pt x="69" y="371" on="0"/>
        <pt x="69" y="486" on="1"/>
        <pt x="69" y="564" on="0"/>
        <pt x="192" y="667" on="0"/>
        <pt x="285" y="667" on="1"/>
        <pt x="341" y="667" on="0"/>
        <pt x="446" y="622" on="0"/>
        <pt x="483" y="584" on="1"/>
        <pt x="429" y="517" on="1"/>
        <pt x="365" y="575" on="0"/>
        <pt x="285" y="575" on="1"/>
        <pt x="235" y="575" on="0"/>
        <pt x="175" y="531" on="0"/>
        <pt x="175" y="492" on="1"/>
        <pt x="175" y="472" on="0"/>
        <pt x="191" y="442" on="0"/>
        <pt x="228" y="418" on="0"/>
        <pt x="253" y="405" on="0"/>
        <pt x="281" y="394" on="1"/>
        <pt x="371" y="356" on="1"/>
        <pt x="435" y="329" on="0"/>
        <pt x="504" y="247" on="0"/>
        <pt x="504" y="180" on="1"/>
        <pt x="504" y="98" on="0"/>
        <pt x="378" y="-12" on="0"/>
      </contour>
    </TTGlyph>
    <TTGlyph name="T" xMin="27" yMin="0" xMax="516" yMax="655">
      <contour>
        <pt x="219" y="0" on="1"/>
        <pt x="219" y="566" on="1"/>
        <pt x="27" y="566" on="1"/>
        <pt x="27" y="655" on="1"/>
        <pt x="516" y="655" on="1"/>
        <pt x="516" y="566" on="1"/>
        <pt x="324" y="566" on="1"/>
        <pt x="324" y="0" on="1"/>
      </contour>
    </TTGlyph>
    <TTGlyph name="Thorn" xMin="85" yMin="0" xMax="546" yMax="655">
      <contour>
        <pt x="85" y="0" on="1"/>
        <pt x="85" y="655" on="1"/>
        <pt x="190" y="655" on="1"/>
        <pt x="190" y="548" on="1"/>
        <pt x="299" y="548" on="1"/>
        <pt x="546" y="548" on="0"/>
        <pt x="546" y="350" on="1"/>
        <pt x="546" y="246" on="0"/>
        <pt x="411" y="141" on="0"/>
        <pt x="299" y="141" on="1"/>
        <pt x="190" y="141" on="1"/>
        <pt x="190" y="0" on="1"/>
      </contour>
      <contour>
        <pt x="190" y="225" on="1"/>
        <pt x="289" y="225" on="1"/>
        <pt x="442" y="225" on="0"/>
        <pt x="442" y="350" on="1"/>
        <pt x="442" y="412" on="0"/>
        <pt x="368" y="464" on="0"/>
        <pt x="289" y="464" on="1"/>
        <pt x="190" y="464" on="1"/>
      </contour>
    </TTGlyph>
    <TTGlyph name="U" xMin="82" yMin="-12" xMax="569" yMax="655">
      <contour>
        <pt x="326" y="-12" on="1"/>
        <pt x="82" y="-12" on="0"/>
        <pt x="82" y="281" on="1"/>
        <pt x="82" y="655" on="1"/>
        <pt x="187" y="655" on="1"/>
        <pt x="187" y="275" on="1"/>
        <pt x="187" y="79" on="0"/>
        <pt x="326" y="79" on="1"/>
        <pt x="469" y="79" on="0"/>
        <pt x="469" y="275" on="1"/>
        <pt x="469" y="655" on="1"/>
        <pt x="569" y="655" on="1"/>
        <pt x="569" y="281" on="1"/>
        <pt x="569" y="-12" on="0"/>
      </contour>
    </TTGlyph>
    <TTGlyph name="Uacute" xMin="82" yMin="-12" xMax="569" yMax="876">
      <contour>
        <pt x="326" y="-12" on="1"/>
        <pt x="82" y="-12" on="0"/>
        <pt x="82" y="281" on="1"/>
        <pt x="82" y="655" on="1"/>
        <pt x="187" y="655" on="1"/>
        <pt x="187" y="275" on="1"/>
        <pt x="187" y="79" on="0"/>
        <pt x="326" y="79" on="1"/>
        <pt x="469" y="79" on="0"/>
        <pt x="469" y="275" on="1"/>
        <pt x="469" y="655" on="1"/>
        <pt x="569" y="655" on="1"/>
        <pt x="569" y="281" on="1"/>
        <pt x="569" y="-12" on="0"/>
      </contour>
      <contour>
        <pt x="311" y="691" on="1"/>
        <pt x="265" y="744" on="1"/>
        <pt x="416" y="876" on="1"/>
        <pt x="474" y="807" on="1"/>
      </contour>
    </TTGlyph>
    <TTGlyph name="Ucircumflex" xMin="82" yMin="-12" xMax="569" yMax="837">
      <contour>
        <pt x="326" y="-12" on="1"/>
        <pt x="82" y="-12" on="0"/>
        <pt x="82" y="281" on="1"/>
        <pt x="82" y="655" on="1"/>
        <pt x="187" y="655" on="1"/>
        <pt x="187" y="275" on="1"/>
        <pt x="187" y="79" on="0"/>
        <pt x="326" y="79" on="1"/>
        <pt x="469" y="79" on="0"/>
        <pt x="469" y="275" on="1"/>
        <pt x="469" y="655" on="1"/>
        <pt x="569" y="655" on="1"/>
        <pt x="569" y="281" on="1"/>
        <pt x="569" y="-12" on="0"/>
      </contour>
      <contour>
        <pt x="171" y="725" on="1"/>
        <pt x="270" y="837" on="1"/>
        <pt x="382" y="837" on="1"/>
        <pt x="481" y="725" on="1"/>
        <pt x="436" y="694" on="1"/>
        <pt x="328" y="784" on="1"/>
        <pt x="324" y="784" on="1"/>
        <pt x="216" y="694" on="1"/>
      </contour>
    </TTGlyph>
    <TTGlyph name="Udieresis" xMin="82" yMin="-12" xMax="569" yMax="822">
      <contour>
        <pt x="326" y="-12" on="1"/>
        <pt x="82" y="-12" on="0"/>
        <pt x="82" y="281" on="1"/>
        <pt x="82" y="655" on="1"/>
        <pt x="187" y="655" on="1"/>
        <pt x="187" y="275" on="1"/>
        <pt x="187" y="79" on="0"/>
        <pt x="326" y="79" on="1"/>
        <pt x="469" y="79" on="0"/>
        <pt x="469" y="275" on="1"/>
        <pt x="469" y="655" on="1"/>
        <pt x="569" y="655" on="1"/>
        <pt x="569" y="281" on="1"/>
        <pt x="569" y="-12" on="0"/>
      </contour>
      <contour>
        <pt x="221" y="710" on="1"/>
        <pt x="196" y="710" on="0"/>
        <pt x="165" y="742" on="0"/>
        <pt x="165" y="766" on="1"/>
        <pt x="165" y="791" on="0"/>
        <pt x="196" y="822" on="0"/>
        <pt x="221" y="822" on="1"/>
        <pt x="245" y="822" on="0"/>
        <pt x="277" y="791" on="0"/>
        <pt x="277" y="766" on="1"/>
        <pt x="277" y="742" on="0"/>
        <pt x="245" y="710" on="0"/>
      </contour>
      <contour>
        <pt x="431" y="710" on="1"/>
        <pt x="407" y="710" on="0"/>
        <pt x="375" y="742" on="0"/>
        <pt x="375" y="766" on="1"/>
        <pt x="375" y="791" on="0"/>
        <pt x="407" y="822" on="0"/>
        <pt x="431" y="822" on="1"/>
        <pt x="456" y="822" on="0"/>
        <pt x="487" y="791" on="0"/>
        <pt x="487" y="766" on="1"/>
        <pt x="487" y="742" on="0"/>
        <pt x="456" y="710" on="0"/>
      </contour>
    </TTGlyph>
    <TTGlyph name="Ugrave" xMin="82" yMin="-12" xMax="569" yMax="876">
      <contour>
        <pt x="326" y="-12" on="1"/>
        <pt x="82" y="-12" on="0"/>
        <pt x="82" y="281" on="1"/>
        <pt x="82" y="655" on="1"/>
        <pt x="187" y="655" on="1"/>
        <pt x="187" y="275" on="1"/>
        <pt x="187" y="79" on="0"/>
        <pt x="326" y="79" on="1"/>
        <pt x="469" y="79" on="0"/>
        <pt x="469" y="275" on="1"/>
        <pt x="469" y="655" on="1"/>
        <pt x="569" y="655" on="1"/>
        <pt x="569" y="281" on="1"/>
        <pt x="569" y="-12" on="0"/>
      </contour>
      <contour>
        <pt x="341" y="691" on="1"/>
        <pt x="178" y="807" on="1"/>
        <pt x="236" y="876" on="1"/>
        <pt x="387" y="744" on="1"/>
      </contour>
    </TTGlyph>
    <TTGlyph name="V" xMin="-2" yMin="0" xMax="531" yMax="655">
      <contour>
        <pt x="203" y="0" on="1"/>
        <pt x="-2" y="655" on="1"/>
        <pt x="109" y="655" on="1"/>
        <pt x="205" y="317" on="1"/>
        <pt x="214" y="285" on="0"/>
        <pt x="252" y="144" on="0"/>
        <pt x="265" y="103" on="1"/>
        <pt x="269" y="103" on="1"/>
        <pt x="282" y="147" on="0"/>
        <pt x="323" y="298" on="0"/>
        <pt x="328" y="317" on="1"/>
        <pt x="424" y="655" on="1"/>
        <pt x="531" y="655" on="1"/>
        <pt x="327" y="0" on="1"/>
      </contour>
    </TTGlyph>
    <TTGlyph name="W" xMin="20" yMin="0" xMax="775" yMax="655">
      <contour>
        <pt x="153" y="0" on="1"/>
        <pt x="20" y="655" on="1"/>
        <pt x="127" y="655" on="1"/>
        <pt x="188" y="315" on="1"/>
        <pt x="212" y="175" on="0"/>
        <pt x="223" y="105" on="1"/>
        <pt x="227" y="105" on="1"/>
        <pt x="246" y="200" on="0"/>
        <pt x="271" y="315" on="1"/>
        <pt x="355" y="655" on="1"/>
        <pt x="447" y="655" on="1"/>
        <pt x="531" y="315" on="1"/>
        <pt x="546" y="247" on="0"/>
        <pt x="576" y="105" on="1"/>
        <pt x="580" y="105" on="1"/>
        <pt x="596" y="212" on="0"/>
        <pt x="613" y="315" on="1"/>
        <pt x="674" y="655" on="1"/>
        <pt x="775" y="655" on="1"/>
        <pt x="646" y="0" on="1"/>
        <pt x="517" y="0" on="1"/>
        <pt x="429" y="362" on="1"/>
        <pt x="410" y="452" on="0"/>
        <pt x="400" y="512" on="1"/>
        <pt x="396" y="512" on="1"/>
        <pt x="379" y="426" on="0"/>
        <pt x="365" y="362" on="1"/>
        <pt x="279" y="0" on="1"/>
      </contour>
    </TTGlyph>
    <TTGlyph name="X" xMin="14" yMin="0" xMax="518" yMax="655">
      <contour>
        <pt x="14" y="0" on="1"/>
        <pt x="201" y="338" on="1"/>
        <pt x="26" y="655" on="1"/>
        <pt x="142" y="655" on="1"/>
        <pt x="220" y="502" on="1"/>
        <pt x="229" y="485" on="0"/>
        <pt x="262" y="419" on="0"/>
        <pt x="270" y="403" on="1"/>
        <pt x="274" y="403" on="1"/>
        <pt x="305" y="473" on="0"/>
        <pt x="319" y="502" on="1"/>
        <pt x="395" y="655" on="1"/>
        <pt x="506" y="655" on="1"/>
        <pt x="330" y="333" on="1"/>
        <pt x="518" y="0" on="1"/>
        <pt x="401" y="0" on="1"/>
        <pt x="316" y="162" on="1"/>
        <pt x="282" y="228" on="0"/>
        <pt x="262" y="268" on="1"/>
        <pt x="258" y="268" on="1"/>
        <pt x="240" y="228" on="0"/>
        <pt x="208" y="162" on="1"/>
        <pt x="125" y="0" on="1"/>
      </contour>
    </TTGlyph>
    <TTGlyph name="Y" xMin="-3" yMin="0" xMax="495" yMax="655">
      <contour>
        <pt x="194" y="0" on="1"/>
        <pt x="194" y="247" on="1"/>
        <pt x="-3" y="655" on="1"/>
        <pt x="109" y="655" on="1"/>
        <pt x="185" y="481" on="1"/>
        <pt x="216" y="402" on="0"/>
        <pt x="245" y="338" on="1"/>
        <pt x="249" y="338" on="1"/>
        <pt x="257" y="356" on="0"/>
        <pt x="300" y="454" on="0"/>
        <pt x="311" y="481" on="1"/>
        <pt x="386" y="655" on="1"/>
        <pt x="495" y="655" on="1"/>
        <pt x="298" y="247" on="1"/>
        <pt x="298" y="0" on="1"/>
      </contour>
    </TTGlyph>
    <TTGlyph name="Yacute" xMin="-3" yMin="0" xMax="495" yMax="876">
      <contour>
        <pt x="194" y="0" on="1"/>
        <pt x="194" y="247" on="1"/>
        <pt x="-3" y="655" on="1"/>
        <pt x="109" y="655" on="1"/>
        <pt x="185" y="481" on="1"/>
        <pt x="216" y="402" on="0"/>
        <pt x="245" y="338" on="1"/>
        <pt x="249" y="338" on="1"/>
        <pt x="257" y="356" on="0"/>
        <pt x="300" y="454" on="0"/>
        <pt x="311" y="481" on="1"/>
        <pt x="386" y="655" on="1"/>
        <pt x="495" y="655" on="1"/>
        <pt x="298" y="247" on="1"/>
        <pt x="298" y="0" on="1"/>
      </contour>
      <contour>
        <pt x="231" y="691" on="1"/>
        <pt x="185" y="744" on="1"/>
        <pt x="336" y="876" on="1"/>
        <pt x="394" y="807" on="1"/>
      </contour>
    </TTGlyph>
    <TTGlyph name="Z" xMin="42" yMin="0" xMax="500" yMax="655">
      <contour>
        <pt x="42" y="0" on="1"/>
        <pt x="42" y="63" on="1"/>
        <pt x="368" y="566" on="1"/>
        <pt x="71" y="566" on="1"/>
        <pt x="71" y="655" on="1"/>
        <pt x="498" y="655" on="1"/>
        <pt x="498" y="592" on="1"/>
        <pt x="171" y="88" on="1"/>
        <pt x="500" y="88" on="1"/>
        <pt x="500" y="0" on="1"/>
      </contour>
    </TTGlyph>
    <TTGlyph name="a" xMin="49" yMin="-12" xMax="445" yMax="501">
      <contour>
        <pt x="193" y="-12" on="1"/>
        <pt x="129" y="-12" on="0"/>
        <pt x="49" y="66" on="0"/>
        <pt x="49" y="130" on="1"/>
        <pt x="49" y="209" on="0"/>
        <pt x="188" y="296" on="0"/>
        <pt x="341" y="312" on="1"/>
        <pt x="339" y="417" on="0"/>
        <pt x="248" y="417" on="1"/>
        <pt x="186" y="417" on="0"/>
        <pt x="107" y="368" on="1"/>
        <pt x="68" y="437" on="1"/>
        <pt x="167" y="501" on="0"/>
        <pt x="266" y="501" on="1"/>
        <pt x="445" y="501" on="0"/>
        <pt x="445" y="293" on="1"/>
        <pt x="445" y="0" on="1"/>
        <pt x="359" y="0" on="1"/>
        <pt x="351" y="56" on="1"/>
        <pt x="348" y="56" on="1"/>
        <pt x="267" y="-12" on="0"/>
      </contour>
      <contour>
        <pt x="225" y="70" on="1"/>
        <pt x="278" y="70" on="0"/>
        <pt x="341" y="127" on="1"/>
        <pt x="341" y="246" on="1"/>
        <pt x="237" y="233" on="0"/>
        <pt x="149" y="180" on="0"/>
        <pt x="149" y="138" on="1"/>
        <pt x="149" y="104" on="0"/>
        <pt x="191" y="70" on="0"/>
      </contour>
    </TTGlyph>
    <TTGlyph name="aacute" xMin="49" yMin="-12" xMax="445" yMax="796">
      <contour>
        <pt x="193" y="-12" on="1"/>
        <pt x="129" y="-12" on="0"/>
        <pt x="49" y="66" on="0"/>
        <pt x="49" y="130" on="1"/>
        <pt x="49" y="209" on="0"/>
        <pt x="188" y="296" on="0"/>
        <pt x="341" y="312" on="1"/>
        <pt x="339" y="417" on="0"/>
        <pt x="248" y="417" on="1"/>
        <pt x="186" y="417" on="0"/>
        <pt x="107" y="368" on="1"/>
        <pt x="68" y="437" on="1"/>
        <pt x="167" y="501" on="0"/>
        <pt x="266" y="501" on="1"/>
        <pt x="445" y="501" on="0"/>
        <pt x="445" y="293" on="1"/>
        <pt x="445" y="0" on="1"/>
        <pt x="359" y="0" on="1"/>
        <pt x="351" y="56" on="1"/>
        <pt x="348" y="56" on="1"/>
        <pt x="267" y="-12" on="0"/>
      </contour>
      <contour>
        <pt x="225" y="70" on="1"/>
        <pt x="278" y="70" on="0"/>
        <pt x="341" y="127" on="1"/>
        <pt x="341" y="246" on="1"/>
        <pt x="237" y="233" on="0"/>
        <pt x="149" y="180" on="0"/>
        <pt x="149" y="138" on="1"/>
        <pt x="149" y="104" on="0"/>
        <pt x="191" y="70" on="0"/>
      </contour>
      <contour>
        <pt x="261" y="573" on="1"/>
        <pt x="209" y="624" on="1"/>
        <pt x="354" y="796" on="1"/>
        <pt x="426" y="727" on="1"/>
      </contour>
    </TTGlyph>
    <TTGlyph name="acircumflex" xMin="49" yMin="-12" xMax="445" yMax="741">
      <contour>
        <pt x="193" y="-12" on="1"/>
        <pt x="129" y="-12" on="0"/>
        <pt x="49" y="66" on="0"/>
        <pt x="49" y="130" on="1"/>
        <pt x="49" y="209" on="0"/>
        <pt x="188" y="296" on="0"/>
        <pt x="341" y="312" on="1"/>
        <pt x="339" y="417" on="0"/>
        <pt x="248" y="417" on="1"/>
        <pt x="186" y="417" on="0"/>
        <pt x="107" y="368" on="1"/>
        <pt x="68" y="437" on="1"/>
        <pt x="167" y="501" on="0"/>
        <pt x="266" y="501" on="1"/>
        <pt x="445" y="501" on="0"/>
        <pt x="445" y="293" on="1"/>
        <pt x="445" y="0" on="1"/>
        <pt x="359" y="0" on="1"/>
        <pt x="351" y="56" on="1"/>
        <pt x="348" y="56" on="1"/>
        <pt x="267" y="-12" on="0"/>
      </contour>
      <contour>
        <pt x="225" y="70" on="1"/>
        <pt x="278" y="70" on="0"/>
        <pt x="341" y="127" on="1"/>
        <pt x="341" y="246" on="1"/>
        <pt x="237" y="233" on="0"/>
        <pt x="149" y="180" on="0"/>
        <pt x="149" y="138" on="1"/>
        <pt x="149" y="104" on="0"/>
        <pt x="191" y="70" on="0"/>
      </contour>
      <contour>
        <pt x="103" y="605" on="1"/>
        <pt x="215" y="741" on="1"/>
        <pt x="319" y="741" on="1"/>
        <pt x="431" y="605" on="1"/>
        <pt x="389" y="566" on="1"/>
        <pt x="269" y="672" on="1"/>
        <pt x="265" y="672" on="1"/>
        <pt x="145" y="566" on="1"/>
      </contour>
    </TTGlyph>
    <TTGlyph name="acute" xMin="215" yMin="573" xMax="432" yMax="796">
      <contour>
        <pt x="267" y="573" on="1"/>
        <pt x="215" y="624" on="1"/>
        <pt x="360" y="796" on="1"/>
        <pt x="432" y="727" on="1"/>
      </contour>
    </TTGlyph>
    <TTGlyph name="adieresis" xMin="49" yMin="-12" xMax="445" yMax="695">
      <contour>
        <pt x="193" y="-12" on="1"/>
        <pt x="129" y="-12" on="0"/>
        <pt x="49" y="66" on="0"/>
        <pt x="49" y="130" on="1"/>
        <pt x="49" y="209" on="0"/>
        <pt x="188" y="296" on="0"/>
        <pt x="341" y="312" on="1"/>
        <pt x="339" y="417" on="0"/>
        <pt x="248" y="417" on="1"/>
        <pt x="186" y="417" on="0"/>
        <pt x="107" y="368" on="1"/>
        <pt x="68" y="437" on="1"/>
        <pt x="167" y="501" on="0"/>
        <pt x="266" y="501" on="1"/>
        <pt x="445" y="501" on="0"/>
        <pt x="445" y="293" on="1"/>
        <pt x="445" y="0" on="1"/>
        <pt x="359" y="0" on="1"/>
        <pt x="351" y="56" on="1"/>
        <pt x="348" y="56" on="1"/>
        <pt x="267" y="-12" on="0"/>
      </contour>
      <contour>
        <pt x="225" y="70" on="1"/>
        <pt x="278" y="70" on="0"/>
        <pt x="341" y="127" on="1"/>
        <pt x="341" y="246" on="1"/>
        <pt x="237" y="233" on="0"/>
        <pt x="149" y="180" on="0"/>
        <pt x="149" y="138" on="1"/>
        <pt x="149" y="104" on="0"/>
        <pt x="191" y="70" on="0"/>
      </contour>
      <contour>
        <pt x="191" y="581" on="0"/>
        <pt x="141" y="581" on="0"/>
        <pt x="109" y="614" on="0"/>
        <pt x="109" y="662" on="0"/>
        <pt x="141" y="695" on="0"/>
        <pt x="191" y="695" on="0"/>
        <pt x="223" y="662" on="0"/>
        <pt x="223" y="614" on="0"/>
      </contour>
      <contour>
        <pt x="393" y="581" on="0"/>
        <pt x="343" y="581" on="0"/>
        <pt x="311" y="614" on="0"/>
        <pt x="311" y="662" on="0"/>
        <pt x="343" y="695" on="0"/>
        <pt x="393" y="695" on="0"/>
        <pt x="425" y="662" on="0"/>
        <pt x="425" y="614" on="0"/>
      </contour>
    </TTGlyph>
    <TTGlyph name="ae" xMin="54" yMin="-12" xMax="748" yMax="501">
      <contour>
        <pt x="199" y="-12" on="1"/>
        <pt x="135" y="-12" on="0"/>
        <pt x="54" y="66" on="0"/>
        <pt x="54" y="130" on="1"/>
        <pt x="54" y="209" on="0"/>
        <pt x="193" y="295" on="0"/>
        <pt x="343" y="312" on="1"/>
        <pt x="341" y="417" on="0"/>
        <pt x="251" y="417" on="1"/>
        <pt x="192" y="417" on="0"/>
        <pt x="113" y="368" on="1"/>
        <pt x="74" y="437" on="1"/>
        <pt x="173" y="501" on="0"/>
        <pt x="264" y="501" on="1"/>
        <pt x="365" y="501" on="0"/>
        <pt x="403" y="408" on="1"/>
        <pt x="466" y="501" on="0"/>
        <pt x="559" y="501" on="1"/>
        <pt x="649" y="501" on="0"/>
        <pt x="748" y="374" on="0"/>
        <pt x="748" y="268" on="1"/>
        <pt x="748" y="237" on="0"/>
        <pt x="743" y="217" on="1"/>
        <pt x="438" y="217" on="1"/>
        <pt x="443" y="150" on="0"/>
        <pt x="521" y="71" on="0"/>
        <pt x="579" y="71" on="1"/>
        <pt x="631" y="71" on="0"/>
        <pt x="692" y="110" on="1"/>
        <pt x="729" y="40" on="1"/>
        <pt x="651" y="-12" on="0"/>
        <pt x="565" y="-12" on="1"/>
        <pt x="465" y="-12" on="0"/>
        <pt x="394" y="74" on="1"/>
        <pt x="295" y="-12" on="0"/>
      </contour>
      <contour>
        <pt x="231" y="70" on="1"/>
        <pt x="298" y="70" on="0"/>
        <pt x="360" y="134" on="1"/>
        <pt x="345" y="169" on="0"/>
        <pt x="343" y="223" on="1"/>
        <pt x="342" y="246" on="1"/>
        <pt x="243" y="233" on="0"/>
        <pt x="155" y="180" on="0"/>
        <pt x="155" y="138" on="1"/>
        <pt x="155" y="70" on="0"/>
      </contour>
      <contour>
        <pt x="438" y="284" on="1"/>
        <pt x="658" y="284" on="1"/>
        <pt x="658" y="349" on="0"/>
        <pt x="605" y="420" on="0"/>
        <pt x="555" y="420" on="1"/>
        <pt x="509" y="420" on="0"/>
        <pt x="445" y="347" on="0"/>
      </contour>
    </TTGlyph>
    <TTGlyph name="agrave" xMin="49" yMin="-12" xMax="445" yMax="796">
      <contour>
        <pt x="193" y="-12" on="1"/>
        <pt x="129" y="-12" on="0"/>
        <pt x="49" y="66" on="0"/>
        <pt x="49" y="130" on="1"/>
        <pt x="49" y="209" on="0"/>
        <pt x="188" y="296" on="0"/>
        <pt x="341" y="312" on="1"/>
        <pt x="339" y="417" on="0"/>
        <pt x="248" y="417" on="1"/>
        <pt x="186" y="417" on="0"/>
        <pt x="107" y="368" on="1"/>
        <pt x="68" y="437" on="1"/>
        <pt x="167" y="501" on="0"/>
        <pt x="266" y="501" on="1"/>
        <pt x="445" y="501" on="0"/>
        <pt x="445" y="293" on="1"/>
        <pt x="445" y="0" on="1"/>
        <pt x="359" y="0" on="1"/>
        <pt x="351" y="56" on="1"/>
        <pt x="348" y="56" on="1"/>
        <pt x="267" y="-12" on="0"/>
      </contour>
      <contour>
        <pt x="225" y="70" on="1"/>
        <pt x="278" y="70" on="0"/>
        <pt x="341" y="127" on="1"/>
        <pt x="341" y="246" on="1"/>
        <pt x="237" y="233" on="0"/>
        <pt x="149" y="180" on="0"/>
        <pt x="149" y="138" on="1"/>
        <pt x="149" y="104" on="0"/>
        <pt x="191" y="70" on="0"/>
      </contour>
      <contour>
        <pt x="273" y="573" on="1"/>
        <pt x="108" y="727" on="1"/>
        <pt x="180" y="796" on="1"/>
        <pt x="325" y="624" on="1"/>
      </contour>
    </TTGlyph>
    <TTGlyph name="ampersand" xMin="30" yMin="-12" xMax="612" yMax="667">
      <contour>
        <pt x="235" y="-12" on="1"/>
        <pt x="142" y="-12" on="0"/>
        <pt x="30" y="91" on="0"/>
        <pt x="30" y="171" on="1"/>
        <pt x="30" y="218" on="0"/>
        <pt x="75" y="298" on="0"/>
        <pt x="141" y="349" on="0"/>
        <pt x="220" y="401" on="0"/>
        <pt x="286" y="442" on="0"/>
        <pt x="331" y="498" on="0"/>
        <pt x="331" y="530" on="1"/>
        <pt x="331" y="595" on="0"/>
        <pt x="275" y="595" on="1"/>
        <pt x="242" y="595" on="0"/>
        <pt x="201" y="546" on="0"/>
        <pt x="201" y="507" on="1"/>
        <pt x="201" y="425" on="0"/>
        <pt x="361" y="219" on="0"/>
        <pt x="466" y="146" on="1"/>
        <pt x="549" y="88" on="0"/>
        <pt x="612" y="73" on="1"/>
        <pt x="586" y="-12" on="1"/>
        <pt x="495" y="10" on="0"/>
        <pt x="404" y="78" on="1"/>
        <pt x="285" y="166" on="0"/>
        <pt x="113" y="408" on="0"/>
        <pt x="113" y="506" on="1"/>
        <pt x="113" y="574" on="0"/>
        <pt x="203" y="667" on="0"/>
        <pt x="274" y="667" on="1"/>
        <pt x="338" y="667" on="0"/>
        <pt x="413" y="592" on="0"/>
        <pt x="413" y="531" on="1"/>
        <pt x="413" y="484" on="0"/>
        <pt x="354" y="402" on="0"/>
        <pt x="271" y="341" on="0"/>
        <pt x="188" y="284" on="0"/>
        <pt x="129" y="214" on="0"/>
        <pt x="129" y="177" on="1"/>
        <pt x="129" y="129" on="0"/>
        <pt x="196" y="69" on="0"/>
        <pt x="248" y="69" on="1"/>
        <pt x="321" y="69" on="0"/>
        <pt x="393" y="143" on="1"/>
        <pt x="474" y="227" on="0"/>
        <pt x="510" y="359" on="1"/>
        <pt x="606" y="359" on="1"/>
        <pt x="561" y="206" on="0"/>
        <pt x="465" y="94" on="1"/>
        <pt x="369" y="-12" on="0"/>
      </contour>
    </TTGlyph>
    <TTGlyph name="ar1Dot.above" xMin="-52" yMin="-52" xMax="52" yMax="52">
      <contour>
        <pt x="-52" y="22" on="0"/>
        <pt x="-52" y="-22" on="0"/>
        <pt x="-22" y="-52" on="0"/>
        <pt x="22" y="-52" on="0"/>
        <pt x="52" y="-22" on="0"/>
        <pt x="52" y="22" on="0"/>
        <pt x="22" y="52" on="0"/>
        <pt x="-22" y="52" on="0"/>
      </contour>
    </TTGlyph>
    <TTGlyph name="ar1Dot.below" xMin="-52" yMin="-52" xMax="52" yMax="52">
      <contour>
        <pt x="-52" y="22" on="0"/>
        <pt x="-52" y="-22" on="0"/>
        <pt x="-22" y="-52" on="0"/>
        <pt x="22" y="-52" on="0"/>
        <pt x="52" y="-22" on="0"/>
        <pt x="52" y="22" on="0"/>
        <pt x="22" y="52" on="0"/>
        <pt x="-22" y="52" on="0"/>
      </contour>
    </TTGlyph>
    <TTGlyph name="ar2Dot.above" xMin="-140" yMin="-52" xMax="140" yMax="52">
      <contour>
        <pt x="36" y="22" on="0"/>
        <pt x="36" y="-22" on="0"/>
        <pt x="66" y="-52" on="0"/>
        <pt x="110" y="-52" on="0"/>
        <pt x="140" y="-22" on="0"/>
        <pt x="140" y="22" on="0"/>
        <pt x="110" y="52" on="0"/>
        <pt x="66" y="52" on="0"/>
      </contour>
      <contour>
        <pt x="-140" y="22" on="0"/>
        <pt x="-140" y="-22" on="0"/>
        <pt x="-110" y="-52" on="0"/>
        <pt x="-66" y="-52" on="0"/>
        <pt x="-36" y="-22" on="0"/>
        <pt x="-36" y="22" on="0"/>
        <pt x="-66" y="52" on="0"/>
        <pt x="-110" y="52" on="0"/>
      </contour>
    </TTGlyph>
    <TTGlyph name="ar2Dot.below" xMin="-140" yMin="-52" xMax="140" yMax="52">
      <contour>
        <pt x="36" y="22" on="0"/>
        <pt x="36" y="-22" on="0"/>
        <pt x="66" y="-52" on="0"/>
        <pt x="110" y="-52" on="0"/>
        <pt x="140" y="-22" on="0"/>
        <pt x="140" y="22" on="0"/>
        <pt x="110" y="52" on="0"/>
        <pt x="66" y="52" on="0"/>
      </contour>
      <contour>
        <pt x="-140" y="22" on="0"/>
        <pt x="-140" y="-22" on="0"/>
        <pt x="-110" y="-52" on="0"/>
        <pt x="-66" y="-52" on="0"/>
        <pt x="-36" y="-22" on="0"/>
        <pt x="-36" y="22" on="0"/>
        <pt x="-66" y="52" on="0"/>
        <pt x="-110" y="52" on="0"/>
      </contour>
    </TTGlyph>
    <TTGlyph name="ar3Dot.above" xMin="-140" yMin="-52" xMax="140" yMax="177">
      <contour>
        <pt x="-52" y="147" on="0"/>
        <pt x="-52" y="103" on="0"/>
        <pt x="-22" y="73" on="0"/>
        <pt x="22" y="73" on="0"/>
        <pt x="52" y="103" on="0"/>
        <pt x="52" y="147" on="0"/>
        <pt x="22" y="177" on="0"/>
        <pt x="-22" y="177" on="0"/>
      </contour>
      <contour>
        <pt x="36" y="22" on="0"/>
        <pt x="36" y="-22" on="0"/>
        <pt x="66" y="-52" on="0"/>
        <pt x="110" y="-52" on="0"/>
        <pt x="140" y="-22" on="0"/>
        <pt x="140" y="22" on="0"/>
        <pt x="110" y="52" on="0"/>
        <pt x="66" y="52" on="0"/>
      </contour>
      <contour>
        <pt x="-140" y="22" on="0"/>
        <pt x="-140" y="-22" on="0"/>
        <pt x="-110" y="-52" on="0"/>
        <pt x="-66" y="-52" on="0"/>
        <pt x="-36" y="-22" on="0"/>
        <pt x="-36" y="22" on="0"/>
        <pt x="-66" y="52" on="0"/>
        <pt x="-110" y="52" on="0"/>
      </contour>
    </TTGlyph>
    <TTGlyph name="ar3IDot.below" xMin="-140" yMin="-167" xMax="140" yMax="52">
      <contour>
        <pt x="36" y="22" on="0"/>
        <pt x="36" y="-22" on="0"/>
        <pt x="66" y="-52" on="0"/>
        <pt x="110" y="-52" on="0"/>
        <pt x="140" y="-22" on="0"/>
        <pt x="140" y="22" on="0"/>
        <pt x="110" y="52" on="0"/>
        <pt x="66" y="52" on="0"/>
      </contour>
      <contour>
        <pt x="-140" y="22" on="0"/>
        <pt x="-140" y="-22" on="0"/>
        <pt x="-110" y="-52" on="0"/>
        <pt x="-66" y="-52" on="0"/>
        <pt x="-36" y="-22" on="0"/>
        <pt x="-36" y="22" on="0"/>
        <pt x="-66" y="52" on="0"/>
        <pt x="-110" y="52" on="0"/>
      </contour>
      <contour>
        <pt x="-52" y="-93" on="0"/>
        <pt x="-52" y="-137" on="0"/>
        <pt x="-22" y="-167" on="0"/>
        <pt x="22" y="-167" on="0"/>
        <pt x="52" y="-137" on="0"/>
        <pt x="52" y="-93" on="0"/>
        <pt x="22" y="-63" on="0"/>
        <pt x="-22" y="-63" on="0"/>
      </contour>
    </TTGlyph>
    <TTGlyph name="arAin.fina" xMin="50" yMin="-273" xMax="452" yMax="358">
      <contour>
        <pt x="432" y="-168" on="1"/>
        <pt x="135" y="-168" on="1"/>
        <pt x="155" y="-188" on="1"/>
        <pt x="155" y="20" on="1"/>
        <pt x="135" y="0" on="1"/>
        <pt x="432" y="0" on="1"/>
        <pt x="432" y="105" on="1"/>
        <pt x="146" y="105" on="1"/>
        <pt x="104" y="105" on="0"/>
        <pt x="50" y="46" on="0"/>
        <pt x="50" y="5" on="1"/>
        <pt x="50" y="-173" on="1"/>
        <pt x="50" y="-214" on="0"/>
        <pt x="104" y="-273" on="0"/>
        <pt x="144" y="-273" on="1"/>
        <pt x="432" y="-273" on="1"/>
      </contour>
      <contour>
        <pt x="413" y="304" on="1"/>
        <pt x="377" y="318" on="0"/>
        <pt x="359" y="323" on="1"/>
        <pt x="233" y="358" on="0"/>
        <pt x="168" y="298" on="1"/>
        <pt x="131" y="264" on="0"/>
        <pt x="127" y="167" on="0"/>
        <pt x="178" y="67" on="0"/>
        <pt x="225" y="17" on="1"/>
        <pt x="303" y="89" on="1"/>
        <pt x="264" y="132" on="0"/>
        <pt x="233" y="198" on="0"/>
        <pt x="236" y="218" on="0"/>
        <pt x="239" y="221" on="1"/>
        <pt x="262" y="240" on="0"/>
        <pt x="331" y="221" on="1"/>
        <pt x="349" y="216" on="0"/>
        <pt x="373" y="206" on="1"/>
      </contour>
      <contour>
        <pt x="452" y="105" on="1"/>
        <pt x="422" y="105" on="1"/>
        <pt x="422" y="0" on="1"/>
        <pt x="452" y="0" on="1"/>
      </contour>
    </TTGlyph>
    <TTGlyph name="arAin.init" xMin="0" yMin="0" xMax="468" yMax="426">
      <contour>
        <pt x="0" y="0" on="1"/>
        <pt x="468" y="0" on="1"/>
        <pt x="468" y="105" on="1"/>
        <pt x="0" y="105" on="1"/>
      </contour>
      <contour>
        <pt x="433" y="357" on="1"/>
        <pt x="207" y="426" on="0"/>
        <pt x="119" y="335" on="1"/>
        <pt x="78" y="295" on="0"/>
        <pt x="86" y="186" on="0"/>
        <pt x="149" y="80" on="0"/>
        <pt x="204" y="26" on="1"/>
        <pt x="278" y="102" on="1"/>
        <pt x="248" y="131" on="0"/>
        <pt x="208" y="184" on="0"/>
        <pt x="193" y="218" on="0"/>
        <pt x="188" y="246" on="0"/>
        <pt x="191" y="259" on="0"/>
        <pt x="194" y="262" on="1"/>
        <pt x="203" y="271" on="0"/>
        <pt x="247" y="282" on="0"/>
        <pt x="344" y="275" on="0"/>
        <pt x="403" y="257" on="1"/>
      </contour>
    </TTGlyph>
    <TTGlyph name="arAin.isol" xMin="50" yMin="-273" xMax="432" yMax="358">
      <contour>
        <pt x="432" y="-168" on="1"/>
        <pt x="135" y="-168" on="1"/>
        <pt x="155" y="-188" on="1"/>
        <pt x="155" y="20" on="1"/>
        <pt x="135" y="0" on="1"/>
        <pt x="432" y="0" on="1"/>
        <pt x="432" y="105" on="1"/>
        <pt x="146" y="105" on="1"/>
        <pt x="104" y="105" on="0"/>
        <pt x="50" y="46" on="0"/>
        <pt x="50" y="5" on="1"/>
        <pt x="50" y="-173" on="1"/>
        <pt x="50" y="-214" on="0"/>
        <pt x="104" y="-273" on="0"/>
        <pt x="144" y="-273" on="1"/>
        <pt x="432" y="-273" on="1"/>
      </contour>
      <contour>
        <pt x="413" y="304" on="1"/>
        <pt x="377" y="318" on="0"/>
        <pt x="359" y="323" on="1"/>
        <pt x="233" y="358" on="0"/>
        <pt x="168" y="298" on="1"/>
        <pt x="131" y="264" on="0"/>
        <pt x="127" y="167" on="0"/>
        <pt x="178" y="67" on="0"/>
        <pt x="225" y="17" on="1"/>
        <pt x="303" y="89" on="1"/>
        <pt x="264" y="132" on="0"/>
        <pt x="233" y="198" on="0"/>
        <pt x="236" y="218" on="0"/>
        <pt x="239" y="221" on="1"/>
        <pt x="262" y="240" on="0"/>
        <pt x="331" y="221" on="1"/>
        <pt x="349" y="216" on="0"/>
        <pt x="373" y="206" on="1"/>
      </contour>
    </TTGlyph>
    <TTGlyph name="arAin.medi" xMin="0" yMin="0" xMax="488" yMax="426">
      <contour>
        <pt x="0" y="0" on="1"/>
        <pt x="468" y="0" on="1"/>
        <pt x="468" y="105" on="1"/>
        <pt x="0" y="105" on="1"/>
      </contour>
      <contour>
        <pt x="433" y="357" on="1"/>
        <pt x="207" y="426" on="0"/>
        <pt x="119" y="335" on="1"/>
        <pt x="78" y="295" on="0"/>
        <pt x="86" y="186" on="0"/>
        <pt x="149" y="80" on="0"/>
        <pt x="204" y="26" on="1"/>
        <pt x="278" y="102" on="1"/>
        <pt x="248" y="131" on="0"/>
        <pt x="208" y="184" on="0"/>
        <pt x="193" y="218" on="0"/>
        <pt x="188" y="246" on="0"/>
        <pt x="191" y="259" on="0"/>
        <pt x="194" y="262" on="1"/>
        <pt x="203" y="271" on="0"/>
        <pt x="247" y="282" on="0"/>
        <pt x="344" y="275" on="0"/>
        <pt x="403" y="257" on="1"/>
      </contour>
      <contour>
        <pt x="488" y="105" on="1"/>
        <pt x="458" y="105" on="1"/>
        <pt x="458" y="0" on="1"/>
        <pt x="488" y="0" on="1"/>
      </contour>
    </TTGlyph>
    <TTGlyph name="arAlef.fina" xMin="50" yMin="0" xMax="312" yMax="624">
      <contour>
        <pt x="282" y="105" on="1"/>
        <pt x="312" y="105" on="1"/>
        <pt x="312" y="0" on="1"/>
        <pt x="282" y="0" on="1"/>
      </contour>
      <contour>
        <pt x="155" y="624" on="1"/>
        <pt x="155" y="84" on="1"/>
        <pt x="154" y="85" on="0"/>
        <pt x="150" y="90" on="0"/>
        <pt x="141" y="99" on="0"/>
        <pt x="138" y="102" on="1"/>
        <pt x="136" y="105" on="1"/>
        <pt x="292" y="105" on="1"/>
        <pt x="292" y="0" on="1"/>
        <pt x="156" y="0" on="1"/>
        <pt x="113" y="0" on="0"/>
        <pt x="50" y="60" on="0"/>
        <pt x="50" y="104" on="1"/>
        <pt x="50" y="624" on="1"/>
      </contour>
    </TTGlyph>
    <TTGlyph name="arAlef.fina.1" xMin="60" yMin="90" xMax="294" yMax="662">
      <contour>
        <pt x="73" y="632" on="1"/>
        <pt x="194" y="216" on="1"/>
        <pt x="294" y="246" on="1"/>
        <pt x="173" y="662" on="1"/>
      </contour>
      <contour>
        <pt x="180" y="263" on="1"/>
        <pt x="181" y="193" on="0"/>
        <pt x="120" y="119" on="0"/>
        <pt x="60" y="90" on="1"/>
        <pt x="143" y="90" on="1"/>
        <pt x="265" y="158" on="0"/>
        <pt x="283" y="263" on="1"/>
      </contour>
    </TTGlyph>
    <TTGlyph name="arAlef.isol" xMin="50" yMin="0" xMax="155" yMax="624">
      <contour>
        <pt x="50" y="624" on="1"/>
        <pt x="50" y="0" on="1"/>
        <pt x="98" y="0" on="0"/>
        <pt x="155" y="62" on="0"/>
        <pt x="155" y="110" on="1"/>
        <pt x="155" y="624" on="1"/>
      </contour>
    </TTGlyph>
    <TTGlyph name="arBeh.fina" xMin="50" yMin="0" xMax="717" yMax="300">
      <contour>
        <pt x="612" y="300" on="1"/>
        <pt x="612" y="86" on="1"/>
        <pt x="632" y="105" on="1"/>
        <pt x="221" y="105" on="1"/>
        <pt x="193" y="105" on="0"/>
        <pt x="155" y="139" on="0"/>
        <pt x="155" y="160" on="1"/>
        <pt x="155" y="300" on="1"/>
        <pt x="50" y="300" on="1"/>
        <pt x="50" y="160" on="1"/>
        <pt x="50" y="92" on="0"/>
        <pt x="153" y="0" on="0"/>
        <pt x="221" y="0" on="1"/>
        <pt x="613" y="0" on="1"/>
        <pt x="656" y="0" on="0"/>
        <pt x="717" y="62" on="0"/>
        <pt x="717" y="105" on="1"/>
        <pt x="717" y="300" on="1"/>
      </contour>
    </TTGlyph>
    <TTGlyph name="arBeh.init" xMin="0" yMin="0" xMax="395" yMax="376">
      <contour>
        <pt x="290" y="376" on="1"/>
        <pt x="290" y="84" on="1"/>
        <pt x="291" y="85" on="0"/>
        <pt x="295" y="90" on="0"/>
        <pt x="304" y="99" on="0"/>
        <pt x="306" y="102" on="1"/>
        <pt x="309" y="105" on="1"/>
        <pt x="0" y="105" on="1"/>
        <pt x="0" y="0" on="1"/>
        <pt x="289" y="0" on="1"/>
        <pt x="332" y="0" on="0"/>
        <pt x="395" y="60" on="0"/>
        <pt x="395" y="104" on="1"/>
        <pt x="395" y="376" on="1"/>
      </contour>
    </TTGlyph>
    <TTGlyph name="arBeh.isol" xMin="50" yMin="0" xMax="717" yMax="300">
      <contour>
        <pt x="612" y="300" on="1"/>
        <pt x="612" y="86" on="1"/>
        <pt x="632" y="105" on="1"/>
        <pt x="221" y="105" on="1"/>
        <pt x="193" y="105" on="0"/>
        <pt x="155" y="139" on="0"/>
        <pt x="155" y="160" on="1"/>
        <pt x="155" y="300" on="1"/>
        <pt x="50" y="300" on="1"/>
        <pt x="50" y="160" on="1"/>
        <pt x="50" y="92" on="0"/>
        <pt x="153" y="0" on="0"/>
        <pt x="221" y="0" on="1"/>
        <pt x="613" y="0" on="1"/>
        <pt x="656" y="0" on="0"/>
        <pt x="717" y="62" on="0"/>
        <pt x="717" y="105" on="1"/>
        <pt x="717" y="300" on="1"/>
      </contour>
    </TTGlyph>
    <TTGlyph name="arBeh.medi" xMin="0" yMin="0" xMax="395" yMax="376">
      <contour>
        <pt x="290" y="376" on="1"/>
        <pt x="290" y="84" on="1"/>
        <pt x="291" y="85" on="0"/>
        <pt x="295" y="90" on="0"/>
        <pt x="304" y="99" on="0"/>
        <pt x="306" y="102" on="1"/>
        <pt x="309" y="105" on="1"/>
        <pt x="0" y="105" on="1"/>
        <pt x="0" y="0" on="1"/>
        <pt x="289" y="0" on="1"/>
        <pt x="332" y="0" on="0"/>
        <pt x="395" y="60" on="0"/>
        <pt x="395" y="104" on="1"/>
        <pt x="395" y="376" on="1"/>
      </contour>
    </TTGlyph>
    <TTGlyph name="arDal.fina" xMin="50" yMin="0" xMax="419" yMax="377">
      <contour>
        <pt x="157" y="283" on="1"/>
        <pt x="190" y="266" on="0"/>
        <pt x="236" y="237" on="0"/>
        <pt x="289" y="188" on="0"/>
        <pt x="314" y="123" on="0"/>
        <pt x="313" y="84" on="1"/>
        <pt x="333" y="105" on="1"/>
        <pt x="50" y="105" on="1"/>
        <pt x="50" y="0" on="1"/>
        <pt x="314" y="0" on="1"/>
        <pt x="358" y="0" on="0"/>
        <pt x="419" y="60" on="0"/>
        <pt x="419" y="104" on="1"/>
        <pt x="419" y="150" on="0"/>
        <pt x="385" y="233" on="0"/>
        <pt x="342" y="287" on="0"/>
        <pt x="273" y="339" on="0"/>
        <pt x="232" y="363" on="0"/>
        <pt x="203" y="377" on="1"/>
      </contour>
    </TTGlyph>
    <TTGlyph name="arDal.isol" xMin="50" yMin="0" xMax="419" yMax="377">
      <contour>
        <pt x="157" y="283" on="1"/>
        <pt x="190" y="266" on="0"/>
        <pt x="236" y="237" on="0"/>
        <pt x="289" y="188" on="0"/>
        <pt x="314" y="123" on="0"/>
        <pt x="313" y="84" on="1"/>
        <pt x="333" y="105" on="1"/>
        <pt x="50" y="105" on="1"/>
        <pt x="50" y="0" on="1"/>
        <pt x="314" y="0" on="1"/>
        <pt x="358" y="0" on="0"/>
        <pt x="419" y="60" on="0"/>
        <pt x="419" y="104" on="1"/>
        <pt x="419" y="150" on="0"/>
        <pt x="385" y="233" on="0"/>
        <pt x="342" y="287" on="0"/>
        <pt x="273" y="339" on="0"/>
        <pt x="232" y="363" on="0"/>
        <pt x="203" y="377" on="1"/>
      </contour>
    </TTGlyph>
    <TTGlyph name="arFeh.fina" xMin="50" yMin="-200" xMax="895" yMax="377">
      <contour>
        <pt x="895" y="105" on="1"/>
        <pt x="696" y="105" on="1"/>
        <pt x="684" y="105" on="0"/>
        <pt x="644" y="105" on="0"/>
        <pt x="628" y="105" on="0"/>
        <pt x="600" y="106" on="0"/>
        <pt x="589" y="107" on="0"/>
        <pt x="569" y="111" on="0"/>
        <pt x="561" y="117" on="0"/>
        <pt x="548" y="125" on="0"/>
        <pt x="540" y="136" on="0"/>
        <pt x="535" y="144" on="1"/>
        <pt x="520" y="172" on="0"/>
        <pt x="539" y="239" on="0"/>
        <pt x="562" y="254" on="1"/>
        <pt x="609" y="283" on="0"/>
        <pt x="657" y="256" on="1"/>
        <pt x="696" y="234" on="0"/>
        <pt x="696" y="191" on="1"/>
        <pt x="696" y="-114" on="1"/>
        <pt x="715" y="-94" on="1"/>
        <pt x="201" y="-94" on="1"/>
        <pt x="154" y="-94" on="0"/>
        <pt x="154" y="-53" on="1"/>
        <pt x="154" y="99" on="1"/>
        <pt x="50" y="99" on="1"/>
        <pt x="50" y="-53" on="1"/>
        <pt x="50" y="-118" on="0"/>
        <pt x="138" y="-200" on="0"/>
        <pt x="201" y="-200" on="1"/>
        <pt x="693" y="-200" on="1"/>
        <pt x="739" y="-200" on="0"/>
        <pt x="800" y="-136" on="0"/>
        <pt x="800" y="-93" on="1"/>
        <pt x="800" y="191" on="1"/>
        <pt x="800" y="247" on="0"/>
        <pt x="774" y="290" on="1"/>
        <pt x="745" y="336" on="0"/>
        <pt x="646" y="377" on="0"/>
        <pt x="545" y="367" on="0"/>
        <pt x="506" y="342" on="1"/>
        <pt x="470" y="319" on="0"/>
        <pt x="423" y="237" on="0"/>
        <pt x="416" y="139" on="0"/>
        <pt x="445" y="90" on="1"/>
        <pt x="456" y="71" on="0"/>
        <pt x="485" y="42" on="0"/>
        <pt x="511" y="22" on="0"/>
        <pt x="550" y="9" on="0"/>
        <pt x="575" y="3" on="0"/>
        <pt x="619" y="0" on="0"/>
        <pt x="640" y="-1" on="0"/>
        <pt x="688" y="0" on="0"/>
        <pt x="696" y="0" on="1"/>
        <pt x="895" y="0" on="1"/>
      </contour>
    </TTGlyph>
    <TTGlyph name="arFeh.init" xMin="0" yMin="0" xMax="460" yMax="517">
      <contour>
        <pt x="0" y="105" on="1"/>
        <pt x="0" y="0" on="1"/>
        <pt x="352" y="0" on="1"/>
        <pt x="398" y="0" on="0"/>
        <pt x="460" y="64" on="0"/>
        <pt x="460" y="107" on="1"/>
        <pt x="460" y="331" on="1"/>
        <pt x="460" y="386" on="0"/>
        <pt x="433" y="430" on="1"/>
        <pt x="404" y="476" on="0"/>
        <pt x="305" y="517" on="0"/>
        <pt x="204" y="507" on="0"/>
        <pt x="165" y="482" on="1"/>
        <pt x="129" y="459" on="0"/>
        <pt x="82" y="377" on="0"/>
        <pt x="75" y="279" on="0"/>
        <pt x="104" y="230" on="1"/>
        <pt x="119" y="205" on="0"/>
        <pt x="165" y="172" on="0"/>
        <pt x="207" y="157" on="0"/>
        <pt x="273" y="152" on="0"/>
        <pt x="316" y="154" on="0"/>
        <pt x="391" y="159" on="0"/>
        <pt x="408" y="160" on="1"/>
        <pt x="408" y="236" on="1"/>
        <pt x="330" y="230" on="0"/>
        <pt x="241" y="240" on="0"/>
        <pt x="209" y="259" on="0"/>
        <pt x="194" y="284" on="1"/>
        <pt x="179" y="312" on="0"/>
        <pt x="198" y="379" on="0"/>
        <pt x="221" y="394" on="1"/>
        <pt x="255" y="415" on="0"/>
        <pt x="295" y="405" on="1"/>
        <pt x="321" y="398" on="0"/>
        <pt x="354" y="358" on="0"/>
        <pt x="354" y="331" on="1"/>
        <pt x="354" y="86" on="1"/>
        <pt x="374" y="105" on="1"/>
      </contour>
    </TTGlyph>
    <TTGlyph name="arFeh.isol" xMin="50" yMin="-200" xMax="801" yMax="376">
      <contour>
        <pt x="749" y="19" on="1"/>
        <pt x="749" y="95" on="1"/>
        <pt x="671" y="89" on="0"/>
        <pt x="582" y="99" on="0"/>
        <pt x="550" y="118" on="0"/>
        <pt x="535" y="143" on="1"/>
        <pt x="520" y="171" on="0"/>
        <pt x="540" y="238" on="0"/>
        <pt x="563" y="253" on="1"/>
        <pt x="597" y="274" on="0"/>
        <pt x="637" y="264" on="1"/>
        <pt x="663" y="257" on="0"/>
        <pt x="696" y="217" on="0"/>
        <pt x="696" y="190" on="1"/>
        <pt x="696" y="-114" on="1"/>
        <pt x="715" y="-94" on="1"/>
        <pt x="201" y="-94" on="1"/>
        <pt x="155" y="-94" on="0"/>
        <pt x="155" y="-53" on="1"/>
        <pt x="155" y="99" on="1"/>
        <pt x="50" y="99" on="1"/>
        <pt x="50" y="-53" on="1"/>
        <pt x="50" y="-118" on="0"/>
        <pt x="138" y="-200" on="0"/>
        <pt x="201" y="-200" on="1"/>
        <pt x="693" y="-200" on="1"/>
        <pt x="739" y="-200" on="0"/>
        <pt x="801" y="-136" on="0"/>
        <pt x="801" y="-93" on="1"/>
        <pt x="801" y="190" on="1"/>
        <pt x="801" y="245" on="0"/>
        <pt x="774" y="289" on="1"/>
        <pt x="745" y="335" on="0"/>
        <pt x="646" y="376" on="0"/>
        <pt x="545" y="366" on="0"/>
        <pt x="506" y="341" on="1"/>
        <pt x="449" y="304" on="0"/>
        <pt x="407" y="164" on="0"/>
        <pt x="446" y="89" on="1"/>
        <pt x="461" y="64" on="0"/>
        <pt x="506" y="31" on="0"/>
        <pt x="549" y="16" on="0"/>
        <pt x="614" y="11" on="0"/>
        <pt x="657" y="13" on="0"/>
        <pt x="732" y="18" on="0"/>
      </contour>
    </TTGlyph>
    <TTGlyph name="arFeh.medi" xMin="0" yMin="0" xMax="460" yMax="517">
      <contour>
        <pt x="0" y="105" on="1"/>
        <pt x="0" y="0" on="1"/>
        <pt x="352" y="0" on="1"/>
        <pt x="398" y="0" on="0"/>
        <pt x="460" y="64" on="0"/>
        <pt x="460" y="107" on="1"/>
        <pt x="460" y="331" on="1"/>
        <pt x="460" y="386" on="0"/>
        <pt x="433" y="430" on="1"/>
        <pt x="404" y="476" on="0"/>
        <pt x="305" y="517" on="0"/>
        <pt x="204" y="507" on="0"/>
        <pt x="165" y="482" on="1"/>
        <pt x="129" y="459" on="0"/>
        <pt x="82" y="377" on="0"/>
        <pt x="75" y="279" on="0"/>
        <pt x="104" y="230" on="1"/>
        <pt x="119" y="205" on="0"/>
        <pt x="165" y="172" on="0"/>
        <pt x="207" y="157" on="0"/>
        <pt x="273" y="152" on="0"/>
        <pt x="316" y="154" on="0"/>
        <pt x="391" y="159" on="0"/>
        <pt x="408" y="160" on="1"/>
        <pt x="408" y="236" on="1"/>
        <pt x="330" y="230" on="0"/>
        <pt x="241" y="240" on="0"/>
        <pt x="209" y="259" on="0"/>
        <pt x="194" y="284" on="1"/>
        <pt x="179" y="312" on="0"/>
        <pt x="198" y="379" on="0"/>
        <pt x="221" y="394" on="1"/>
        <pt x="255" y="415" on="0"/>
        <pt x="295" y="405" on="1"/>
        <pt x="321" y="398" on="0"/>
        <pt x="354" y="358" on="0"/>
        <pt x="354" y="331" on="1"/>
        <pt x="354" y="86" on="1"/>
        <pt x="374" y="105" on="1"/>
      </contour>
    </TTGlyph>
    <TTGlyph name="arGaf.above" xMin="-182" yMin="-59" xMax="182" yMax="114">
      <contour>
        <pt x="-145" y="-59" on="1"/>
        <pt x="-87" y="-23" on="0"/>
        <pt x="150" y="44" on="0"/>
        <pt x="182" y="45" on="1"/>
        <pt x="180" y="114" on="1"/>
        <pt x="133" y="113" on="0"/>
        <pt x="-109" y="45" on="0"/>
        <pt x="-182" y="0" on="1"/>
      </contour>
    </TTGlyph>
    <TTGlyph name="arGaf.fina" xMin="50" yMin="0" xMax="701" yMax="672">
      <contour>
        <pt x="152" y="105" on="1"/>
        <pt x="50" y="105" on="1"/>
        <pt x="137" y="0" on="1"/>
        <pt x="239" y="0" on="1"/>
      </contour>
      <contour>
        <pt x="137" y="0" on="1"/>
        <pt x="599" y="0" on="1"/>
        <pt x="642" y="0" on="0"/>
        <pt x="701" y="61" on="0"/>
        <pt x="701" y="137" on="0"/>
        <pt x="672" y="172" on="1"/>
        <pt x="367" y="483" on="1"/>
        <pt x="366" y="460" on="1"/>
        <pt x="424" y="498" on="0"/>
        <pt x="665" y="567" on="0"/>
        <pt x="696" y="568" on="1"/>
        <pt x="694" y="672" on="1"/>
        <pt x="643" y="671" on="0"/>
        <pt x="400" y="603" on="0"/>
        <pt x="324" y="556" on="1"/>
        <pt x="280" y="529" on="0"/>
        <pt x="280" y="418" on="0"/>
        <pt x="316" y="384" on="1"/>
        <pt x="602" y="92" on="1"/>
        <pt x="610" y="105" on="1"/>
        <pt x="137" y="105" on="1"/>
      </contour>
    </TTGlyph>
    <TTGlyph name="arGaf.isol" xMin="50" yMin="0" xMax="701" yMax="672">
      <contour>
        <pt x="152" y="105" on="1"/>
        <pt x="50" y="105" on="1"/>
        <pt x="137" y="0" on="1"/>
        <pt x="239" y="0" on="1"/>
      </contour>
      <contour>
        <pt x="137" y="0" on="1"/>
        <pt x="599" y="0" on="1"/>
        <pt x="642" y="0" on="0"/>
        <pt x="701" y="61" on="0"/>
        <pt x="701" y="137" on="0"/>
        <pt x="672" y="172" on="1"/>
        <pt x="367" y="483" on="1"/>
        <pt x="366" y="460" on="1"/>
        <pt x="424" y="498" on="0"/>
        <pt x="665" y="567" on="0"/>
        <pt x="696" y="568" on="1"/>
        <pt x="694" y="672" on="1"/>
        <pt x="643" y="671" on="0"/>
        <pt x="400" y="603" on="0"/>
        <pt x="324" y="556" on="1"/>
        <pt x="280" y="529" on="0"/>
        <pt x="280" y="418" on="0"/>
        <pt x="316" y="384" on="1"/>
        <pt x="602" y="92" on="1"/>
        <pt x="610" y="105" on="1"/>
        <pt x="137" y="105" on="1"/>
      </contour>
    </TTGlyph>
    <TTGlyph name="arHah.fina" xMin="50" yMin="-292" xMax="518" yMax="359">
      <contour>
        <pt x="427" y="-185" on="1"/>
        <pt x="186" y="-185" on="1"/>
        <pt x="154" y="-185" on="0"/>
        <pt x="154" y="-158" on="1"/>
        <pt x="154" y="-33" on="1"/>
        <pt x="154" y="-19" on="0"/>
        <pt x="175" y="0" on="0"/>
        <pt x="189" y="0" on="1"/>
        <pt x="439" y="0" on="1"/>
        <pt x="480" y="0" on="0"/>
        <pt x="518" y="57" on="0"/>
        <pt x="518" y="83" on="1"/>
        <pt x="518" y="136" on="1"/>
        <pt x="511" y="136" on="0"/>
        <pt x="484" y="136" on="0"/>
        <pt x="477" y="136" on="0"/>
        <pt x="458" y="137" on="0"/>
        <pt x="453" y="139" on="0"/>
        <pt x="438" y="144" on="0"/>
        <pt x="432" y="150" on="0"/>
        <pt x="418" y="161" on="0"/>
        <pt x="406" y="174" on="0"/>
        <pt x="398" y="183" on="1"/>
        <pt x="395" y="186" on="0"/>
        <pt x="345" y="248" on="0"/>
        <pt x="307" y="287" on="0"/>
        <pt x="228" y="342" on="0"/>
        <pt x="184" y="359" on="1"/>
        <pt x="146" y="261" on="1"/>
        <pt x="179" y="248" on="0"/>
        <pt x="236" y="208" on="0"/>
        <pt x="264" y="180" on="0"/>
        <pt x="312" y="122" on="0"/>
        <pt x="320" y="113" on="1"/>
        <pt x="321" y="112" on="0"/>
        <pt x="326" y="107" on="0"/>
        <pt x="327" y="105" on="1"/>
        <pt x="190" y="105" on="1"/>
        <pt x="128" y="105" on="0"/>
        <pt x="50" y="23" on="0"/>
        <pt x="50" y="-33" on="1"/>
        <pt x="50" y="-158" on="1"/>
        <pt x="50" y="-215" on="0"/>
        <pt x="128" y="-292" on="0"/>
        <pt x="186" y="-291" on="1"/>
        <pt x="427" y="-291" on="1"/>
      </contour>
    </TTGlyph>
    <TTGlyph name="arHah.fina2" xMin="50" yMin="-267" xMax="518" yMax="359">
      <contour>
        <pt x="50" y="-158" on="1"/>
        <pt x="50" y="-206" on="0"/>
        <pt x="107" y="-267" on="0"/>
        <pt x="156" y="-267" on="1"/>
        <pt x="156" y="-33" on="1"/>
        <pt x="156" y="-19" on="0"/>
        <pt x="177" y="0" on="0"/>
        <pt x="191" y="0" on="1"/>
        <pt x="439" y="0" on="1"/>
        <pt x="480" y="0" on="0"/>
        <pt x="518" y="57" on="0"/>
        <pt x="518" y="83" on="1"/>
        <pt x="518" y="136" on="1"/>
        <pt x="511" y="136" on="0"/>
        <pt x="484" y="136" on="0"/>
        <pt x="477" y="136" on="0"/>
        <pt x="458" y="137" on="0"/>
        <pt x="453" y="139" on="0"/>
        <pt x="438" y="144" on="0"/>
        <pt x="432" y="150" on="0"/>
        <pt x="418" y="161" on="0"/>
        <pt x="406" y="174" on="0"/>
        <pt x="398" y="183" on="1"/>
        <pt x="395" y="186" on="0"/>
        <pt x="345" y="248" on="0"/>
        <pt x="307" y="287" on="0"/>
        <pt x="228" y="342" on="0"/>
        <pt x="184" y="359" on="1"/>
        <pt x="146" y="261" on="1"/>
        <pt x="179" y="248" on="0"/>
        <pt x="236" y="208" on="0"/>
        <pt x="264" y="180" on="0"/>
        <pt x="312" y="122" on="0"/>
        <pt x="320" y="113" on="1"/>
        <pt x="322" y="110" on="0"/>
        <pt x="327" y="105" on="1"/>
        <pt x="190" y="105" on="1"/>
        <pt x="128" y="105" on="0"/>
        <pt x="50" y="23" on="0"/>
        <pt x="50" y="-33" on="1"/>
      </contour>
    </TTGlyph>
    <TTGlyph name="arHah.init" xMin="0" yMin="0" xMax="564" yMax="390">
      <contour>
        <pt x="0" y="0" on="1"/>
        <pt x="483" y="0" on="1"/>
        <pt x="525" y="0" on="0"/>
        <pt x="564" y="62" on="0"/>
        <pt x="562" y="95" on="1"/>
        <pt x="559" y="144" on="1"/>
        <pt x="505" y="144" on="0"/>
        <pt x="471" y="154" on="0"/>
        <pt x="434" y="187" on="1"/>
        <pt x="428" y="192" on="0"/>
        <pt x="323" y="295" on="0"/>
        <pt x="288" y="320" on="1"/>
        <pt x="225" y="364" on="0"/>
        <pt x="119" y="390" on="1"/>
        <pt x="95" y="288" on="1"/>
        <pt x="182" y="267" on="0"/>
        <pt x="228" y="234" on="1"/>
        <pt x="244" y="222" on="0"/>
        <pt x="286" y="184" on="0"/>
        <pt x="339" y="131" on="0"/>
        <pt x="353" y="118" on="1"/>
        <pt x="356" y="115" on="0"/>
        <pt x="380" y="94" on="1"/>
        <pt x="388" y="105" on="1"/>
        <pt x="0" y="105" on="1"/>
      </contour>
    </TTGlyph>
    <TTGlyph name="arHah.isol" xMin="50" yMin="-292" xMax="518" yMax="359">
      <contour>
        <pt x="427" y="-185" on="1"/>
        <pt x="186" y="-185" on="1"/>
        <pt x="154" y="-185" on="0"/>
        <pt x="154" y="-158" on="1"/>
        <pt x="154" y="-33" on="1"/>
        <pt x="154" y="-19" on="0"/>
        <pt x="175" y="0" on="0"/>
        <pt x="189" y="0" on="1"/>
        <pt x="439" y="0" on="1"/>
        <pt x="480" y="0" on="0"/>
        <pt x="518" y="57" on="0"/>
        <pt x="518" y="83" on="1"/>
        <pt x="518" y="136" on="1"/>
        <pt x="511" y="136" on="0"/>
        <pt x="484" y="136" on="0"/>
        <pt x="477" y="136" on="0"/>
        <pt x="458" y="137" on="0"/>
        <pt x="453" y="139" on="0"/>
        <pt x="438" y="144" on="0"/>
        <pt x="432" y="150" on="0"/>
        <pt x="418" y="161" on="0"/>
        <pt x="406" y="174" on="0"/>
        <pt x="398" y="183" on="1"/>
        <pt x="395" y="186" on="0"/>
        <pt x="345" y="248" on="0"/>
        <pt x="307" y="287" on="0"/>
        <pt x="228" y="342" on="0"/>
        <pt x="184" y="359" on="1"/>
        <pt x="146" y="261" on="1"/>
        <pt x="179" y="248" on="0"/>
        <pt x="236" y="208" on="0"/>
        <pt x="264" y="180" on="0"/>
        <pt x="312" y="122" on="0"/>
        <pt x="320" y="113" on="1"/>
        <pt x="321" y="112" on="0"/>
        <pt x="326" y="107" on="0"/>
        <pt x="327" y="105" on="1"/>
        <pt x="190" y="105" on="1"/>
        <pt x="128" y="105" on="0"/>
        <pt x="50" y="23" on="0"/>
        <pt x="50" y="-33" on="1"/>
        <pt x="50" y="-158" on="1"/>
        <pt x="50" y="-215" on="0"/>
        <pt x="128" y="-292" on="0"/>
        <pt x="186" y="-291" on="1"/>
        <pt x="427" y="-291" on="1"/>
      </contour>
    </TTGlyph>
    <TTGlyph name="arHah.isol2" xMin="50" yMin="-267" xMax="518" yMax="359">
      <contour>
        <pt x="50" y="-158" on="1"/>
        <pt x="50" y="-206" on="0"/>
        <pt x="107" y="-267" on="0"/>
        <pt x="156" y="-267" on="1"/>
        <pt x="156" y="-33" on="1"/>
        <pt x="156" y="-19" on="0"/>
        <pt x="177" y="0" on="0"/>
        <pt x="191" y="0" on="1"/>
        <pt x="439" y="0" on="1"/>
        <pt x="480" y="0" on="0"/>
        <pt x="518" y="57" on="0"/>
        <pt x="518" y="83" on="1"/>
        <pt x="518" y="136" on="1"/>
        <pt x="511" y="136" on="0"/>
        <pt x="484" y="136" on="0"/>
        <pt x="477" y="136" on="0"/>
        <pt x="458" y="137" on="0"/>
        <pt x="453" y="139" on="0"/>
        <pt x="438" y="144" on="0"/>
        <pt x="432" y="150" on="0"/>
        <pt x="418" y="161" on="0"/>
        <pt x="406" y="174" on="0"/>
        <pt x="398" y="183" on="1"/>
        <pt x="395" y="186" on="0"/>
        <pt x="345" y="248" on="0"/>
        <pt x="307" y="287" on="0"/>
        <pt x="228" y="342" on="0"/>
        <pt x="184" y="359" on="1"/>
        <pt x="146" y="261" on="1"/>
        <pt x="179" y="248" on="0"/>
        <pt x="236" y="208" on="0"/>
        <pt x="264" y="180" on="0"/>
        <pt x="312" y="122" on="0"/>
        <pt x="320" y="113" on="1"/>
        <pt x="322" y="110" on="0"/>
        <pt x="327" y="105" on="1"/>
        <pt x="190" y="105" on="1"/>
        <pt x="128" y="105" on="0"/>
        <pt x="50" y="23" on="0"/>
        <pt x="50" y="-33" on="1"/>
      </contour>
    </TTGlyph>
    <TTGlyph name="arHah.medi" xMin="0" yMin="0" xMax="564" yMax="390">
      <contour>
        <pt x="0" y="0" on="1"/>
        <pt x="483" y="0" on="1"/>
        <pt x="525" y="0" on="0"/>
        <pt x="564" y="62" on="0"/>
        <pt x="562" y="95" on="1"/>
        <pt x="559" y="144" on="1"/>
        <pt x="505" y="144" on="0"/>
        <pt x="471" y="154" on="0"/>
        <pt x="434" y="187" on="1"/>
        <pt x="428" y="192" on="0"/>
        <pt x="323" y="295" on="0"/>
        <pt x="288" y="320" on="1"/>
        <pt x="225" y="364" on="0"/>
        <pt x="119" y="390" on="1"/>
        <pt x="95" y="288" on="1"/>
        <pt x="182" y="267" on="0"/>
        <pt x="228" y="234" on="1"/>
        <pt x="244" y="222" on="0"/>
        <pt x="286" y="184" on="0"/>
        <pt x="339" y="131" on="0"/>
        <pt x="353" y="118" on="1"/>
        <pt x="356" y="115" on="0"/>
        <pt x="380" y="94" on="1"/>
        <pt x="388" y="105" on="1"/>
        <pt x="0" y="105" on="1"/>
      </contour>
    </TTGlyph>
    <TTGlyph name="arHeh.fina" xMin="47" yMin="0" xMax="432" yMax="415">
      <contour>
        <pt x="347" y="374" on="1"/>
        <pt x="324" y="328" on="0"/>
        <pt x="267" y="249" on="0"/>
        <pt x="243" y="221" on="0"/>
        <pt x="164" y="150" on="0"/>
        <pt x="163" y="149" on="1"/>
        <pt x="147" y="129" on="0"/>
        <pt x="163" y="114" on="1"/>
        <pt x="172" y="105" on="0"/>
        <pt x="188" y="105" on="1"/>
        <pt x="348" y="105" on="1"/>
        <pt x="327" y="86" on="1"/>
        <pt x="327" y="364" on="1"/>
        <pt x="432" y="364" on="1"/>
        <pt x="432" y="105" on="1"/>
        <pt x="432" y="60" on="0"/>
        <pt x="372" y="0" on="0"/>
        <pt x="328" y="0" on="1"/>
        <pt x="188" y="0" on="1"/>
        <pt x="132" y="0" on="0"/>
        <pt x="92" y="37" on="1"/>
        <pt x="53" y="72" on="0"/>
        <pt x="47" y="181" on="0"/>
        <pt x="89" y="224" on="1"/>
        <pt x="103" y="238" on="0"/>
        <pt x="155" y="283" on="0"/>
        <pt x="178" y="306" on="0"/>
        <pt x="211" y="345" on="0"/>
        <pt x="235" y="387" on="0"/>
        <pt x="247" y="415" on="1"/>
      </contour>
    </TTGlyph>
    <TTGlyph name="arHeh.fina2" xMin="105" yMin="-81" xMax="390" yMax="105">
      <contour>
        <pt x="210" y="-81" on="1"/>
        <pt x="210" y="21" on="1"/>
        <pt x="209" y="20" on="0"/>
        <pt x="205" y="15" on="0"/>
        <pt x="196" y="6" on="0"/>
        <pt x="194" y="3" on="1"/>
        <pt x="191" y="0" on="1"/>
        <pt x="390" y="0" on="1"/>
        <pt x="390" y="105" on="1"/>
        <pt x="211" y="105" on="1"/>
        <pt x="168" y="105" on="0"/>
        <pt x="105" y="45" on="0"/>
        <pt x="105" y="1" on="1"/>
        <pt x="105" y="-81" on="1"/>
      </contour>
    </TTGlyph>
    <TTGlyph name="arHeh.init" xMin="0" yMin="0" xMax="671" yMax="500">
      <contour>
        <pt x="248" y="396" on="1"/>
        <pt x="331" y="395" on="0"/>
        <pt x="458" y="340" on="0"/>
        <pt x="531" y="251" on="0"/>
        <pt x="565" y="145" on="0"/>
        <pt x="563" y="86" on="1"/>
        <pt x="584" y="105" on="1"/>
        <pt x="0" y="105" on="1"/>
        <pt x="0" y="0" on="1"/>
        <pt x="564" y="0" on="1"/>
        <pt x="608" y="0" on="0"/>
        <pt x="668" y="61" on="0"/>
        <pt x="669" y="105" on="1"/>
        <pt x="671" y="173" on="0"/>
        <pt x="620" y="308" on="0"/>
        <pt x="521" y="425" on="0"/>
        <pt x="354" y="499" on="0"/>
        <pt x="250" y="500" on="1"/>
      </contour>
      <contour>
        <pt x="323" y="1" on="1"/>
        <pt x="379" y="2" on="0"/>
        <pt x="469" y="76" on="0"/>
        <pt x="468" y="140" on="1"/>
        <pt x="467" y="188" on="0"/>
        <pt x="434" y="239" on="1"/>
        <pt x="387" y="312" on="0"/>
        <pt x="239" y="359" on="0"/>
        <pt x="180" y="320" on="1"/>
        <pt x="120" y="281" on="0"/>
        <pt x="120" y="200" on="1"/>
        <pt x="120" y="103" on="1"/>
        <pt x="224" y="103" on="1"/>
        <pt x="224" y="200" on="1"/>
        <pt x="224" y="222" on="0"/>
        <pt x="238" y="232" on="1"/>
        <pt x="244" y="236" on="0"/>
        <pt x="267" y="238" on="0"/>
        <pt x="296" y="231" on="0"/>
        <pt x="331" y="203" on="0"/>
        <pt x="346" y="181" on="1"/>
        <pt x="363" y="155" on="0"/>
        <pt x="363" y="138" on="1"/>
        <pt x="363" y="125" on="0"/>
        <pt x="341" y="105" on="0"/>
        <pt x="321" y="105" on="1"/>
      </contour>
    </TTGlyph>
    <TTGlyph name="arHeh.init2" xMin="0" yMin="-241" xMax="332" yMax="256">
      <contour>
        <pt x="284" y="-141" on="1"/>
        <pt x="246" y="-165" on="0"/>
        <pt x="211" y="-121" on="0"/>
        <pt x="218" y="-86" on="1"/>
        <pt x="226" y="-46" on="0"/>
        <pt x="254" y="0" on="0"/>
        <pt x="284" y="29" on="1"/>
        <pt x="236" y="67" on="1"/>
        <pt x="186" y="14" on="0"/>
        <pt x="145" y="-57" on="0"/>
        <pt x="134" y="-116" on="1"/>
        <pt x="121" y="-187" on="0"/>
        <pt x="167" y="-223" on="1"/>
        <pt x="184" y="-236" on="0"/>
        <pt x="234" y="-241" on="0"/>
        <pt x="301" y="-211" on="0"/>
        <pt x="332" y="-177" on="1"/>
      </contour>
      <contour>
        <pt x="210" y="256" on="1"/>
        <pt x="210" y="84" on="1"/>
        <pt x="211" y="85" on="0"/>
        <pt x="215" y="90" on="0"/>
        <pt x="224" y="99" on="0"/>
        <pt x="226" y="102" on="1"/>
        <pt x="229" y="105" on="1"/>
        <pt x="0" y="105" on="1"/>
        <pt x="0" y="0" on="1"/>
        <pt x="209" y="0" on="1"/>
        <pt x="252" y="0" on="0"/>
        <pt x="315" y="60" on="0"/>
        <pt x="315" y="104" on="1"/>
        <pt x="315" y="256" on="1"/>
      </contour>
    </TTGlyph>
    <TTGlyph name="arHeh.isol" xMin="47" yMin="0" xMax="432" yMax="415">
      <contour>
        <pt x="347" y="374" on="1"/>
        <pt x="324" y="328" on="0"/>
        <pt x="267" y="249" on="0"/>
        <pt x="243" y="221" on="0"/>
        <pt x="164" y="150" on="0"/>
        <pt x="163" y="149" on="1"/>
        <pt x="147" y="129" on="0"/>
        <pt x="163" y="114" on="1"/>
        <pt x="172" y="105" on="0"/>
        <pt x="188" y="105" on="1"/>
        <pt x="348" y="105" on="1"/>
        <pt x="327" y="86" on="1"/>
        <pt x="327" y="364" on="1"/>
        <pt x="432" y="364" on="1"/>
        <pt x="432" y="105" on="1"/>
        <pt x="432" y="60" on="0"/>
        <pt x="372" y="0" on="0"/>
        <pt x="328" y="0" on="1"/>
        <pt x="188" y="0" on="1"/>
        <pt x="132" y="0" on="0"/>
        <pt x="92" y="37" on="1"/>
        <pt x="53" y="72" on="0"/>
        <pt x="47" y="181" on="0"/>
        <pt x="89" y="224" on="1"/>
        <pt x="103" y="238" on="0"/>
        <pt x="155" y="283" on="0"/>
        <pt x="178" y="306" on="0"/>
        <pt x="211" y="345" on="0"/>
        <pt x="235" y="387" on="0"/>
        <pt x="247" y="415" on="1"/>
      </contour>
    </TTGlyph>
    <TTGlyph name="arHeh.medi" xMin="0" yMin="0" xMax="671" yMax="500">
      <contour>
        <pt x="248" y="396" on="1"/>
        <pt x="331" y="395" on="0"/>
        <pt x="458" y="340" on="0"/>
        <pt x="531" y="251" on="0"/>
        <pt x="565" y="145" on="0"/>
        <pt x="563" y="86" on="1"/>
        <pt x="584" y="105" on="1"/>
        <pt x="0" y="105" on="1"/>
        <pt x="0" y="0" on="1"/>
        <pt x="564" y="0" on="1"/>
        <pt x="608" y="0" on="0"/>
        <pt x="668" y="61" on="0"/>
        <pt x="669" y="105" on="1"/>
        <pt x="671" y="173" on="0"/>
        <pt x="620" y="308" on="0"/>
        <pt x="521" y="425" on="0"/>
        <pt x="354" y="499" on="0"/>
        <pt x="250" y="500" on="1"/>
      </contour>
      <contour>
        <pt x="323" y="1" on="1"/>
        <pt x="379" y="2" on="0"/>
        <pt x="469" y="76" on="0"/>
        <pt x="468" y="140" on="1"/>
        <pt x="467" y="188" on="0"/>
        <pt x="434" y="239" on="1"/>
        <pt x="387" y="312" on="0"/>
        <pt x="239" y="359" on="0"/>
        <pt x="180" y="320" on="1"/>
        <pt x="120" y="281" on="0"/>
        <pt x="120" y="200" on="1"/>
        <pt x="120" y="103" on="1"/>
        <pt x="224" y="103" on="1"/>
        <pt x="224" y="200" on="1"/>
        <pt x="224" y="222" on="0"/>
        <pt x="238" y="232" on="1"/>
        <pt x="244" y="236" on="0"/>
        <pt x="267" y="238" on="0"/>
        <pt x="296" y="231" on="0"/>
        <pt x="331" y="203" on="0"/>
        <pt x="346" y="181" on="1"/>
        <pt x="363" y="155" on="0"/>
        <pt x="363" y="138" on="1"/>
        <pt x="363" y="125" on="0"/>
        <pt x="341" y="105" on="0"/>
        <pt x="321" y="105" on="1"/>
      </contour>
    </TTGlyph>
    <TTGlyph name="arHeh.medi2" xMin="0" yMin="-272" xMax="609" yMax="105">
      <contour>
        <pt x="449" y="-271" on="1"/>
        <pt x="449" y="21" on="1"/>
        <pt x="448" y="20" on="0"/>
        <pt x="444" y="15" on="0"/>
        <pt x="435" y="6" on="0"/>
        <pt x="432" y="3" on="1"/>
        <pt x="430" y="0" on="1"/>
        <pt x="609" y="0" on="1"/>
        <pt x="609" y="105" on="1"/>
        <pt x="450" y="105" on="1"/>
        <pt x="407" y="105" on="0"/>
        <pt x="344" y="45" on="0"/>
        <pt x="344" y="1" on="1"/>
        <pt x="344" y="-271" on="1"/>
      </contour>
      <contour>
        <pt x="355" y="-252" on="1"/>
        <pt x="347" y="-211" on="0"/>
        <pt x="317" y="-145" on="0"/>
        <pt x="291" y="-112" on="0"/>
        <pt x="258" y="-74" on="0"/>
        <pt x="252" y="-64" on="1"/>
        <pt x="248" y="-58" on="0"/>
        <pt x="237" y="2" on="0"/>
        <pt x="222" y="58" on="0"/>
        <pt x="175" y="105" on="0"/>
        <pt x="138" y="105" on="1"/>
        <pt x="0" y="105" on="1"/>
        <pt x="0" y="0" on="1"/>
        <pt x="125" y="0" on="1"/>
        <pt x="126" y="-4" on="0"/>
        <pt x="134" y="-51" on="0"/>
        <pt x="149" y="-99" on="0"/>
        <pt x="162" y="-120" on="1"/>
        <pt x="180" y="-148" on="0"/>
        <pt x="222" y="-194" on="0"/>
        <pt x="243" y="-232" on="0"/>
        <pt x="251" y="-272" on="1"/>
      </contour>
    </TTGlyph>
    <TTGlyph name="arKaf.above" xMin="-96" yMin="0" xMax="96" yMax="181">
      <contour>
        <pt x="96" y="181" on="1"/>
        <pt x="-4" y="181" on="1"/>
        <pt x="-36" y="181" on="0"/>
        <pt x="-49" y="160" on="1"/>
        <pt x="-55" y="149" on="0"/>
        <pt x="-53" y="129" on="0"/>
        <pt x="-50" y="122" on="1"/>
        <pt x="-46" y="114" on="1"/>
        <pt x="-25" y="70" on="1"/>
        <pt x="-96" y="70" on="1"/>
        <pt x="-96" y="0" on="1"/>
        <pt x="14" y="0" on="1"/>
        <pt x="43" y="0" on="0"/>
        <pt x="56" y="18" on="1"/>
        <pt x="68" y="33" on="0"/>
        <pt x="54" y="66" on="1"/>
        <pt x="33" y="111" on="1"/>
        <pt x="96" y="111" on="1"/>
      </contour>
    </TTGlyph>
    <TTGlyph name="arKaf.fina" xMin="50" yMin="0" xMax="565" yMax="624">
      <contour>
        <pt x="460" y="624" on="1"/>
        <pt x="460" y="84" on="1"/>
        <pt x="461" y="85" on="0"/>
        <pt x="465" y="90" on="0"/>
        <pt x="474" y="99" on="0"/>
        <pt x="476" y="102" on="1"/>
        <pt x="479" y="105" on="1"/>
        <pt x="137" y="105" on="1"/>
        <pt x="137" y="0" on="1"/>
        <pt x="459" y="0" on="1"/>
        <pt x="502" y="0" on="0"/>
        <pt x="565" y="60" on="0"/>
        <pt x="565" y="104" on="1"/>
        <pt x="565" y="624" on="1"/>
      </contour>
      <contour>
        <pt x="152" y="105" on="1"/>
        <pt x="50" y="105" on="1"/>
        <pt x="137" y="0" on="1"/>
        <pt x="239" y="0" on="1"/>
      </contour>
    </TTGlyph>
    <TTGlyph name="arKaf.init" xMin="0" yMin="0" xMax="564" yMax="672">
      <contour>
        <pt x="0" y="0" on="1"/>
        <pt x="462" y="0" on="1"/>
        <pt x="505" y="0" on="0"/>
        <pt x="564" y="61" on="0"/>
        <pt x="564" y="137" on="0"/>
        <pt x="535" y="172" on="1"/>
        <pt x="230" y="483" on="1"/>
        <pt x="229" y="460" on="1"/>
        <pt x="287" y="498" on="0"/>
        <pt x="528" y="567" on="0"/>
        <pt x="559" y="568" on="1"/>
        <pt x="557" y="672" on="1"/>
        <pt x="506" y="671" on="0"/>
        <pt x="263" y="603" on="0"/>
        <pt x="187" y="556" on="1"/>
        <pt x="143" y="529" on="0"/>
        <pt x="143" y="418" on="0"/>
        <pt x="179" y="384" on="1"/>
        <pt x="465" y="92" on="1"/>
        <pt x="473" y="105" on="1"/>
        <pt x="0" y="105" on="1"/>
      </contour>
    </TTGlyph>
    <TTGlyph name="arKaf.isol" xMin="50" yMin="0" xMax="565" yMax="624">
      <contour>
        <pt x="460" y="624" on="1"/>
        <pt x="460" y="84" on="1"/>
        <pt x="461" y="85" on="0"/>
        <pt x="465" y="90" on="0"/>
        <pt x="474" y="99" on="0"/>
        <pt x="476" y="102" on="1"/>
        <pt x="479" y="105" on="1"/>
        <pt x="137" y="105" on="1"/>
        <pt x="137" y="0" on="1"/>
        <pt x="459" y="0" on="1"/>
        <pt x="502" y="0" on="0"/>
        <pt x="565" y="60" on="0"/>
        <pt x="565" y="104" on="1"/>
        <pt x="565" y="624" on="1"/>
      </contour>
      <contour>
        <pt x="152" y="105" on="1"/>
        <pt x="50" y="105" on="1"/>
        <pt x="137" y="0" on="1"/>
        <pt x="239" y="0" on="1"/>
      </contour>
    </TTGlyph>
    <TTGlyph name="arKaf.medi" xMin="0" yMin="0" xMax="564" yMax="672">
      <contour>
        <pt x="0" y="0" on="1"/>
        <pt x="462" y="0" on="1"/>
        <pt x="505" y="0" on="0"/>
        <pt x="564" y="61" on="0"/>
        <pt x="564" y="137" on="0"/>
        <pt x="535" y="172" on="1"/>
        <pt x="230" y="483" on="1"/>
        <pt x="229" y="460" on="1"/>
        <pt x="287" y="498" on="0"/>
        <pt x="528" y="567" on="0"/>
        <pt x="559" y="568" on="1"/>
        <pt x="557" y="672" on="1"/>
        <pt x="506" y="671" on="0"/>
        <pt x="263" y="603" on="0"/>
        <pt x="187" y="556" on="1"/>
        <pt x="143" y="529" on="0"/>
        <pt x="143" y="418" on="0"/>
        <pt x="179" y="384" on="1"/>
        <pt x="465" y="92" on="1"/>
        <pt x="473" y="105" on="1"/>
        <pt x="0" y="105" on="1"/>
      </contour>
    </TTGlyph>
    <TTGlyph name="arLam.fina" xMin="50" yMin="-148" xMax="523" yMax="624">
      <contour>
        <pt x="418" y="624" on="1"/>
        <pt x="418" y="-64" on="1"/>
        <pt x="439" y="-44" on="1"/>
        <pt x="135" y="-44" on="1"/>
        <pt x="155" y="-64" on="1"/>
        <pt x="155" y="146" on="1"/>
        <pt x="50" y="146" on="1"/>
        <pt x="50" y="-43" on="1"/>
        <pt x="50" y="-88" on="0"/>
        <pt x="113" y="-148" on="0"/>
        <pt x="157" y="-148" on="1"/>
        <pt x="417" y="-148" on="1"/>
        <pt x="462" y="-148" on="0"/>
        <pt x="523" y="-84" on="0"/>
        <pt x="523" y="-42" on="1"/>
        <pt x="523" y="624" on="1"/>
      </contour>
    </TTGlyph>
    <TTGlyph name="arLam.init" xMin="0" yMin="0" xMax="242" yMax="624">
      <contour>
        <pt x="137" y="624" on="1"/>
        <pt x="137" y="84" on="1"/>
        <pt x="138" y="85" on="0"/>
        <pt x="142" y="90" on="0"/>
        <pt x="151" y="99" on="0"/>
        <pt x="154" y="102" on="1"/>
        <pt x="156" y="105" on="1"/>
        <pt x="0" y="105" on="1"/>
        <pt x="0" y="0" on="1"/>
        <pt x="136" y="0" on="1"/>
        <pt x="179" y="0" on="0"/>
        <pt x="242" y="60" on="0"/>
        <pt x="242" y="104" on="1"/>
        <pt x="242" y="624" on="1"/>
      </contour>
    </TTGlyph>
    <TTGlyph name="arLam.init.1" xMin="50" yMin="0" xMax="388" yMax="624">
      <contour>
        <pt x="283" y="624" on="1"/>
        <pt x="283" y="84" on="1"/>
        <pt x="284" y="85" on="0"/>
        <pt x="288" y="90" on="0"/>
        <pt x="297" y="99" on="0"/>
        <pt x="300" y="102" on="1"/>
        <pt x="302" y="105" on="1"/>
        <pt x="50" y="105" on="1"/>
        <pt x="50" y="0" on="1"/>
        <pt x="282" y="0" on="1"/>
        <pt x="325" y="0" on="0"/>
        <pt x="388" y="60" on="0"/>
        <pt x="388" y="104" on="1"/>
        <pt x="388" y="624" on="1"/>
      </contour>
    </TTGlyph>
    <TTGlyph name="arLam.isol" xMin="50" yMin="-148" xMax="523" yMax="624">
      <contour>
        <pt x="418" y="624" on="1"/>
        <pt x="418" y="-64" on="1"/>
        <pt x="439" y="-44" on="1"/>
        <pt x="135" y="-44" on="1"/>
        <pt x="155" y="-64" on="1"/>
        <pt x="155" y="146" on="1"/>
        <pt x="50" y="146" on="1"/>
        <pt x="50" y="-43" on="1"/>
        <pt x="50" y="-88" on="0"/>
        <pt x="113" y="-148" on="0"/>
        <pt x="157" y="-148" on="1"/>
        <pt x="417" y="-148" on="1"/>
        <pt x="462" y="-148" on="0"/>
        <pt x="523" y="-84" on="0"/>
        <pt x="523" y="-42" on="1"/>
        <pt x="523" y="624" on="1"/>
      </contour>
    </TTGlyph>
    <TTGlyph name="arLam.medi" xMin="0" yMin="0" xMax="242" yMax="624">
      <contour>
        <pt x="137" y="624" on="1"/>
        <pt x="137" y="84" on="1"/>
        <pt x="138" y="85" on="0"/>
        <pt x="142" y="90" on="0"/>
        <pt x="151" y="99" on="0"/>
        <pt x="154" y="102" on="1"/>
        <pt x="156" y="105" on="1"/>
        <pt x="0" y="105" on="1"/>
        <pt x="0" y="0" on="1"/>
        <pt x="136" y="0" on="1"/>
        <pt x="179" y="0" on="0"/>
        <pt x="242" y="60" on="0"/>
        <pt x="242" y="104" on="1"/>
        <pt x="242" y="624" on="1"/>
      </contour>
    </TTGlyph>
    <TTGlyph name="arLam.medi.1" xMin="50" yMin="0" xMax="388" yMax="624">
      <contour>
        <pt x="283" y="624" on="1"/>
        <pt x="283" y="84" on="1"/>
        <pt x="284" y="85" on="0"/>
        <pt x="288" y="90" on="0"/>
        <pt x="297" y="99" on="0"/>
        <pt x="300" y="102" on="1"/>
        <pt x="302" y="105" on="1"/>
        <pt x="50" y="105" on="1"/>
        <pt x="50" y="0" on="1"/>
        <pt x="282" y="0" on="1"/>
        <pt x="325" y="0" on="0"/>
        <pt x="388" y="60" on="0"/>
        <pt x="388" y="104" on="1"/>
        <pt x="388" y="624" on="1"/>
      </contour>
    </TTGlyph>
    <TTGlyph name="arMeem.fina" xMin="50" yMin="0" xMax="624" yMax="395">
      <contour>
        <pt x="152" y="105" on="1"/>
        <pt x="239" y="0" on="1"/>
        <pt x="137" y="0" on="1"/>
        <pt x="50" y="105" on="1"/>
      </contour>
      <contour>
        <pt x="252" y="84" on="1"/>
        <pt x="252" y="238" on="1"/>
        <pt x="252" y="305" on="0"/>
        <pt x="297" y="348" on="1"/>
        <pt x="345" y="395" on="0"/>
        <pt x="488" y="389" on="0"/>
        <pt x="537" y="337" on="1"/>
        <pt x="624" y="245" on="0"/>
        <pt x="624" y="163" on="1"/>
        <pt x="624" y="108" on="0"/>
        <pt x="557" y="31" on="0"/>
        <pt x="467" y="0" on="0"/>
        <pt x="417" y="0" on="1"/>
        <pt x="352" y="0" on="1"/>
        <pt x="352" y="105" on="1"/>
        <pt x="417" y="105" on="1"/>
        <pt x="468" y="105" on="0"/>
        <pt x="519" y="140" on="0"/>
        <pt x="519" y="162" on="1"/>
        <pt x="519" y="205" on="0"/>
        <pt x="461" y="265" on="1"/>
        <pt x="441" y="286" on="0"/>
        <pt x="383" y="288" on="0"/>
        <pt x="370" y="273" on="1"/>
        <pt x="357" y="260" on="0"/>
        <pt x="357" y="238" on="1"/>
        <pt x="357" y="104" on="1"/>
        <pt x="357" y="60" on="0"/>
        <pt x="294" y="0" on="0"/>
        <pt x="251" y="0" on="1"/>
        <pt x="152" y="0" on="1"/>
        <pt x="152" y="105" on="1"/>
        <pt x="271" y="105" on="1"/>
        <pt x="266" y="100" on="1"/>
        <pt x="262" y="94" on="0"/>
        <pt x="257" y="89" on="1"/>
      </contour>
    </TTGlyph>
    <TTGlyph name="arMeem.init" xMin="0" yMin="0" xMax="472" yMax="395">
      <contour>
        <pt x="100" y="84" on="1"/>
        <pt x="100" y="238" on="1"/>
        <pt x="100" y="305" on="0"/>
        <pt x="145" y="348" on="1"/>
        <pt x="193" y="395" on="0"/>
        <pt x="336" y="389" on="0"/>
        <pt x="385" y="337" on="1"/>
        <pt x="472" y="245" on="0"/>
        <pt x="472" y="163" on="1"/>
        <pt x="472" y="108" on="0"/>
        <pt x="405" y="31" on="0"/>
        <pt x="315" y="0" on="0"/>
        <pt x="265" y="0" on="1"/>
        <pt x="200" y="0" on="1"/>
        <pt x="200" y="105" on="1"/>
        <pt x="265" y="105" on="1"/>
        <pt x="316" y="105" on="0"/>
        <pt x="367" y="140" on="0"/>
        <pt x="367" y="162" on="1"/>
        <pt x="367" y="205" on="0"/>
        <pt x="309" y="265" on="1"/>
        <pt x="289" y="286" on="0"/>
        <pt x="231" y="288" on="0"/>
        <pt x="218" y="273" on="1"/>
        <pt x="205" y="260" on="0"/>
        <pt x="205" y="238" on="1"/>
        <pt x="205" y="104" on="1"/>
        <pt x="205" y="60" on="0"/>
        <pt x="142" y="0" on="0"/>
        <pt x="99" y="0" on="1"/>
        <pt x="0" y="0" on="1"/>
        <pt x="0" y="105" on="1"/>
        <pt x="119" y="105" on="1"/>
        <pt x="114" y="100" on="1"/>
        <pt x="110" y="94" on="0"/>
        <pt x="105" y="89" on="1"/>
      </contour>
    </TTGlyph>
    <TTGlyph name="arMeem.isol" xMin="50" yMin="0" xMax="624" yMax="395">
      <contour>
        <pt x="152" y="105" on="1"/>
        <pt x="239" y="0" on="1"/>
        <pt x="137" y="0" on="1"/>
        <pt x="50" y="105" on="1"/>
      </contour>
      <contour>
        <pt x="252" y="84" on="1"/>
        <pt x="252" y="238" on="1"/>
        <pt x="252" y="305" on="0"/>
        <pt x="297" y="348" on="1"/>
        <pt x="345" y="395" on="0"/>
        <pt x="488" y="389" on="0"/>
        <pt x="537" y="337" on="1"/>
        <pt x="624" y="245" on="0"/>
        <pt x="624" y="163" on="1"/>
        <pt x="624" y="108" on="0"/>
        <pt x="557" y="31" on="0"/>
        <pt x="467" y="0" on="0"/>
        <pt x="417" y="0" on="1"/>
        <pt x="352" y="0" on="1"/>
        <pt x="352" y="105" on="1"/>
        <pt x="417" y="105" on="1"/>
        <pt x="468" y="105" on="0"/>
        <pt x="519" y="140" on="0"/>
        <pt x="519" y="162" on="1"/>
        <pt x="519" y="205" on="0"/>
        <pt x="461" y="265" on="1"/>
        <pt x="441" y="286" on="0"/>
        <pt x="383" y="288" on="0"/>
        <pt x="370" y="273" on="1"/>
        <pt x="357" y="260" on="0"/>
        <pt x="357" y="238" on="1"/>
        <pt x="357" y="104" on="1"/>
        <pt x="357" y="60" on="0"/>
        <pt x="294" y="0" on="0"/>
        <pt x="251" y="0" on="1"/>
        <pt x="152" y="0" on="1"/>
        <pt x="152" y="105" on="1"/>
        <pt x="271" y="105" on="1"/>
        <pt x="266" y="100" on="1"/>
        <pt x="262" y="94" on="0"/>
        <pt x="257" y="89" on="1"/>
      </contour>
    </TTGlyph>
    <TTGlyph name="arMeem.medi" xMin="0" yMin="0" xMax="472" yMax="395">
      <contour>
        <pt x="100" y="84" on="1"/>
        <pt x="100" y="238" on="1"/>
        <pt x="100" y="305" on="0"/>
        <pt x="145" y="348" on="1"/>
        <pt x="193" y="395" on="0"/>
        <pt x="336" y="389" on="0"/>
        <pt x="385" y="337" on="1"/>
        <pt x="472" y="245" on="0"/>
        <pt x="472" y="163" on="1"/>
        <pt x="472" y="108" on="0"/>
        <pt x="405" y="31" on="0"/>
        <pt x="315" y="0" on="0"/>
        <pt x="265" y="0" on="1"/>
        <pt x="200" y="0" on="1"/>
        <pt x="200" y="105" on="1"/>
        <pt x="265" y="105" on="1"/>
        <pt x="316" y="105" on="0"/>
        <pt x="367" y="140" on="0"/>
        <pt x="367" y="162" on="1"/>
        <pt x="367" y="205" on="0"/>
        <pt x="309" y="265" on="1"/>
        <pt x="289" y="286" on="0"/>
        <pt x="231" y="288" on="0"/>
        <pt x="218" y="273" on="1"/>
        <pt x="205" y="260" on="0"/>
        <pt x="205" y="238" on="1"/>
        <pt x="205" y="104" on="1"/>
        <pt x="205" y="60" on="0"/>
        <pt x="142" y="0" on="0"/>
        <pt x="99" y="0" on="1"/>
        <pt x="0" y="0" on="1"/>
        <pt x="0" y="105" on="1"/>
        <pt x="119" y="105" on="1"/>
        <pt x="114" y="100" on="1"/>
        <pt x="110" y="94" on="0"/>
        <pt x="105" y="89" on="1"/>
      </contour>
    </TTGlyph>
    <TTGlyph name="arNoon.fina" xMin="50" yMin="-188" xMax="640" yMax="188">
      <contour>
        <pt x="640" y="105" on="1"/>
        <pt x="499" y="105" on="1"/>
        <pt x="499" y="0" on="1"/>
        <pt x="640" y="0" on="1"/>
      </contour>
      <contour>
        <pt x="414" y="188" on="1"/>
        <pt x="414" y="-102" on="1"/>
        <pt x="434" y="-82" on="1"/>
        <pt x="277" y="-82" on="1"/>
        <pt x="214" y="-82" on="0"/>
        <pt x="155" y="-29" on="0"/>
        <pt x="155" y="-3" on="1"/>
        <pt x="155" y="187" on="1"/>
        <pt x="50" y="187" on="1"/>
        <pt x="50" y="-3" on="1"/>
        <pt x="50" y="-87" on="0"/>
        <pt x="179" y="-188" on="0"/>
        <pt x="277" y="-188" on="1"/>
        <pt x="415" y="-188" on="1"/>
        <pt x="459" y="-188" on="0"/>
        <pt x="519" y="-126" on="0"/>
        <pt x="519" y="-83" on="1"/>
        <pt x="519" y="188" on="1"/>
      </contour>
    </TTGlyph>
    <TTGlyph name="arNoon.isol" xMin="50" yMin="-188" xMax="519" yMax="188">
      <contour>
        <pt x="414" y="188" on="1"/>
        <pt x="414" y="-102" on="1"/>
        <pt x="434" y="-82" on="1"/>
        <pt x="277" y="-82" on="1"/>
        <pt x="214" y="-82" on="0"/>
        <pt x="155" y="-29" on="0"/>
        <pt x="155" y="-3" on="1"/>
        <pt x="155" y="187" on="1"/>
        <pt x="50" y="187" on="1"/>
        <pt x="50" y="-3" on="1"/>
        <pt x="50" y="-87" on="0"/>
        <pt x="179" y="-188" on="0"/>
        <pt x="277" y="-188" on="1"/>
        <pt x="415" y="-188" on="1"/>
        <pt x="459" y="-188" on="0"/>
        <pt x="519" y="-126" on="0"/>
        <pt x="519" y="-83" on="1"/>
        <pt x="519" y="188" on="1"/>
      </contour>
    </TTGlyph>
    <TTGlyph name="arQaf.fina" xMin="50" yMin="-200" xMax="825" yMax="377">
      <contour>
        <pt x="825" y="105" on="1"/>
        <pt x="626" y="105" on="1"/>
        <pt x="614" y="105" on="0"/>
        <pt x="574" y="105" on="0"/>
        <pt x="558" y="105" on="0"/>
        <pt x="530" y="106" on="0"/>
        <pt x="519" y="107" on="0"/>
        <pt x="499" y="111" on="0"/>
        <pt x="491" y="117" on="0"/>
        <pt x="478" y="125" on="0"/>
        <pt x="470" y="136" on="0"/>
        <pt x="465" y="144" on="1"/>
        <pt x="450" y="172" on="0"/>
        <pt x="469" y="239" on="0"/>
        <pt x="492" y="254" on="1"/>
        <pt x="539" y="283" on="0"/>
        <pt x="587" y="256" on="1"/>
        <pt x="626" y="234" on="0"/>
        <pt x="626" y="191" on="1"/>
        <pt x="626" y="-114" on="1"/>
        <pt x="645" y="-94" on="1"/>
        <pt x="201" y="-94" on="1"/>
        <pt x="154" y="-94" on="0"/>
        <pt x="154" y="-53" on="1"/>
        <pt x="154" y="189" on="1"/>
        <pt x="50" y="189" on="1"/>
        <pt x="50" y="-53" on="1"/>
        <pt x="50" y="-118" on="0"/>
        <pt x="138" y="-200" on="0"/>
        <pt x="201" y="-200" on="1"/>
        <pt x="623" y="-200" on="1"/>
        <pt x="669" y="-200" on="0"/>
        <pt x="730" y="-136" on="0"/>
        <pt x="730" y="-93" on="1"/>
        <pt x="730" y="191" on="1"/>
        <pt x="730" y="247" on="0"/>
        <pt x="704" y="290" on="1"/>
        <pt x="675" y="336" on="0"/>
        <pt x="576" y="377" on="0"/>
        <pt x="475" y="367" on="0"/>
        <pt x="436" y="342" on="1"/>
        <pt x="400" y="319" on="0"/>
        <pt x="353" y="237" on="0"/>
        <pt x="346" y="139" on="0"/>
        <pt x="375" y="90" on="1"/>
        <pt x="386" y="71" on="0"/>
        <pt x="415" y="42" on="0"/>
        <pt x="441" y="22" on="0"/>
        <pt x="480" y="9" on="0"/>
        <pt x="505" y="3" on="0"/>
        <pt x="549" y="0" on="0"/>
        <pt x="570" y="-1" on="0"/>
        <pt x="618" y="0" on="0"/>
        <pt x="626" y="0" on="1"/>
        <pt x="825" y="0" on="1"/>
      </contour>
    </TTGlyph>
    <TTGlyph name="arQaf.isol" xMin="50" yMin="-200" xMax="731" yMax="377">
      <contour>
        <pt x="679" y="20" on="1"/>
        <pt x="679" y="96" on="1"/>
        <pt x="601" y="90" on="0"/>
        <pt x="512" y="100" on="0"/>
        <pt x="480" y="119" on="0"/>
        <pt x="465" y="144" on="1"/>
        <pt x="450" y="172" on="0"/>
        <pt x="470" y="239" on="0"/>
        <pt x="493" y="254" on="1"/>
        <pt x="527" y="275" on="0"/>
        <pt x="567" y="265" on="1"/>
        <pt x="593" y="258" on="0"/>
        <pt x="626" y="218" on="0"/>
        <pt x="626" y="191" on="1"/>
        <pt x="626" y="-114" on="1"/>
        <pt x="645" y="-94" on="1"/>
        <pt x="201" y="-94" on="1"/>
        <pt x="155" y="-94" on="0"/>
        <pt x="155" y="-53" on="1"/>
        <pt x="155" y="189" on="1"/>
        <pt x="50" y="189" on="1"/>
        <pt x="50" y="-53" on="1"/>
        <pt x="50" y="-118" on="0"/>
        <pt x="138" y="-200" on="0"/>
        <pt x="201" y="-200" on="1"/>
        <pt x="623" y="-200" on="1"/>
        <pt x="669" y="-200" on="0"/>
        <pt x="731" y="-136" on="0"/>
        <pt x="731" y="-93" on="1"/>
        <pt x="731" y="191" on="1"/>
        <pt x="731" y="246" on="0"/>
        <pt x="704" y="290" on="1"/>
        <pt x="675" y="336" on="0"/>
        <pt x="576" y="377" on="0"/>
        <pt x="475" y="367" on="0"/>
        <pt x="436" y="342" on="1"/>
        <pt x="379" y="305" on="0"/>
        <pt x="337" y="165" on="0"/>
        <pt x="376" y="90" on="1"/>
        <pt x="391" y="65" on="0"/>
        <pt x="436" y="32" on="0"/>
        <pt x="479" y="17" on="0"/>
        <pt x="544" y="12" on="0"/>
        <pt x="587" y="14" on="0"/>
        <pt x="662" y="19" on="0"/>
      </contour>
    </TTGlyph>
    <TTGlyph name="arReh.fina" xMin="0" yMin="-200" xMax="416" yMax="187">
      <contour>
        <pt x="416" y="105" on="1"/>
        <pt x="271" y="105" on="1"/>
        <pt x="271" y="0" on="1"/>
        <pt x="416" y="0" on="1"/>
      </contour>
      <contour>
        <pt x="188" y="187" on="1"/>
        <pt x="188" y="-1" on="1"/>
        <pt x="188" y="-43" on="0"/>
        <pt x="140" y="-96" on="0"/>
        <pt x="102" y="-96" on="1"/>
        <pt x="0" y="-96" on="1"/>
        <pt x="0" y="-200" on="1"/>
        <pt x="102" y="-200" on="1"/>
        <pt x="185" y="-200" on="0"/>
        <pt x="294" y="-83" on="0"/>
        <pt x="294" y="-1" on="1"/>
        <pt x="294" y="187" on="1"/>
      </contour>
    </TTGlyph>
    <TTGlyph name="arReh.isol" xMin="0" yMin="-200" xMax="294" yMax="187">
      <contour>
        <pt x="188" y="187" on="1"/>
        <pt x="188" y="-1" on="1"/>
        <pt x="188" y="-43" on="0"/>
        <pt x="140" y="-96" on="0"/>
        <pt x="102" y="-96" on="1"/>
        <pt x="0" y="-96" on="1"/>
        <pt x="0" y="-200" on="1"/>
        <pt x="102" y="-200" on="1"/>
        <pt x="185" y="-200" on="0"/>
        <pt x="294" y="-83" on="0"/>
        <pt x="294" y="-1" on="1"/>
        <pt x="294" y="187" on="1"/>
      </contour>
    </TTGlyph>
    <TTGlyph name="arSad.above" xMin="-149" yMin="0" xMax="151" yMax="190">
      <contour>
        <pt x="-100" y="47" on="1"/>
        <pt x="-52" y="22" on="1"/>
        <pt x="33" y="149" on="0"/>
        <pt x="74" y="135" on="1"/>
        <pt x="96" y="124" on="0"/>
        <pt x="96" y="85" on="1"/>
        <pt x="96" y="42" on="1"/>
        <pt x="108" y="52" on="1"/>
        <pt x="-104" y="52" on="1"/>
        <pt x="-104" y="0" on="1"/>
        <pt x="97" y="0" on="1"/>
        <pt x="119" y="0" on="0"/>
        <pt x="151" y="31" on="0"/>
        <pt x="150" y="53" on="1"/>
        <pt x="149" y="86" on="1"/>
        <pt x="147" y="162" on="0"/>
        <pt x="94" y="184" on="1"/>
        <pt x="78" y="190" on="0"/>
        <pt x="47" y="189" on="0"/>
        <pt x="22" y="182" on="0"/>
        <pt x="-9" y="160" on="0"/>
        <pt x="-27" y="144" on="0"/>
        <pt x="-56" y="108" on="0"/>
        <pt x="-68" y="93" on="0"/>
        <pt x="-97" y="52" on="0"/>
      </contour>
      <contour>
        <pt x="-81" y="0" on="1"/>
        <pt x="-81" y="52" on="1"/>
        <pt x="-149" y="52" on="1"/>
        <pt x="-149" y="0" on="1"/>
      </contour>
    </TTGlyph>
    <TTGlyph name="arSad.fina" xMin="50" yMin="-202" xMax="981" yMax="380">
      <contour>
        <pt x="419" y="277" on="1"/>
        <pt x="419" y="-116" on="1"/>
        <pt x="439" y="-97" on="1"/>
        <pt x="135" y="-97" on="1"/>
        <pt x="155" y="-116" on="1"/>
        <pt x="155" y="185" on="1"/>
        <pt x="50" y="185" on="1"/>
        <pt x="50" y="-93" on="1"/>
        <pt x="50" y="-135" on="0"/>
        <pt x="108" y="-202" on="0"/>
        <pt x="152" y="-202" on="1"/>
        <pt x="419" y="-202" on="1"/>
        <pt x="463" y="-202" on="0"/>
        <pt x="524" y="-141" on="0"/>
        <pt x="524" y="-97" on="1"/>
        <pt x="524" y="277" on="1"/>
      </contour>
      <contour>
        <pt x="481" y="94" on="1"/>
        <pt x="577" y="44" on="1"/>
        <pt x="745" y="300" on="0"/>
        <pt x="829" y="270" on="1"/>
        <pt x="851" y="260" on="0"/>
        <pt x="873" y="219" on="0"/>
        <pt x="873" y="170" on="1"/>
        <pt x="873" y="84" on="1"/>
        <pt x="895" y="105" on="1"/>
        <pt x="472" y="105" on="1"/>
        <pt x="472" y="0" on="1"/>
        <pt x="874" y="0" on="1"/>
        <pt x="918" y="0" on="0"/>
        <pt x="981" y="62" on="0"/>
        <pt x="980" y="106" on="1"/>
        <pt x="978" y="172" on="1"/>
        <pt x="975" y="323" on="0"/>
        <pt x="868" y="368" on="1"/>
        <pt x="837" y="380" on="0"/>
        <pt x="774" y="378" on="0"/>
        <pt x="724" y="364" on="0"/>
        <pt x="664" y="321" on="0"/>
        <pt x="627" y="288" on="0"/>
        <pt x="570" y="219" on="0"/>
        <pt x="544" y="184" on="0"/>
        <pt x="489" y="105" on="0"/>
      </contour>
    </TTGlyph>
    <TTGlyph name="arSad.init" xMin="0" yMin="0" xMax="648" yMax="380">
      <contour>
        <pt x="0" y="0" on="1"/>
        <pt x="147" y="0" on="1"/>
        <pt x="147" y="105" on="1"/>
        <pt x="0" y="105" on="1"/>
      </contour>
      <contour>
        <pt x="86" y="277" on="1"/>
        <pt x="86" y="98" on="1"/>
        <pt x="190" y="98" on="1"/>
        <pt x="190" y="277" on="1"/>
      </contour>
      <contour>
        <pt x="148" y="94" on="1"/>
        <pt x="244" y="44" on="1"/>
        <pt x="412" y="300" on="0"/>
        <pt x="496" y="270" on="1"/>
        <pt x="518" y="260" on="0"/>
        <pt x="540" y="219" on="0"/>
        <pt x="540" y="170" on="1"/>
        <pt x="540" y="84" on="1"/>
        <pt x="562" y="105" on="1"/>
        <pt x="139" y="105" on="1"/>
        <pt x="139" y="0" on="1"/>
        <pt x="541" y="0" on="1"/>
        <pt x="585" y="0" on="0"/>
        <pt x="648" y="62" on="0"/>
        <pt x="647" y="106" on="1"/>
        <pt x="645" y="172" on="1"/>
        <pt x="642" y="323" on="0"/>
        <pt x="535" y="368" on="1"/>
        <pt x="504" y="380" on="0"/>
        <pt x="441" y="378" on="0"/>
        <pt x="391" y="364" on="0"/>
        <pt x="331" y="321" on="0"/>
        <pt x="294" y="288" on="0"/>
        <pt x="237" y="219" on="0"/>
        <pt x="211" y="184" on="0"/>
        <pt x="156" y="105" on="0"/>
      </contour>
    </TTGlyph>
    <TTGlyph name="arSad.isol" xMin="50" yMin="-202" xMax="981" yMax="380">
      <contour>
        <pt x="419" y="277" on="1"/>
        <pt x="419" y="-116" on="1"/>
        <pt x="439" y="-97" on="1"/>
        <pt x="135" y="-97" on="1"/>
        <pt x="155" y="-116" on="1"/>
        <pt x="155" y="185" on="1"/>
        <pt x="50" y="185" on="1"/>
        <pt x="50" y="-93" on="1"/>
        <pt x="50" y="-135" on="0"/>
        <pt x="108" y="-202" on="0"/>
        <pt x="152" y="-202" on="1"/>
        <pt x="419" y="-202" on="1"/>
        <pt x="463" y="-202" on="0"/>
        <pt x="524" y="-141" on="0"/>
        <pt x="524" y="-97" on="1"/>
        <pt x="524" y="277" on="1"/>
      </contour>
      <contour>
        <pt x="481" y="94" on="1"/>
        <pt x="577" y="44" on="1"/>
        <pt x="745" y="300" on="0"/>
        <pt x="829" y="270" on="1"/>
        <pt x="851" y="260" on="0"/>
        <pt x="873" y="219" on="0"/>
        <pt x="873" y="170" on="1"/>
        <pt x="873" y="84" on="1"/>
        <pt x="895" y="105" on="1"/>
        <pt x="472" y="105" on="1"/>
        <pt x="472" y="0" on="1"/>
        <pt x="874" y="0" on="1"/>
        <pt x="918" y="0" on="0"/>
        <pt x="981" y="62" on="0"/>
        <pt x="980" y="106" on="1"/>
        <pt x="978" y="172" on="1"/>
        <pt x="975" y="323" on="0"/>
        <pt x="868" y="368" on="1"/>
        <pt x="837" y="380" on="0"/>
        <pt x="774" y="378" on="0"/>
        <pt x="724" y="364" on="0"/>
        <pt x="664" y="321" on="0"/>
        <pt x="627" y="288" on="0"/>
        <pt x="570" y="219" on="0"/>
        <pt x="544" y="184" on="0"/>
        <pt x="489" y="105" on="0"/>
      </contour>
    </TTGlyph>
    <TTGlyph name="arSad.medi" xMin="0" yMin="0" xMax="648" yMax="380">
      <contour>
        <pt x="0" y="0" on="1"/>
        <pt x="147" y="0" on="1"/>
        <pt x="147" y="105" on="1"/>
        <pt x="0" y="105" on="1"/>
      </contour>
      <contour>
        <pt x="86" y="277" on="1"/>
        <pt x="86" y="98" on="1"/>
        <pt x="190" y="98" on="1"/>
        <pt x="190" y="277" on="1"/>
      </contour>
      <contour>
        <pt x="148" y="94" on="1"/>
        <pt x="244" y="44" on="1"/>
        <pt x="412" y="300" on="0"/>
        <pt x="496" y="270" on="1"/>
        <pt x="518" y="260" on="0"/>
        <pt x="540" y="219" on="0"/>
        <pt x="540" y="170" on="1"/>
        <pt x="540" y="84" on="1"/>
        <pt x="562" y="105" on="1"/>
        <pt x="139" y="105" on="1"/>
        <pt x="139" y="0" on="1"/>
        <pt x="541" y="0" on="1"/>
        <pt x="585" y="0" on="0"/>
        <pt x="648" y="62" on="0"/>
        <pt x="647" y="106" on="1"/>
        <pt x="645" y="172" on="1"/>
        <pt x="642" y="323" on="0"/>
        <pt x="535" y="368" on="1"/>
        <pt x="504" y="380" on="0"/>
        <pt x="441" y="378" on="0"/>
        <pt x="391" y="364" on="0"/>
        <pt x="331" y="321" on="0"/>
        <pt x="294" y="288" on="0"/>
        <pt x="237" y="219" on="0"/>
        <pt x="211" y="184" on="0"/>
        <pt x="156" y="105" on="0"/>
      </contour>
    </TTGlyph>
    <TTGlyph name="arSeen.fina" xMin="50" yMin="-202" xMax="892" yMax="378">
      <contour>
        <pt x="603" y="376" on="1"/>
        <pt x="603" y="84" on="1"/>
        <pt x="604" y="85" on="0"/>
        <pt x="608" y="90" on="0"/>
        <pt x="617" y="99" on="0"/>
        <pt x="620" y="102" on="1"/>
        <pt x="622" y="105" on="1"/>
        <pt x="520" y="105" on="1"/>
        <pt x="520" y="0" on="1"/>
        <pt x="602" y="0" on="1"/>
        <pt x="645" y="0" on="0"/>
        <pt x="708" y="60" on="0"/>
        <pt x="708" y="104" on="1"/>
        <pt x="708" y="376" on="1"/>
      </contour>
      <contour>
        <pt x="787" y="376" on="1"/>
        <pt x="787" y="84" on="1"/>
        <pt x="788" y="85" on="0"/>
        <pt x="792" y="90" on="0"/>
        <pt x="801" y="99" on="0"/>
        <pt x="804" y="102" on="1"/>
        <pt x="806" y="105" on="1"/>
        <pt x="704" y="105" on="1"/>
        <pt x="704" y="0" on="1"/>
        <pt x="786" y="0" on="1"/>
        <pt x="829" y="0" on="0"/>
        <pt x="892" y="60" on="0"/>
        <pt x="892" y="104" on="1"/>
        <pt x="892" y="376" on="1"/>
      </contour>
      <contour>
        <pt x="419" y="378" on="1"/>
        <pt x="419" y="-116" on="1"/>
        <pt x="439" y="-97" on="1"/>
        <pt x="135" y="-97" on="1"/>
        <pt x="155" y="-116" on="1"/>
        <pt x="155" y="185" on="1"/>
        <pt x="50" y="185" on="1"/>
        <pt x="50" y="-93" on="1"/>
        <pt x="50" y="-135" on="0"/>
        <pt x="108" y="-202" on="0"/>
        <pt x="152" y="-202" on="1"/>
        <pt x="419" y="-202" on="1"/>
        <pt x="463" y="-202" on="0"/>
        <pt x="524" y="-141" on="0"/>
        <pt x="524" y="-97" on="1"/>
        <pt x="524" y="378" on="1"/>
      </contour>
    </TTGlyph>
    <TTGlyph name="arSeen.init" xMin="0" yMin="0" xMax="649" yMax="376">
      <contour>
        <pt x="180" y="376" on="1"/>
        <pt x="180" y="84" on="1"/>
        <pt x="181" y="85" on="0"/>
        <pt x="185" y="90" on="0"/>
        <pt x="194" y="99" on="0"/>
        <pt x="196" y="102" on="1"/>
        <pt x="199" y="105" on="1"/>
        <pt x="0" y="105" on="1"/>
        <pt x="0" y="0" on="1"/>
        <pt x="179" y="0" on="1"/>
        <pt x="222" y="0" on="0"/>
        <pt x="285" y="60" on="0"/>
        <pt x="285" y="104" on="1"/>
        <pt x="285" y="376" on="1"/>
      </contour>
      <contour>
        <pt x="362" y="376" on="1"/>
        <pt x="362" y="84" on="1"/>
        <pt x="363" y="85" on="0"/>
        <pt x="367" y="90" on="0"/>
        <pt x="376" y="99" on="0"/>
        <pt x="378" y="102" on="1"/>
        <pt x="381" y="105" on="1"/>
        <pt x="279" y="105" on="1"/>
        <pt x="279" y="0" on="1"/>
        <pt x="361" y="0" on="1"/>
        <pt x="404" y="0" on="0"/>
        <pt x="467" y="60" on="0"/>
        <pt x="467" y="104" on="1"/>
        <pt x="467" y="376" on="1"/>
      </contour>
      <contour>
        <pt x="544" y="376" on="1"/>
        <pt x="544" y="84" on="1"/>
        <pt x="545" y="85" on="0"/>
        <pt x="549" y="90" on="0"/>
        <pt x="558" y="99" on="0"/>
        <pt x="560" y="102" on="1"/>
        <pt x="563" y="105" on="1"/>
        <pt x="461" y="105" on="1"/>
        <pt x="461" y="0" on="1"/>
        <pt x="543" y="0" on="1"/>
        <pt x="586" y="0" on="0"/>
        <pt x="649" y="60" on="0"/>
        <pt x="649" y="104" on="1"/>
        <pt x="649" y="376" on="1"/>
      </contour>
    </TTGlyph>
    <TTGlyph name="arSeen.isol" xMin="50" yMin="-202" xMax="892" yMax="378">
      <contour>
        <pt x="603" y="376" on="1"/>
        <pt x="603" y="84" on="1"/>
        <pt x="604" y="85" on="0"/>
        <pt x="608" y="90" on="0"/>
        <pt x="617" y="99" on="0"/>
        <pt x="620" y="102" on="1"/>
        <pt x="622" y="105" on="1"/>
        <pt x="520" y="105" on="1"/>
        <pt x="520" y="0" on="1"/>
        <pt x="602" y="0" on="1"/>
        <pt x="645" y="0" on="0"/>
        <pt x="708" y="60" on="0"/>
        <pt x="708" y="104" on="1"/>
        <pt x="708" y="376" on="1"/>
      </contour>
      <contour>
        <pt x="787" y="376" on="1"/>
        <pt x="787" y="84" on="1"/>
        <pt x="788" y="85" on="0"/>
        <pt x="792" y="90" on="0"/>
        <pt x="801" y="99" on="0"/>
        <pt x="804" y="102" on="1"/>
        <pt x="806" y="105" on="1"/>
        <pt x="704" y="105" on="1"/>
        <pt x="704" y="0" on="1"/>
        <pt x="786" y="0" on="1"/>
        <pt x="829" y="0" on="0"/>
        <pt x="892" y="60" on="0"/>
        <pt x="892" y="104" on="1"/>
        <pt x="892" y="376" on="1"/>
      </contour>
      <contour>
        <pt x="419" y="378" on="1"/>
        <pt x="419" y="-116" on="1"/>
        <pt x="439" y="-97" on="1"/>
        <pt x="135" y="-97" on="1"/>
        <pt x="155" y="-116" on="1"/>
        <pt x="155" y="185" on="1"/>
        <pt x="50" y="185" on="1"/>
        <pt x="50" y="-93" on="1"/>
        <pt x="50" y="-135" on="0"/>
        <pt x="108" y="-202" on="0"/>
        <pt x="152" y="-202" on="1"/>
        <pt x="419" y="-202" on="1"/>
        <pt x="463" y="-202" on="0"/>
        <pt x="524" y="-141" on="0"/>
        <pt x="524" y="-97" on="1"/>
        <pt x="524" y="378" on="1"/>
      </contour>
    </TTGlyph>
    <TTGlyph name="arSeen.medi" xMin="0" yMin="0" xMax="649" yMax="376">
      <contour>
        <pt x="180" y="376" on="1"/>
        <pt x="180" y="84" on="1"/>
        <pt x="181" y="85" on="0"/>
        <pt x="185" y="90" on="0"/>
        <pt x="194" y="99" on="0"/>
        <pt x="196" y="102" on="1"/>
        <pt x="199" y="105" on="1"/>
        <pt x="0" y="105" on="1"/>
        <pt x="0" y="0" on="1"/>
        <pt x="179" y="0" on="1"/>
        <pt x="222" y="0" on="0"/>
        <pt x="285" y="60" on="0"/>
        <pt x="285" y="104" on="1"/>
        <pt x="285" y="376" on="1"/>
      </contour>
      <contour>
        <pt x="362" y="376" on="1"/>
        <pt x="362" y="84" on="1"/>
        <pt x="363" y="85" on="0"/>
        <pt x="367" y="90" on="0"/>
        <pt x="376" y="99" on="0"/>
        <pt x="378" y="102" on="1"/>
        <pt x="381" y="105" on="1"/>
        <pt x="279" y="105" on="1"/>
        <pt x="279" y="0" on="1"/>
        <pt x="361" y="0" on="1"/>
        <pt x="404" y="0" on="0"/>
        <pt x="467" y="60" on="0"/>
        <pt x="467" y="104" on="1"/>
        <pt x="467" y="376" on="1"/>
      </contour>
      <contour>
        <pt x="544" y="376" on="1"/>
        <pt x="544" y="84" on="1"/>
        <pt x="545" y="85" on="0"/>
        <pt x="549" y="90" on="0"/>
        <pt x="558" y="99" on="0"/>
        <pt x="560" y="102" on="1"/>
        <pt x="563" y="105" on="1"/>
        <pt x="461" y="105" on="1"/>
        <pt x="461" y="0" on="1"/>
        <pt x="543" y="0" on="1"/>
        <pt x="586" y="0" on="0"/>
        <pt x="649" y="60" on="0"/>
        <pt x="649" y="104" on="1"/>
        <pt x="649" y="376" on="1"/>
      </contour>
    </TTGlyph>
    <TTGlyph name="arTah.above" xMin="-142" yMin="0" xMax="143" yMax="312">
      <contour>
        <pt x="-142" y="0" on="1"/>
        <pt x="-108" y="0" on="1"/>
        <pt x="-108" y="52" on="1"/>
        <pt x="-142" y="52" on="1"/>
      </contour>
      <contour>
        <pt x="-103" y="312" on="1"/>
        <pt x="-103" y="44" on="1"/>
        <pt x="-50" y="44" on="1"/>
        <pt x="-50" y="312" on="1"/>
      </contour>
      <contour>
        <pt x="-107" y="47" on="1"/>
        <pt x="-59" y="22" on="1"/>
        <pt x="26" y="149" on="0"/>
        <pt x="67" y="135" on="1"/>
        <pt x="89" y="124" on="0"/>
        <pt x="89" y="85" on="1"/>
        <pt x="89" y="42" on="1"/>
        <pt x="100" y="52" on="1"/>
        <pt x="-112" y="52" on="1"/>
        <pt x="-112" y="0" on="1"/>
        <pt x="90" y="0" on="1"/>
        <pt x="112" y="0" on="0"/>
        <pt x="143" y="31" on="0"/>
        <pt x="142" y="53" on="1"/>
        <pt x="142" y="86" on="1"/>
        <pt x="140" y="161" on="0"/>
        <pt x="86" y="184" on="1"/>
        <pt x="70" y="190" on="0"/>
        <pt x="39" y="189" on="0"/>
        <pt x="14" y="182" on="0"/>
        <pt x="-16" y="160" on="0"/>
        <pt x="-35" y="144" on="0"/>
        <pt x="-63" y="109" on="0"/>
        <pt x="-76" y="92" on="0"/>
        <pt x="-103" y="53" on="0"/>
      </contour>
    </TTGlyph>
    <TTGlyph name="arTah.fina" xMin="50" yMin="0" xMax="621" yMax="624">
      <contour>
        <pt x="50" y="0" on="1"/>
        <pt x="120" y="0" on="1"/>
        <pt x="120" y="105" on="1"/>
        <pt x="50" y="105" on="1"/>
      </contour>
      <contour>
        <pt x="129" y="624" on="1"/>
        <pt x="129" y="88" on="1"/>
        <pt x="235" y="88" on="1"/>
        <pt x="235" y="624" on="1"/>
      </contour>
      <contour>
        <pt x="121" y="94" on="1"/>
        <pt x="217" y="44" on="1"/>
        <pt x="385" y="300" on="0"/>
        <pt x="469" y="270" on="1"/>
        <pt x="491" y="260" on="0"/>
        <pt x="513" y="219" on="0"/>
        <pt x="513" y="170" on="1"/>
        <pt x="513" y="84" on="1"/>
        <pt x="535" y="105" on="1"/>
        <pt x="112" y="105" on="1"/>
        <pt x="112" y="0" on="1"/>
        <pt x="514" y="0" on="1"/>
        <pt x="558" y="0" on="0"/>
        <pt x="621" y="62" on="0"/>
        <pt x="620" y="106" on="1"/>
        <pt x="618" y="172" on="1"/>
        <pt x="615" y="323" on="0"/>
        <pt x="508" y="368" on="1"/>
        <pt x="477" y="380" on="0"/>
        <pt x="414" y="378" on="0"/>
        <pt x="364" y="364" on="0"/>
        <pt x="304" y="321" on="0"/>
        <pt x="267" y="288" on="0"/>
        <pt x="210" y="219" on="0"/>
        <pt x="184" y="184" on="0"/>
        <pt x="129" y="105" on="0"/>
      </contour>
    </TTGlyph>
    <TTGlyph name="arTah.init" xMin="0" yMin="0" xMax="571" yMax="624">
      <contour>
        <pt x="0" y="0" on="1"/>
        <pt x="70" y="0" on="1"/>
        <pt x="70" y="105" on="1"/>
        <pt x="0" y="105" on="1"/>
      </contour>
      <contour>
        <pt x="79" y="624" on="1"/>
        <pt x="79" y="88" on="1"/>
        <pt x="185" y="88" on="1"/>
        <pt x="185" y="624" on="1"/>
      </contour>
      <contour>
        <pt x="71" y="94" on="1"/>
        <pt x="167" y="44" on="1"/>
        <pt x="335" y="300" on="0"/>
        <pt x="419" y="270" on="1"/>
        <pt x="441" y="260" on="0"/>
        <pt x="463" y="219" on="0"/>
        <pt x="463" y="170" on="1"/>
        <pt x="463" y="84" on="1"/>
        <pt x="485" y="105" on="1"/>
        <pt x="62" y="105" on="1"/>
        <pt x="62" y="0" on="1"/>
        <pt x="464" y="0" on="1"/>
        <pt x="508" y="0" on="0"/>
        <pt x="571" y="62" on="0"/>
        <pt x="570" y="106" on="1"/>
        <pt x="568" y="172" on="1"/>
        <pt x="565" y="323" on="0"/>
        <pt x="458" y="368" on="1"/>
        <pt x="427" y="380" on="0"/>
        <pt x="364" y="378" on="0"/>
        <pt x="314" y="364" on="0"/>
        <pt x="254" y="321" on="0"/>
        <pt x="217" y="288" on="0"/>
        <pt x="160" y="219" on="0"/>
        <pt x="134" y="184" on="0"/>
        <pt x="79" y="105" on="0"/>
      </contour>
    </TTGlyph>
    <TTGlyph name="arTah.isol" xMin="50" yMin="0" xMax="621" yMax="624">
      <contour>
        <pt x="50" y="0" on="1"/>
        <pt x="120" y="0" on="1"/>
        <pt x="120" y="105" on="1"/>
        <pt x="50" y="105" on="1"/>
      </contour>
      <contour>
        <pt x="129" y="624" on="1"/>
        <pt x="129" y="88" on="1"/>
        <pt x="235" y="88" on="1"/>
        <pt x="235" y="624" on="1"/>
      </contour>
      <contour>
        <pt x="121" y="94" on="1"/>
        <pt x="217" y="44" on="1"/>
        <pt x="385" y="300" on="0"/>
        <pt x="469" y="270" on="1"/>
        <pt x="491" y="260" on="0"/>
        <pt x="513" y="219" on="0"/>
        <pt x="513" y="170" on="1"/>
        <pt x="513" y="84" on="1"/>
        <pt x="535" y="105" on="1"/>
        <pt x="112" y="105" on="1"/>
        <pt x="112" y="0" on="1"/>
        <pt x="514" y="0" on="1"/>
        <pt x="558" y="0" on="0"/>
        <pt x="621" y="62" on="0"/>
        <pt x="620" y="106" on="1"/>
        <pt x="618" y="172" on="1"/>
        <pt x="615" y="323" on="0"/>
        <pt x="508" y="368" on="1"/>
        <pt x="477" y="380" on="0"/>
        <pt x="414" y="378" on="0"/>
        <pt x="364" y="364" on="0"/>
        <pt x="304" y="321" on="0"/>
        <pt x="267" y="288" on="0"/>
        <pt x="210" y="219" on="0"/>
        <pt x="184" y="184" on="0"/>
        <pt x="129" y="105" on="0"/>
      </contour>
    </TTGlyph>
    <TTGlyph name="arTah.medi" xMin="0" yMin="0" xMax="571" yMax="624">
      <contour>
        <pt x="0" y="0" on="1"/>
        <pt x="70" y="0" on="1"/>
        <pt x="70" y="105" on="1"/>
        <pt x="0" y="105" on="1"/>
      </contour>
      <contour>
        <pt x="79" y="624" on="1"/>
        <pt x="79" y="88" on="1"/>
        <pt x="185" y="88" on="1"/>
        <pt x="185" y="624" on="1"/>
      </contour>
      <contour>
        <pt x="71" y="94" on="1"/>
        <pt x="167" y="44" on="1"/>
        <pt x="335" y="300" on="0"/>
        <pt x="419" y="270" on="1"/>
        <pt x="441" y="260" on="0"/>
        <pt x="463" y="219" on="0"/>
        <pt x="463" y="170" on="1"/>
        <pt x="463" y="84" on="1"/>
        <pt x="485" y="105" on="1"/>
        <pt x="62" y="105" on="1"/>
        <pt x="62" y="0" on="1"/>
        <pt x="464" y="0" on="1"/>
        <pt x="508" y="0" on="0"/>
        <pt x="571" y="62" on="0"/>
        <pt x="570" y="106" on="1"/>
        <pt x="568" y="172" on="1"/>
        <pt x="565" y="323" on="0"/>
        <pt x="458" y="368" on="1"/>
        <pt x="427" y="380" on="0"/>
        <pt x="364" y="378" on="0"/>
        <pt x="314" y="364" on="0"/>
        <pt x="254" y="321" on="0"/>
        <pt x="217" y="288" on="0"/>
        <pt x="160" y="219" on="0"/>
        <pt x="134" y="184" on="0"/>
        <pt x="79" y="105" on="0"/>
      </contour>
    </TTGlyph>
    <TTGlyph name="arWaw.fina" xMin="35" yMin="-200" xMax="515" yMax="377">
      <contour>
        <pt x="515" y="105" on="1"/>
        <pt x="370" y="105" on="1"/>
        <pt x="370" y="0" on="1"/>
        <pt x="515" y="0" on="1"/>
      </contour>
      <contour>
        <pt x="362" y="0" on="1"/>
        <pt x="362" y="105" on="1"/>
        <pt x="206" y="105" on="1"/>
        <pt x="183" y="105" on="0"/>
        <pt x="153" y="135" on="0"/>
        <pt x="154" y="151" on="1"/>
        <pt x="160" y="205" on="0"/>
        <pt x="236" y="271" on="0"/>
        <pt x="314" y="271" on="0"/>
        <pt x="314" y="213" on="1"/>
        <pt x="314" y="0" on="1"/>
        <pt x="314" y="-38" on="0"/>
        <pt x="264" y="-94" on="0"/>
        <pt x="228" y="-94" on="1"/>
        <pt x="35" y="-94" on="1"/>
        <pt x="35" y="-200" on="1"/>
        <pt x="228" y="-200" on="1"/>
        <pt x="312" y="-200" on="0"/>
        <pt x="418" y="-79" on="0"/>
        <pt x="418" y="-1" on="1"/>
        <pt x="418" y="233" on="1"/>
        <pt x="417" y="300" on="0"/>
        <pt x="332" y="377" on="0"/>
        <pt x="274" y="376" on="1"/>
        <pt x="194" y="375" on="0"/>
        <pt x="59" y="256" on="0"/>
        <pt x="50" y="159" on="1"/>
        <pt x="46" y="94" on="0"/>
        <pt x="139" y="0" on="0"/>
        <pt x="206" y="0" on="1"/>
      </contour>
    </TTGlyph>
    <TTGlyph name="arWaw.isol" xMin="35" yMin="-200" xMax="418" yMax="377">
      <contour>
        <pt x="362" y="0" on="1"/>
        <pt x="362" y="105" on="1"/>
        <pt x="206" y="105" on="1"/>
        <pt x="183" y="105" on="0"/>
        <pt x="153" y="135" on="0"/>
        <pt x="154" y="151" on="1"/>
        <pt x="160" y="205" on="0"/>
        <pt x="236" y="271" on="0"/>
        <pt x="314" y="271" on="0"/>
        <pt x="314" y="213" on="1"/>
        <pt x="314" y="0" on="1"/>
        <pt x="314" y="-38" on="0"/>
        <pt x="264" y="-94" on="0"/>
        <pt x="228" y="-94" on="1"/>
        <pt x="35" y="-94" on="1"/>
        <pt x="35" y="-200" on="1"/>
        <pt x="228" y="-200" on="1"/>
        <pt x="312" y="-200" on="0"/>
        <pt x="418" y="-79" on="0"/>
        <pt x="418" y="-1" on="1"/>
        <pt x="418" y="233" on="1"/>
        <pt x="417" y="300" on="0"/>
        <pt x="332" y="377" on="0"/>
        <pt x="274" y="376" on="1"/>
        <pt x="194" y="375" on="0"/>
        <pt x="59" y="256" on="0"/>
        <pt x="50" y="159" on="1"/>
        <pt x="46" y="94" on="0"/>
        <pt x="139" y="0" on="0"/>
        <pt x="206" y="0" on="1"/>
      </contour>
    </TTGlyph>
    <TTGlyph name="arYeh.fina" xMin="50" yMin="-234" xMax="596" yMax="144">
      <contour>
        <pt x="581" y="144" on="1"/>
        <pt x="443" y="144" on="1"/>
        <pt x="374" y="144" on="0"/>
        <pt x="321" y="34" on="0"/>
        <pt x="365" y="-19" on="1"/>
        <pt x="468" y="-143" on="1"/>
        <pt x="477" y="-130" on="1"/>
        <pt x="253" y="-130" on="1"/>
        <pt x="208" y="-130" on="0"/>
        <pt x="155" y="-94" on="0"/>
        <pt x="155" y="-57" on="1"/>
        <pt x="155" y="139" on="1"/>
        <pt x="50" y="139" on="1"/>
        <pt x="50" y="-57" on="1"/>
        <pt x="50" y="-104" on="0"/>
        <pt x="88" y="-175" on="0"/>
        <pt x="148" y="-215" on="0"/>
        <pt x="212" y="-234" on="0"/>
        <pt x="243" y="-234" on="1"/>
        <pt x="473" y="-234" on="1"/>
        <pt x="532" y="-234" on="0"/>
        <pt x="596" y="-137" on="0"/>
        <pt x="557" y="-87" on="1"/>
        <pt x="442" y="52" on="1"/>
        <pt x="432" y="40" on="1"/>
        <pt x="581" y="40" on="1"/>
      </contour>
    </TTGlyph>
    <TTGlyph name="arYeh.fina2" xMin="38" yMin="-276" xMax="728" yMax="234">
      <contour>
        <pt x="708" y="-170" on="1"/>
        <pt x="270" y="-170" on="1"/>
        <pt x="171" y="-170" on="0"/>
        <pt x="157" y="-118" on="1"/>
        <pt x="151" y="-97" on="0"/>
        <pt x="178" y="-53" on="0"/>
        <pt x="207" y="-45" on="1"/>
        <pt x="243" y="-35" on="0"/>
        <pt x="298" y="-5" on="0"/>
        <pt x="330" y="30" on="0"/>
        <pt x="348" y="57" on="0"/>
        <pt x="361" y="87" on="0"/>
        <pt x="361" y="88" on="1"/>
        <pt x="384" y="126" on="0"/>
        <pt x="417" y="128" on="1"/>
        <pt x="454" y="131" on="0"/>
        <pt x="472" y="97" on="1"/>
        <pt x="523" y="0" on="0"/>
        <pt x="634" y="0" on="1"/>
        <pt x="728" y="0" on="1"/>
        <pt x="728" y="105" on="1"/>
        <pt x="634" y="105" on="1"/>
        <pt x="604" y="105" on="0"/>
        <pt x="578" y="120" on="0"/>
        <pt x="565" y="145" on="1"/>
        <pt x="543" y="187" on="0"/>
        <pt x="463" y="234" on="0"/>
        <pt x="419" y="233" on="1"/>
        <pt x="322" y="232" on="0"/>
        <pt x="270" y="142" on="1"/>
        <pt x="262" y="128" on="0"/>
        <pt x="252" y="100" on="0"/>
        <pt x="249" y="88" on="0"/>
        <pt x="236" y="74" on="0"/>
        <pt x="208" y="64" on="0"/>
        <pt x="180" y="57" on="1"/>
        <pt x="110" y="38" on="0"/>
        <pt x="38" y="-80" on="0"/>
        <pt x="55" y="-145" on="1"/>
        <pt x="71" y="-205" on="0"/>
        <pt x="185" y="-276" on="0"/>
        <pt x="270" y="-276" on="1"/>
        <pt x="708" y="-276" on="1"/>
      </contour>
    </TTGlyph>
    <TTGlyph name="arYeh.isol" xMin="50" yMin="-234" xMax="596" yMax="144">
      <contour>
        <pt x="581" y="144" on="1"/>
        <pt x="443" y="144" on="1"/>
        <pt x="374" y="144" on="0"/>
        <pt x="321" y="34" on="0"/>
        <pt x="365" y="-19" on="1"/>
        <pt x="468" y="-143" on="1"/>
        <pt x="477" y="-130" on="1"/>
        <pt x="253" y="-130" on="1"/>
        <pt x="208" y="-130" on="0"/>
        <pt x="155" y="-94" on="0"/>
        <pt x="155" y="-57" on="1"/>
        <pt x="155" y="139" on="1"/>
        <pt x="50" y="139" on="1"/>
        <pt x="50" y="-57" on="1"/>
        <pt x="50" y="-104" on="0"/>
        <pt x="88" y="-175" on="0"/>
        <pt x="148" y="-215" on="0"/>
        <pt x="212" y="-234" on="0"/>
        <pt x="243" y="-234" on="1"/>
        <pt x="473" y="-234" on="1"/>
        <pt x="532" y="-234" on="0"/>
        <pt x="596" y="-137" on="0"/>
        <pt x="557" y="-87" on="1"/>
        <pt x="442" y="52" on="1"/>
        <pt x="432" y="40" on="1"/>
        <pt x="581" y="40" on="1"/>
      </contour>
    </TTGlyph>
    <TTGlyph name="arYeh.isol2" xMin="38" yMin="-198" xMax="896" yMax="315">
      <contour>
        <pt x="581" y="264" on="1"/>
        <pt x="554" y="281" on="0"/>
        <pt x="488" y="304" on="0"/>
        <pt x="399" y="315" on="0"/>
        <pt x="308" y="272" on="0"/>
        <pt x="273" y="223" on="1"/>
        <pt x="262" y="207" on="0"/>
        <pt x="250" y="179" on="0"/>
        <pt x="247" y="166" on="0"/>
        <pt x="235" y="152" on="0"/>
        <pt x="208" y="141" on="0"/>
        <pt x="180" y="134" on="1"/>
        <pt x="111" y="116" on="0"/>
        <pt x="38" y="-2" on="0"/>
        <pt x="55" y="-67" on="1"/>
        <pt x="71" y="-127" on="0"/>
        <pt x="185" y="-198" on="0"/>
        <pt x="270" y="-198" on="1"/>
        <pt x="896" y="-198" on="1"/>
        <pt x="896" y="-92" on="1"/>
        <pt x="270" y="-92" on="1"/>
        <pt x="170" y="-92" on="0"/>
        <pt x="157" y="-41" on="1"/>
        <pt x="151" y="-20" on="0"/>
        <pt x="178" y="24" on="0"/>
        <pt x="207" y="32" on="1"/>
        <pt x="243" y="41" on="0"/>
        <pt x="298" y="73" on="0"/>
        <pt x="330" y="108" on="0"/>
        <pt x="348" y="138" on="0"/>
        <pt x="353" y="150" on="1"/>
        <pt x="358" y="163" on="1"/>
        <pt x="416" y="246" on="0"/>
        <pt x="525" y="176" on="1"/>
      </contour>
    </TTGlyph>
    <TTGlyph name="aring" xMin="49" yMin="-12" xMax="445" yMax="758">
      <contour>
        <pt x="193" y="-12" on="1"/>
        <pt x="129" y="-12" on="0"/>
        <pt x="49" y="66" on="0"/>
        <pt x="49" y="130" on="1"/>
        <pt x="49" y="209" on="0"/>
        <pt x="188" y="296" on="0"/>
        <pt x="341" y="312" on="1"/>
        <pt x="339" y="417" on="0"/>
        <pt x="248" y="417" on="1"/>
        <pt x="186" y="417" on="0"/>
        <pt x="107" y="368" on="1"/>
        <pt x="68" y="437" on="1"/>
        <pt x="167" y="501" on="0"/>
        <pt x="266" y="501" on="1"/>
        <pt x="445" y="501" on="0"/>
        <pt x="445" y="293" on="1"/>
        <pt x="445" y="0" on="1"/>
        <pt x="359" y="0" on="1"/>
        <pt x="351" y="56" on="1"/>
        <pt x="348" y="56" on="1"/>
        <pt x="267" y="-12" on="0"/>
      </contour>
      <contour>
        <pt x="225" y="70" on="1"/>
        <pt x="278" y="70" on="0"/>
        <pt x="341" y="127" on="1"/>
        <pt x="341" y="246" on="1"/>
        <pt x="237" y="233" on="0"/>
        <pt x="149" y="180" on="0"/>
        <pt x="149" y="138" on="1"/>
        <pt x="149" y="104" on="0"/>
        <pt x="191" y="70" on="0"/>
      </contour>
      <contour>
        <pt x="321" y="557" on="0"/>
        <pt x="213" y="557" on="0"/>
        <pt x="150" y="614" on="0"/>
        <pt x="150" y="702" on="0"/>
        <pt x="213" y="758" on="0"/>
        <pt x="321" y="758" on="0"/>
        <pt x="384" y="702" on="0"/>
        <pt x="384" y="614" on="0"/>
      </contour>
      <contour>
        <pt x="245" y="600" on="0"/>
        <pt x="289" y="600" on="0"/>
        <pt x="319" y="632" on="0"/>
        <pt x="319" y="658" on="1"/>
        <pt x="319" y="683" on="0"/>
        <pt x="289" y="715" on="0"/>
        <pt x="245" y="715" on="0"/>
        <pt x="215" y="683" on="0"/>
        <pt x="215" y="658" on="1"/>
        <pt x="215" y="632" on="0"/>
      </contour>
    </TTGlyph>
    <TTGlyph name="asciicircum" xMin="57" yMin="281" xMax="451" yMax="670">
      <contour>
        <pt x="57" y="281" on="1"/>
        <pt x="210" y="670" on="1"/>
        <pt x="298" y="670" on="1"/>
        <pt x="451" y="281" on="1"/>
        <pt x="363" y="281" on="1"/>
        <pt x="304" y="440" on="1"/>
        <pt x="256" y="575" on="1"/>
        <pt x="252" y="575" on="1"/>
        <pt x="204" y="440" on="1"/>
        <pt x="145" y="281" on="1"/>
      </contour>
    </TTGlyph>
    <TTGlyph name="asciitilde" xMin="34" yMin="251" xMax="474" yMax="409">
      <contour>
        <pt x="341" y="251" on="1"/>
        <pt x="307" y="251" on="0"/>
        <pt x="242" y="292" on="0"/>
        <pt x="188" y="333" on="0"/>
        <pt x="165" y="333" on="1"/>
        <pt x="122" y="333" on="0"/>
        <pt x="90" y="273" on="1"/>
        <pt x="34" y="314" on="1"/>
        <pt x="90" y="409" on="0"/>
        <pt x="167" y="409" on="1"/>
        <pt x="201" y="409" on="0"/>
        <pt x="265" y="368" on="0"/>
        <pt x="320" y="327" on="0"/>
        <pt x="343" y="327" on="1"/>
        <pt x="385" y="327" on="0"/>
        <pt x="417" y="387" on="1"/>
        <pt x="474" y="345" on="1"/>
        <pt x="416" y="251" on="0"/>
      </contour>
    </TTGlyph>
    <TTGlyph name="asterisk" xMin="51" yMin="396" xMax="380" yMax="712">
      <contour>
        <pt x="141" y="396" on="1"/>
        <pt x="94" y="431" on="1"/>
        <pt x="152" y="527" on="1"/>
        <pt x="51" y="571" on="1"/>
        <pt x="69" y="626" on="1"/>
        <pt x="176" y="601" on="1"/>
        <pt x="186" y="712" on="1"/>
        <pt x="244" y="712" on="1"/>
        <pt x="255" y="601" on="1"/>
        <pt x="362" y="626" on="1"/>
        <pt x="380" y="571" on="1"/>
        <pt x="279" y="527" on="1"/>
        <pt x="336" y="431" on="1"/>
        <pt x="289" y="396" on="1"/>
        <pt x="216" y="483" on="1"/>
      </contour>
    </TTGlyph>
    <TTGlyph name="at" xMin="50" yMin="-161" xMax="816" yMax="654">
      <contour>
        <pt x="411" y="-161" on="1"/>
        <pt x="256" y="-161" on="0"/>
        <pt x="50" y="30" on="0"/>
        <pt x="50" y="204" on="1"/>
        <pt x="50" y="403" on="0"/>
        <pt x="300" y="654" on="0"/>
        <pt x="478" y="654" on="1"/>
        <pt x="632" y="654" on="0"/>
        <pt x="816" y="466" on="0"/>
        <pt x="816" y="314" on="1"/>
        <pt x="816" y="190" on="0"/>
        <pt x="686" y="46" on="0"/>
        <pt x="606" y="46" on="1"/>
        <pt x="563" y="46" on="0"/>
        <pt x="505" y="86" on="0"/>
        <pt x="499" y="122" on="1"/>
        <pt x="497" y="122" on="1"/>
        <pt x="473" y="91" on="0"/>
        <pt x="408" y="54" on="0"/>
        <pt x="376" y="54" on="1"/>
        <pt x="321" y="54" on="0"/>
        <pt x="251" y="131" on="0"/>
        <pt x="251" y="198" on="1"/>
        <pt x="251" y="287" on="0"/>
        <pt x="364" y="435" on="0"/>
        <pt x="447" y="435" on="1"/>
        <pt x="500" y="435" on="0"/>
        <pt x="526" y="386" on="1"/>
        <pt x="528" y="386" on="1"/>
        <pt x="540" y="427" on="1"/>
        <pt x="606" y="427" on="1"/>
        <pt x="565" y="220" on="1"/>
        <pt x="538" y="113" on="0"/>
        <pt x="617" y="113" on="1"/>
        <pt x="667" y="113" on="0"/>
        <pt x="746" y="223" on="0"/>
        <pt x="746" y="311" on="1"/>
        <pt x="746" y="433" on="0"/>
        <pt x="605" y="588" on="0"/>
        <pt x="470" y="588" on="1"/>
        <pt x="332" y="588" on="0"/>
        <pt x="124" y="374" on="0"/>
        <pt x="124" y="207" on="1"/>
        <pt x="124" y="65" on="0"/>
        <pt x="290" y="-94" on="0"/>
        <pt x="419" y="-94" on="1"/>
        <pt x="501" y="-94" on="0"/>
        <pt x="578" y="-52" on="1"/>
        <pt x="603" y="-111" on="1"/>
        <pt x="516" y="-161" on="0"/>
      </contour>
      <contour>
        <pt x="397" y="122" on="1"/>
        <pt x="436" y="122" on="0"/>
        <pt x="480" y="177" on="1"/>
        <pt x="507" y="328" on="1"/>
        <pt x="484" y="365" on="0"/>
        <pt x="449" y="365" on="1"/>
        <pt x="398" y="365" on="0"/>
        <pt x="332" y="262" on="0"/>
        <pt x="332" y="204" on="1"/>
        <pt x="332" y="163" on="0"/>
        <pt x="367" y="122" on="0"/>
      </contour>
    </TTGlyph>
    <TTGlyph name="atilde" xMin="49" yMin="-12" xMax="446" yMax="727">
      <contour>
        <pt x="193" y="-12" on="1"/>
        <pt x="129" y="-12" on="0"/>
        <pt x="49" y="66" on="0"/>
        <pt x="49" y="130" on="1"/>
        <pt x="49" y="209" on="0"/>
        <pt x="188" y="296" on="0"/>
        <pt x="341" y="312" on="1"/>
        <pt x="339" y="417" on="0"/>
        <pt x="248" y="417" on="1"/>
        <pt x="186" y="417" on="0"/>
        <pt x="107" y="368" on="1"/>
        <pt x="68" y="437" on="1"/>
        <pt x="167" y="501" on="0"/>
        <pt x="266" y="501" on="1"/>
        <pt x="445" y="501" on="0"/>
        <pt x="445" y="293" on="1"/>
        <pt x="445" y="0" on="1"/>
        <pt x="359" y="0" on="1"/>
        <pt x="351" y="56" on="1"/>
        <pt x="348" y="56" on="1"/>
        <pt x="267" y="-12" on="0"/>
      </contour>
      <contour>
        <pt x="225" y="70" on="1"/>
        <pt x="278" y="70" on="0"/>
        <pt x="341" y="127" on="1"/>
        <pt x="341" y="246" on="1"/>
        <pt x="237" y="233" on="0"/>
        <pt x="149" y="180" on="0"/>
        <pt x="149" y="138" on="1"/>
        <pt x="149" y="104" on="0"/>
        <pt x="191" y="70" on="0"/>
      </contour>
      <contour>
        <pt x="337" y="576" on="1"/>
        <pt x="314" y="576" on="0"/>
        <pt x="271" y="600" on="0"/>
        <pt x="244" y="629" on="0"/>
        <pt x="212" y="653" on="0"/>
        <pt x="198" y="653" on="1"/>
        <pt x="161" y="653" on="0"/>
        <pt x="156" y="582" on="1"/>
        <pt x="88" y="586" on="1"/>
        <pt x="93" y="727" on="0"/>
        <pt x="197" y="727" on="1"/>
        <pt x="226" y="727" on="0"/>
        <pt x="278" y="688" on="0"/>
        <pt x="319" y="650" on="0"/>
        <pt x="336" y="650" on="1"/>
        <pt x="373" y="650" on="0"/>
        <pt x="378" y="721" on="1"/>
        <pt x="446" y="717" on="1"/>
        <pt x="441" y="576" on="0"/>
      </contour>
    </TTGlyph>
    <TTGlyph name="b" xMin="76" yMin="-12" xMax="516" yMax="708">
      <contour>
        <pt x="306" y="-12" on="1"/>
        <pt x="236" y="-12" on="0"/>
        <pt x="171" y="51" on="1"/>
        <pt x="168" y="51" on="1"/>
        <pt x="158" y="0" on="1"/>
        <pt x="76" y="0" on="1"/>
        <pt x="76" y="708" on="1"/>
        <pt x="180" y="708" on="1"/>
        <pt x="180" y="522" on="1"/>
        <pt x="177" y="438" on="1"/>
        <pt x="249" y="501" on="0"/>
        <pt x="323" y="501" on="1"/>
        <pt x="414" y="501" on="0"/>
        <pt x="516" y="367" on="0"/>
        <pt x="516" y="253" on="1"/>
        <pt x="516" y="132" on="0"/>
        <pt x="393" y="-12" on="0"/>
      </contour>
      <contour>
        <pt x="285" y="74" on="1"/>
        <pt x="340" y="74" on="0"/>
        <pt x="409" y="168" on="0"/>
        <pt x="409" y="251" on="1"/>
        <pt x="409" y="415" on="0"/>
        <pt x="295" y="415" on="1"/>
        <pt x="239" y="415" on="0"/>
        <pt x="180" y="356" on="1"/>
        <pt x="180" y="118" on="1"/>
        <pt x="231" y="74" on="0"/>
      </contour>
    </TTGlyph>
    <TTGlyph name="backslash" xMin="19" yMin="-160" xMax="335" yMax="710">
      <contour>
        <pt x="264" y="-160" on="1"/>
        <pt x="19" y="710" on="1"/>
        <pt x="90" y="710" on="1"/>
        <pt x="335" y="-160" on="1"/>
      </contour>
    </TTGlyph>
    <TTGlyph name="bar" xMin="90" yMin="-250" xMax="160" yMax="750">
      <contour>
        <pt x="90" y="-250" on="1"/>
        <pt x="90" y="750" on="1"/>
        <pt x="160" y="750" on="1"/>
        <pt x="160" y="-250" on="1"/>
      </contour>
    </TTGlyph>
    <TTGlyph name="braceleft" xMin="33" yMin="-152" xMax="281" yMax="708">
      <contour>
        <pt x="230" y="-152" on="1"/>
        <pt x="166" y="-152" on="0"/>
        <pt x="110" y="-92" on="0"/>
        <pt x="110" y="-16" on="1"/>
        <pt x="110" y="21" on="0"/>
        <pt x="119" y="137" on="0"/>
        <pt x="119" y="169" on="1"/>
        <pt x="119" y="202" on="0"/>
        <pt x="79" y="245" on="0"/>
        <pt x="33" y="246" on="1"/>
        <pt x="33" y="310" on="1"/>
        <pt x="79" y="311" on="0"/>
        <pt x="119" y="354" on="0"/>
        <pt x="119" y="418" on="0"/>
        <pt x="110" y="535" on="0"/>
        <pt x="110" y="572" on="1"/>
        <pt x="110" y="648" on="0"/>
        <pt x="166" y="708" on="0"/>
        <pt x="230" y="708" on="1"/>
        <pt x="281" y="708" on="1"/>
        <pt x="281" y="651" on="1"/>
        <pt x="257" y="651" on="1"/>
        <pt x="220" y="651" on="0"/>
        <pt x="194" y="614" on="0"/>
        <pt x="194" y="567" on="1"/>
        <pt x="194" y="538" on="0"/>
        <pt x="199" y="425" on="0"/>
        <pt x="199" y="391" on="1"/>
        <pt x="199" y="340" on="0"/>
        <pt x="169" y="289" on="0"/>
        <pt x="134" y="280" on="1"/>
        <pt x="134" y="276" on="1"/>
        <pt x="169" y="267" on="0"/>
        <pt x="199" y="215" on="0"/>
        <pt x="199" y="165" on="1"/>
        <pt x="199" y="131" on="0"/>
        <pt x="194" y="18" on="0"/>
        <pt x="194" y="-11" on="1"/>
        <pt x="194" y="-58" on="0"/>
        <pt x="220" y="-95" on="0"/>
        <pt x="257" y="-95" on="1"/>
        <pt x="281" y="-95" on="1"/>
        <pt x="281" y="-152" on="1"/>
      </contour>
    </TTGlyph>
    <TTGlyph name="braceright" xMin="36" yMin="-152" xMax="284" yMax="708">
      <contour>
        <pt x="36" y="-152" on="1"/>
        <pt x="36" y="-95" on="1"/>
        <pt x="59" y="-95" on="1"/>
        <pt x="96" y="-95" on="0"/>
        <pt x="123" y="-58" on="0"/>
        <pt x="123" y="-11" on="1"/>
        <pt x="123" y="18" on="0"/>
        <pt x="118" y="131" on="0"/>
        <pt x="118" y="165" on="1"/>
        <pt x="118" y="215" on="0"/>
        <pt x="148" y="267" on="0"/>
        <pt x="182" y="276" on="1"/>
        <pt x="182" y="280" on="1"/>
        <pt x="148" y="289" on="0"/>
        <pt x="118" y="340" on="0"/>
        <pt x="118" y="391" on="1"/>
        <pt x="118" y="425" on="0"/>
        <pt x="123" y="538" on="0"/>
        <pt x="123" y="567" on="1"/>
        <pt x="123" y="614" on="0"/>
        <pt x="96" y="651" on="0"/>
        <pt x="59" y="651" on="1"/>
        <pt x="36" y="651" on="1"/>
        <pt x="36" y="708" on="1"/>
        <pt x="86" y="708" on="1"/>
        <pt x="150" y="708" on="0"/>
        <pt x="207" y="649" on="0"/>
        <pt x="207" y="572" on="1"/>
        <pt x="207" y="535" on="0"/>
        <pt x="198" y="418" on="0"/>
        <pt x="198" y="354" on="0"/>
        <pt x="238" y="311" on="0"/>
        <pt x="284" y="310" on="1"/>
        <pt x="284" y="246" on="1"/>
        <pt x="238" y="245" on="0"/>
        <pt x="198" y="202" on="0"/>
        <pt x="198" y="169" on="1"/>
        <pt x="198" y="137" on="0"/>
        <pt x="207" y="21" on="0"/>
        <pt x="207" y="-16" on="1"/>
        <pt x="207" y="-93" on="0"/>
        <pt x="150" y="-152" on="0"/>
        <pt x="86" y="-152" on="1"/>
      </contour>
    </TTGlyph>
    <TTGlyph name="bracketleft" xMin="92" yMin="-152" xMax="281" yMax="708">
      <contour>
        <pt x="92" y="-152" on="1"/>
        <pt x="92" y="708" on="1"/>
        <pt x="281" y="708" on="1"/>
        <pt x="281" y="651" on="1"/>
        <pt x="170" y="651" on="1"/>
        <pt x="170" y="-95" on="1"/>
        <pt x="281" y="-95" on="1"/>
        <pt x="281" y="-152" on="1"/>
      </contour>
    </TTGlyph>
    <TTGlyph name="bracketright" xMin="36" yMin="-152" xMax="225" yMax="708">
      <contour>
        <pt x="36" y="-152" on="1"/>
        <pt x="36" y="-95" on="1"/>
        <pt x="147" y="-95" on="1"/>
        <pt x="147" y="651" on="1"/>
        <pt x="36" y="651" on="1"/>
        <pt x="36" y="708" on="1"/>
        <pt x="225" y="708" on="1"/>
        <pt x="225" y="-152" on="1"/>
      </contour>
    </TTGlyph>
    <TTGlyph name="brokenbar" xMin="90" yMin="-250" xMax="160" yMax="750">
      <contour>
        <pt x="90" y="298" on="1"/>
        <pt x="90" y="750" on="1"/>
        <pt x="160" y="750" on="1"/>
        <pt x="160" y="298" on="1"/>
      </contour>
      <contour>
        <pt x="90" y="-250" on="1"/>
        <pt x="90" y="211" on="1"/>
        <pt x="160" y="211" on="1"/>
        <pt x="160" y="-250" on="1"/>
      </contour>
    </TTGlyph>
    <TTGlyph name="bullet" xMin="40" yMin="136" xMax="278" yMax="390">
      <contour>
        <pt x="209" y="136" on="0"/>
        <pt x="109" y="136" on="0"/>
        <pt x="40" y="208" on="0"/>
        <pt x="40" y="318" on="0"/>
        <pt x="109" y="390" on="0"/>
        <pt x="209" y="390" on="0"/>
        <pt x="278" y="318" on="0"/>
        <pt x="278" y="208" on="0"/>
      </contour>
    </TTGlyph>
    <TTGlyph name="c" xMin="43" yMin="-12" xMax="436" yMax="501">
      <contour>
        <pt x="276" y="-12" on="1"/>
        <pt x="174" y="-12" on="0"/>
        <pt x="43" y="125" on="0"/>
        <pt x="43" y="244" on="1"/>
        <pt x="43" y="362" on="0"/>
        <pt x="184" y="501" on="0"/>
        <pt x="285" y="501" on="1"/>
        <pt x="366" y="501" on="0"/>
        <pt x="428" y="446" on="1"/>
        <pt x="377" y="378" on="1"/>
        <pt x="334" y="416" on="0"/>
        <pt x="290" y="416" on="1"/>
        <pt x="228" y="416" on="0"/>
        <pt x="149" y="321" on="0"/>
        <pt x="149" y="167" on="0"/>
        <pt x="226" y="73" on="0"/>
        <pt x="287" y="73" on="1"/>
        <pt x="341" y="73" on="0"/>
        <pt x="393" y="118" on="1"/>
        <pt x="436" y="49" on="1"/>
        <pt x="366" y="-12" on="0"/>
      </contour>
    </TTGlyph>
    <TTGlyph name="ccedilla" xMin="43" yMin="-231" xMax="436" yMax="501">
      <contour>
        <pt x="276" y="-12" on="1"/>
        <pt x="174" y="-12" on="0"/>
        <pt x="43" y="125" on="0"/>
        <pt x="43" y="244" on="1"/>
        <pt x="43" y="362" on="0"/>
        <pt x="184" y="501" on="0"/>
        <pt x="285" y="501" on="1"/>
        <pt x="366" y="501" on="0"/>
        <pt x="428" y="446" on="1"/>
        <pt x="377" y="378" on="1"/>
        <pt x="334" y="416" on="0"/>
        <pt x="290" y="416" on="1"/>
        <pt x="228" y="416" on="0"/>
        <pt x="149" y="321" on="0"/>
        <pt x="149" y="167" on="0"/>
        <pt x="226" y="73" on="0"/>
        <pt x="287" y="73" on="1"/>
        <pt x="341" y="73" on="0"/>
        <pt x="393" y="118" on="1"/>
        <pt x="436" y="49" on="1"/>
        <pt x="366" y="-12" on="0"/>
      </contour>
      <contour>
        <pt x="183" y="-231" on="1"/>
        <pt x="174" y="-184" on="1"/>
        <pt x="234" y="-180" on="0"/>
        <pt x="281" y="-158" on="0"/>
        <pt x="281" y="-136" on="1"/>
        <pt x="281" y="-117" on="0"/>
        <pt x="246" y="-96" on="0"/>
        <pt x="204" y="-90" on="1"/>
        <pt x="249" y="3" on="1"/>
        <pt x="314" y="3" on="1"/>
        <pt x="285" y="-63" on="1"/>
        <pt x="359" y="-80" on="0"/>
        <pt x="359" y="-135" on="1"/>
        <pt x="359" y="-223" on="0"/>
      </contour>
    </TTGlyph>
    <TTGlyph name="cedilla" xMin="177" yMin="-231" xMax="362" yMax="3">
      <contour>
        <pt x="186" y="-231" on="1"/>
        <pt x="177" y="-184" on="1"/>
        <pt x="237" y="-180" on="0"/>
        <pt x="284" y="-158" on="0"/>
        <pt x="284" y="-136" on="1"/>
        <pt x="284" y="-117" on="0"/>
        <pt x="249" y="-96" on="0"/>
        <pt x="207" y="-90" on="1"/>
        <pt x="252" y="3" on="1"/>
        <pt x="317" y="3" on="1"/>
        <pt x="288" y="-63" on="1"/>
        <pt x="362" y="-80" on="0"/>
        <pt x="362" y="-135" on="1"/>
        <pt x="362" y="-223" on="0"/>
      </contour>
    </TTGlyph>
    <TTGlyph name="cent" xMin="61" yMin="-35" xMax="465" yMax="654">
      <contour>
        <pt x="305" y="63" on="1"/>
        <pt x="195" y="63" on="0"/>
        <pt x="61" y="193" on="0"/>
        <pt x="61" y="309" on="1"/>
        <pt x="61" y="423" on="0"/>
        <pt x="205" y="555" on="0"/>
        <pt x="313" y="555" on="1"/>
        <pt x="397" y="555" on="0"/>
        <pt x="457" y="497" on="1"/>
        <pt x="407" y="432" on="1"/>
        <pt x="367" y="469" on="0"/>
        <pt x="319" y="469" on="1"/>
        <pt x="247" y="469" on="0"/>
        <pt x="163" y="382" on="0"/>
        <pt x="163" y="236" on="0"/>
        <pt x="245" y="148" on="0"/>
        <pt x="316" y="148" on="1"/>
        <pt x="369" y="148" on="0"/>
        <pt x="421" y="192" on="1"/>
        <pt x="465" y="126" on="1"/>
        <pt x="394" y="63" on="0"/>
      </contour>
      <contour>
        <pt x="267" y="-35" on="1"/>
        <pt x="267" y="654" on="1"/>
        <pt x="328" y="654" on="1"/>
        <pt x="328" y="-35" on="1"/>
      </contour>
    </TTGlyph>
    <TTGlyph name="circumflex" xMin="109" yMin="566" xMax="437" yMax="741">
      <contour>
        <pt x="109" y="605" on="1"/>
        <pt x="221" y="741" on="1"/>
        <pt x="325" y="741" on="1"/>
        <pt x="437" y="605" on="1"/>
        <pt x="395" y="566" on="1"/>
        <pt x="275" y="672" on="1"/>
        <pt x="271" y="672" on="1"/>
        <pt x="151" y="566" on="1"/>
      </contour>
    </TTGlyph>
    <TTGlyph name="colon" xMin="64" yMin="-12" xMax="202" yMax="482">
      <contour>
        <pt x="162" y="336" on="0"/>
        <pt x="104" y="336" on="0"/>
        <pt x="64" y="377" on="0"/>
        <pt x="64" y="408" on="1"/>
        <pt x="64" y="440" on="0"/>
        <pt x="104" y="482" on="0"/>
        <pt x="162" y="482" on="0"/>
        <pt x="202" y="440" on="0"/>
        <pt x="202" y="408" on="1"/>
        <pt x="202" y="377" on="0"/>
      </contour>
      <contour>
        <pt x="162" y="-12" on="0"/>
        <pt x="104" y="-12" on="0"/>
        <pt x="64" y="29" on="0"/>
        <pt x="64" y="60" on="1"/>
        <pt x="64" y="92" on="0"/>
        <pt x="104" y="134" on="0"/>
        <pt x="162" y="134" on="0"/>
        <pt x="202" y="92" on="0"/>
        <pt x="202" y="60" on="1"/>
        <pt x="202" y="29" on="0"/>
      </contour>
    </TTGlyph>
    <TTGlyph name="comma" xMin="47" yMin="-178" xMax="218" yMax="134">
      <contour>
        <pt x="70" y="-178" on="1"/>
        <pt x="47" y="-120" on="1"/>
        <pt x="94" y="-101" on="0"/>
        <pt x="145" y="-36" on="0"/>
        <pt x="144" y="4" on="1"/>
        <pt x="138" y="86" on="1"/>
        <pt x="181" y="19" on="1"/>
        <pt x="163" y="1" on="0"/>
        <pt x="135" y="1" on="1"/>
        <pt x="106" y="1" on="0"/>
        <pt x="66" y="37" on="0"/>
        <pt x="66" y="97" on="0"/>
        <pt x="107" y="134" on="0"/>
        <pt x="137" y="134" on="1"/>
        <pt x="175" y="134" on="0"/>
        <pt x="218" y="75" on="0"/>
        <pt x="218" y="23" on="1"/>
        <pt x="218" y="-47" on="0"/>
        <pt x="140" y="-152" on="0"/>
      </contour>
    </TTGlyph>
    <TTGlyph name="copyright" xMin="48" yMin="-10" xMax="698" yMax="654">
      <contour>
        <pt x="509" y="-10" on="0"/>
        <pt x="237" y="-10" on="0"/>
        <pt x="48" y="175" on="0"/>
        <pt x="48" y="324" on="1"/>
        <pt x="48" y="472" on="0"/>
        <pt x="237" y="654" on="0"/>
        <pt x="509" y="654" on="0"/>
        <pt x="698" y="472" on="0"/>
        <pt x="698" y="324" on="1"/>
        <pt x="698" y="175" on="0"/>
      </contour>
      <contour>
        <pt x="258" y="38" on="0"/>
        <pt x="488" y="38" on="0"/>
        <pt x="644" y="198" on="0"/>
        <pt x="644" y="450" on="0"/>
        <pt x="488" y="606" on="0"/>
        <pt x="258" y="606" on="0"/>
        <pt x="102" y="450" on="0"/>
        <pt x="102" y="198" on="0"/>
      </contour>
      <contour>
        <pt x="382" y="126" on="1"/>
        <pt x="302" y="126" on="0"/>
        <pt x="197" y="233" on="0"/>
        <pt x="197" y="323" on="1"/>
        <pt x="197" y="408" on="0"/>
        <pt x="307" y="513" on="0"/>
        <pt x="384" y="513" on="1"/>
        <pt x="455" y="513" on="0"/>
        <pt x="512" y="456" on="1"/>
        <pt x="470" y="409" on="1"/>
        <pt x="431" y="448" on="0"/>
        <pt x="389" y="448" on="1"/>
        <pt x="337" y="448" on="0"/>
        <pt x="276" y="378" on="0"/>
        <pt x="276" y="323" on="1"/>
        <pt x="276" y="262" on="0"/>
        <pt x="335" y="191" on="0"/>
        <pt x="385" y="191" on="1"/>
        <pt x="432" y="191" on="0"/>
        <pt x="480" y="232" on="1"/>
        <pt x="516" y="181" on="1"/>
        <pt x="452" y="126" on="0"/>
      </contour>
    </TTGlyph>
    <TTGlyph name="currency" xMin="24" yMin="96" xMax="483" yMax="563">
      <contour>
        <pt x="78" y="96" on="1"/>
        <pt x="24" y="151" on="1"/>
        <pt x="87" y="215" on="1"/>
        <pt x="52" y="264" on="0"/>
        <pt x="52" y="329" on="1"/>
        <pt x="52" y="395" on="0"/>
        <pt x="87" y="444" on="1"/>
        <pt x="24" y="508" on="1"/>
        <pt x="78" y="563" on="1"/>
        <pt x="146" y="493" on="1"/>
        <pt x="195" y="526" on="0"/>
        <pt x="254" y="526" on="1"/>
        <pt x="312" y="526" on="0"/>
        <pt x="361" y="493" on="1"/>
        <pt x="429" y="563" on="1"/>
        <pt x="483" y="508" on="1"/>
        <pt x="420" y="444" on="1"/>
        <pt x="456" y="393" on="0"/>
        <pt x="456" y="329" on="1"/>
        <pt x="456" y="266" on="0"/>
        <pt x="420" y="215" on="1"/>
        <pt x="483" y="151" on="1"/>
        <pt x="429" y="96" on="1"/>
        <pt x="361" y="166" on="1"/>
        <pt x="314" y="133" on="0"/>
        <pt x="194" y="133" on="0"/>
        <pt x="146" y="166" on="1"/>
      </contour>
      <contour>
        <pt x="254" y="208" on="1"/>
        <pt x="299" y="208" on="0"/>
        <pt x="361" y="275" on="0"/>
        <pt x="361" y="383" on="0"/>
        <pt x="299" y="451" on="0"/>
        <pt x="254" y="451" on="1"/>
        <pt x="208" y="451" on="0"/>
        <pt x="146" y="383" on="0"/>
        <pt x="146" y="275" on="0"/>
        <pt x="208" y="208" on="0"/>
      </contour>
    </TTGlyph>
    <TTGlyph name="d" xMin="45" yMin="-12" xMax="485" yMax="708">
      <contour>
        <pt x="246" y="-12" on="1"/>
        <pt x="154" y="-12" on="0"/>
        <pt x="45" y="124" on="0"/>
        <pt x="45" y="244" on="1"/>
        <pt x="45" y="359" on="0"/>
        <pt x="168" y="501" on="0"/>
        <pt x="253" y="501" on="1"/>
        <pt x="320" y="501" on="0"/>
        <pt x="385" y="447" on="1"/>
        <pt x="381" y="527" on="1"/>
        <pt x="381" y="708" on="1"/>
        <pt x="485" y="708" on="1"/>
        <pt x="485" y="0" on="1"/>
        <pt x="399" y="0" on="1"/>
        <pt x="391" y="55" on="1"/>
        <pt x="388" y="55" on="1"/>
        <pt x="321" y="-12" on="0"/>
      </contour>
      <contour>
        <pt x="214" y="74" on="0"/>
        <pt x="328" y="74" on="0"/>
        <pt x="381" y="133" on="1"/>
        <pt x="381" y="371" on="1"/>
        <pt x="330" y="415" on="0"/>
        <pt x="274" y="415" on="1"/>
        <pt x="222" y="415" on="0"/>
        <pt x="152" y="322" on="0"/>
        <pt x="152" y="245" on="1"/>
        <pt x="152" y="163" on="0"/>
      </contour>
    </TTGlyph>
    <TTGlyph name="degree" xMin="40" yMin="419" xMax="304" yMax="685">
      <contour>
        <pt x="227" y="419" on="0"/>
        <pt x="117" y="419" on="0"/>
        <pt x="40" y="493" on="0"/>
        <pt x="40" y="551" on="1"/>
        <pt x="40" y="610" on="0"/>
        <pt x="117" y="685" on="0"/>
        <pt x="227" y="685" on="0"/>
        <pt x="304" y="610" on="0"/>
        <pt x="304" y="551" on="1"/>
        <pt x="304" y="493" on="0"/>
      </contour>
      <contour>
        <pt x="140" y="473" on="0"/>
        <pt x="204" y="473" on="0"/>
        <pt x="244" y="517" on="0"/>
        <pt x="244" y="551" on="1"/>
        <pt x="244" y="586" on="0"/>
        <pt x="204" y="631" on="0"/>
        <pt x="140" y="631" on="0"/>
        <pt x="99" y="586" on="0"/>
        <pt x="99" y="551" on="1"/>
        <pt x="99" y="517" on="0"/>
      </contour>
    </TTGlyph>
    <TTGlyph name="dieresis" xMin="115" yMin="581" xMax="431" yMax="695">
      <contour>
        <pt x="197" y="581" on="0"/>
        <pt x="147" y="581" on="0"/>
        <pt x="115" y="614" on="0"/>
        <pt x="115" y="662" on="0"/>
        <pt x="147" y="695" on="0"/>
        <pt x="197" y="695" on="0"/>
        <pt x="229" y="662" on="0"/>
        <pt x="229" y="614" on="0"/>
      </contour>
      <contour>
        <pt x="399" y="581" on="0"/>
        <pt x="349" y="581" on="0"/>
        <pt x="317" y="614" on="0"/>
        <pt x="317" y="662" on="0"/>
        <pt x="349" y="695" on="0"/>
        <pt x="399" y="695" on="0"/>
        <pt x="431" y="662" on="0"/>
        <pt x="431" y="614" on="0"/>
      </contour>
    </TTGlyph>
    <TTGlyph name="divide" xMin="34" yMin="88" xMax="473" yMax="571">
      <contour>
        <pt x="34" y="292" on="1"/>
        <pt x="34" y="368" on="1"/>
        <pt x="473" y="368" on="1"/>
        <pt x="473" y="292" on="1"/>
      </contour>
      <contour>
        <pt x="281" y="88" on="0"/>
        <pt x="227" y="88" on="0"/>
        <pt x="190" y="123" on="0"/>
        <pt x="190" y="177" on="0"/>
        <pt x="227" y="211" on="0"/>
        <pt x="281" y="211" on="0"/>
        <pt x="317" y="177" on="0"/>
        <pt x="317" y="123" on="0"/>
      </contour>
      <contour>
        <pt x="281" y="448" on="0"/>
        <pt x="227" y="448" on="0"/>
        <pt x="190" y="483" on="0"/>
        <pt x="190" y="537" on="0"/>
        <pt x="227" y="571" on="0"/>
        <pt x="281" y="571" on="0"/>
        <pt x="317" y="537" on="0"/>
        <pt x="317" y="483" on="0"/>
      </contour>
    </TTGlyph>
    <TTGlyph name="dollar" xMin="47" yMin="-110" xMax="447" yMax="747">
      <contour>
        <pt x="245" y="-12" on="1"/>
        <pt x="194" y="-12" on="0"/>
        <pt x="86" y="31" on="0"/>
        <pt x="47" y="66" on="1"/>
        <pt x="95" y="137" on="1"/>
        <pt x="173" y="73" on="0"/>
        <pt x="245" y="73" on="1"/>
        <pt x="295" y="73" on="0"/>
        <pt x="347" y="121" on="0"/>
        <pt x="347" y="165" on="1"/>
        <pt x="347" y="204" on="0"/>
        <pt x="290" y="261" on="0"/>
        <pt x="210" y="301" on="0"/>
        <pt x="129" y="344" on="0"/>
        <pt x="72" y="421" on="0"/>
        <pt x="72" y="473" on="1"/>
        <pt x="72" y="552" on="0"/>
        <pt x="176" y="649" on="0"/>
        <pt x="261" y="649" on="1"/>
        <pt x="361" y="649" on="0"/>
        <pt x="436" y="570" on="1"/>
        <pt x="382" y="509" on="1"/>
        <pt x="352" y="538" on="0"/>
        <pt x="300" y="564" on="0"/>
        <pt x="265" y="564" on="1"/>
        <pt x="222" y="564" on="0"/>
        <pt x="173" y="518" on="0"/>
        <pt x="173" y="478" on="1"/>
        <pt x="173" y="448" on="0"/>
        <pt x="214" y="402" on="0"/>
        <pt x="274" y="373" on="0"/>
        <pt x="346" y="335" on="0"/>
        <pt x="406" y="294" on="0"/>
        <pt x="447" y="221" on="0"/>
        <pt x="447" y="172" on="1"/>
        <pt x="447" y="89" on="0"/>
        <pt x="338" y="-12" on="0"/>
      </contour>
      <contour>
        <pt x="220" y="-110" on="1"/>
        <pt x="220" y="27" on="1"/>
        <pt x="292" y="27" on="1"/>
        <pt x="292" y="-110" on="1"/>
      </contour>
      <contour>
        <pt x="220" y="613" on="1"/>
        <pt x="220" y="747" on="1"/>
        <pt x="292" y="747" on="1"/>
        <pt x="292" y="613" on="1"/>
      </contour>
    </TTGlyph>
    <TTGlyph name="dotlessi" xMin="76" yMin="0" xMax="180" yMax="489">
      <contour>
        <pt x="76" y="0" on="1"/>
        <pt x="76" y="489" on="1"/>
        <pt x="180" y="489" on="1"/>
        <pt x="180" y="0" on="1"/>
      </contour>
    </TTGlyph>
    <TTGlyph name="e" xMin="43" yMin="-12" xMax="466" yMax="501">
      <contour>
        <pt x="281" y="-12" on="1"/>
        <pt x="178" y="-12" on="0"/>
        <pt x="43" y="126" on="0"/>
        <pt x="43" y="244" on="1"/>
        <pt x="43" y="359" on="0"/>
        <pt x="176" y="501" on="0"/>
        <pt x="266" y="501" on="1"/>
        <pt x="362" y="501" on="0"/>
        <pt x="466" y="376" on="0"/>
        <pt x="466" y="270" on="1"/>
        <pt x="466" y="237" on="0"/>
        <pt x="461" y="217" on="1"/>
        <pt x="144" y="217" on="1"/>
        <pt x="151" y="148" on="0"/>
        <pt x="232" y="69" on="0"/>
        <pt x="295" y="69" on="1"/>
        <pt x="353" y="69" on="0"/>
        <pt x="411" y="106" on="1"/>
        <pt x="447" y="40" on="1"/>
        <pt x="369" y="-12" on="0"/>
      </contour>
      <contour>
        <pt x="143" y="289" on="1"/>
        <pt x="376" y="289" on="1"/>
        <pt x="376" y="352" on="0"/>
        <pt x="321" y="420" on="0"/>
        <pt x="268" y="420" on="1"/>
        <pt x="221" y="420" on="0"/>
        <pt x="150" y="350" on="0"/>
      </contour>
    </TTGlyph>
    <TTGlyph name="eacute" xMin="43" yMin="-12" xMax="466" yMax="796">
      <contour>
        <pt x="281" y="-12" on="1"/>
        <pt x="178" y="-12" on="0"/>
        <pt x="43" y="126" on="0"/>
        <pt x="43" y="244" on="1"/>
        <pt x="43" y="359" on="0"/>
        <pt x="176" y="501" on="0"/>
        <pt x="266" y="501" on="1"/>
        <pt x="362" y="501" on="0"/>
        <pt x="466" y="376" on="0"/>
        <pt x="466" y="270" on="1"/>
        <pt x="466" y="237" on="0"/>
        <pt x="461" y="217" on="1"/>
        <pt x="144" y="217" on="1"/>
        <pt x="151" y="148" on="0"/>
        <pt x="232" y="69" on="0"/>
        <pt x="295" y="69" on="1"/>
        <pt x="353" y="69" on="0"/>
        <pt x="411" y="106" on="1"/>
        <pt x="447" y="40" on="1"/>
        <pt x="369" y="-12" on="0"/>
      </contour>
      <contour>
        <pt x="143" y="289" on="1"/>
        <pt x="376" y="289" on="1"/>
        <pt x="376" y="352" on="0"/>
        <pt x="321" y="420" on="0"/>
        <pt x="268" y="420" on="1"/>
        <pt x="221" y="420" on="0"/>
        <pt x="150" y="350" on="0"/>
      </contour>
      <contour>
        <pt x="260" y="573" on="1"/>
        <pt x="208" y="624" on="1"/>
        <pt x="353" y="796" on="1"/>
        <pt x="425" y="727" on="1"/>
      </contour>
    </TTGlyph>
    <TTGlyph name="ecircumflex" xMin="43" yMin="-12" xMax="466" yMax="741">
      <contour>
        <pt x="281" y="-12" on="1"/>
        <pt x="178" y="-12" on="0"/>
        <pt x="43" y="126" on="0"/>
        <pt x="43" y="244" on="1"/>
        <pt x="43" y="359" on="0"/>
        <pt x="176" y="501" on="0"/>
        <pt x="266" y="501" on="1"/>
        <pt x="362" y="501" on="0"/>
        <pt x="466" y="376" on="0"/>
        <pt x="466" y="270" on="1"/>
        <pt x="466" y="237" on="0"/>
        <pt x="461" y="217" on="1"/>
        <pt x="144" y="217" on="1"/>
        <pt x="151" y="148" on="0"/>
        <pt x="232" y="69" on="0"/>
        <pt x="295" y="69" on="1"/>
        <pt x="353" y="69" on="0"/>
        <pt x="411" y="106" on="1"/>
        <pt x="447" y="40" on="1"/>
        <pt x="369" y="-12" on="0"/>
      </contour>
      <contour>
        <pt x="143" y="289" on="1"/>
        <pt x="376" y="289" on="1"/>
        <pt x="376" y="352" on="0"/>
        <pt x="321" y="420" on="0"/>
        <pt x="268" y="420" on="1"/>
        <pt x="221" y="420" on="0"/>
        <pt x="150" y="350" on="0"/>
      </contour>
      <contour>
        <pt x="102" y="605" on="1"/>
        <pt x="214" y="741" on="1"/>
        <pt x="318" y="741" on="1"/>
        <pt x="430" y="605" on="1"/>
        <pt x="388" y="566" on="1"/>
        <pt x="268" y="672" on="1"/>
        <pt x="264" y="672" on="1"/>
        <pt x="144" y="566" on="1"/>
      </contour>
    </TTGlyph>
    <TTGlyph name="edieresis" xMin="43" yMin="-12" xMax="466" yMax="695">
      <contour>
        <pt x="281" y="-12" on="1"/>
        <pt x="178" y="-12" on="0"/>
        <pt x="43" y="126" on="0"/>
        <pt x="43" y="244" on="1"/>
        <pt x="43" y="359" on="0"/>
        <pt x="176" y="501" on="0"/>
        <pt x="266" y="501" on="1"/>
        <pt x="362" y="501" on="0"/>
        <pt x="466" y="376" on="0"/>
        <pt x="466" y="270" on="1"/>
        <pt x="466" y="237" on="0"/>
        <pt x="461" y="217" on="1"/>
        <pt x="144" y="217" on="1"/>
        <pt x="151" y="148" on="0"/>
        <pt x="232" y="69" on="0"/>
        <pt x="295" y="69" on="1"/>
        <pt x="353" y="69" on="0"/>
        <pt x="411" y="106" on="1"/>
        <pt x="447" y="40" on="1"/>
        <pt x="369" y="-12" on="0"/>
      </contour>
      <contour>
        <pt x="143" y="289" on="1"/>
        <pt x="376" y="289" on="1"/>
        <pt x="376" y="352" on="0"/>
        <pt x="321" y="420" on="0"/>
        <pt x="268" y="420" on="1"/>
        <pt x="221" y="420" on="0"/>
        <pt x="150" y="350" on="0"/>
      </contour>
      <contour>
        <pt x="190" y="581" on="0"/>
        <pt x="140" y="581" on="0"/>
        <pt x="108" y="614" on="0"/>
        <pt x="108" y="662" on="0"/>
        <pt x="140" y="695" on="0"/>
        <pt x="190" y="695" on="0"/>
        <pt x="222" y="662" on="0"/>
        <pt x="222" y="614" on="0"/>
      </contour>
      <contour>
        <pt x="392" y="581" on="0"/>
        <pt x="342" y="581" on="0"/>
        <pt x="310" y="614" on="0"/>
        <pt x="310" y="662" on="0"/>
        <pt x="342" y="695" on="0"/>
        <pt x="392" y="695" on="0"/>
        <pt x="424" y="662" on="0"/>
        <pt x="424" y="614" on="0"/>
      </contour>
    </TTGlyph>
</ttFont>
